<svg xmlns="http://www.w3.org/2000/svg" xmlns:xlink="http://www.w3.org/1999/xlink" width="559" zoomAndPan="magnify" viewBox="0 0 419.25 297.749993" height="397" preserveAspectRatio="xMidYMid meet" version="1.0"><defs><clipPath id="c9c7996d0b"><path d="M 0 0.140625 L 418.5 0.140625 L 418.5 297.359375 L 0 297.359375 Z M 0 0.140625 " clip-rule="nonzero"/></clipPath><clipPath id="52c4ec4f43"><path d="M 97 62.695312 L 191 62.695312 L 191 81 L 97 81 Z M 97 62.695312 " clip-rule="nonzero"/></clipPath><clipPath id="789c8942a0"><path d="M 74.753906 186 L 213.257812 186 L 213.257812 201.195312 L 74.753906 201.195312 Z M 74.753906 186 " clip-rule="nonzero"/></clipPath><clipPath id="8eee08fdcd"><path d="M 221 100.828125 L 317 100.828125 L 317 122 L 221 122 Z M 221 100.828125 " clip-rule="nonzero"/></clipPath><clipPath id="c7e07dddf3"><path d="M 213.003906 127 L 326 127 L 326 207 L 213.003906 207 Z M 213.003906 127 " clip-rule="nonzero"/></clipPath><clipPath id="98d93a633a"><path d="M 244 218 L 294 218 L 294 234.839844 L 244 234.839844 Z M 244 218 " clip-rule="nonzero"/></clipPath></defs><g clip-path="url(#c9c7996d0b)"><path fill="#ffffff" d="M 0 0.140625 L 418.5 0.140625 L 418.5 297.359375 L 0 297.359375 Z M 0 0.140625 " fill-opacity="1" fill-rule="nonzero"/><path fill="#ffffff" d="M 0 0.140625 L 418.5 0.140625 L 418.5 297.359375 L 0 297.359375 Z M 0 0.140625 " fill-opacity="1" fill-rule="nonzero"/></g><path fill="#004e79" d="M 201.714844 189.652344 L 86.296875 189.652344 L 86.296875 117.515625 C 86.296875 114.328125 88.878906 111.746094 92.066406 111.746094 L 195.945312 111.746094 C 199.132812 111.746094 201.714844 114.328125 201.714844 117.515625 Z M 201.714844 189.652344 " fill-opacity="1" fill-rule="nonzero"/><path fill="#fab400" d="M 196.464844 120.402344 L 196.464844 178.113281 C 196.464844 179.699219 195.164062 180.996094 193.578125 180.996094 L 94.433594 180.996094 C 92.847656 180.996094 91.546875 179.699219 91.546875 178.113281 L 91.546875 120.402344 C 91.546875 118.816406 92.847656 117.515625 94.433594 117.515625 L 193.578125 117.515625 C 195.164062 117.515625 196.464844 118.816406 196.464844 120.402344 Z M 196.464844 120.402344 " fill-opacity="1" fill-rule="nonzero"/><path fill="#dc9600" d="M 190.171875 117.515625 L 190.171875 172.339844 C 190.171875 173.929688 188.875 175.226562 187.289062 175.226562 L 100.722656 175.226562 C 99.136719 175.226562 97.839844 173.929688 97.839844 172.339844 L 97.839844 117.515625 Z M 190.171875 117.515625 " fill-opacity="1" fill-rule="nonzero"/><path fill="#dc9600" d="M 196.464844 120.402344 L 196.464844 123.289062 C 196.464844 121.699219 195.164062 120.402344 193.578125 120.402344 L 94.433594 120.402344 C 92.847656 120.402344 91.546875 121.699219 91.546875 123.289062 L 91.546875 120.402344 C 91.546875 118.816406 92.847656 117.515625 94.433594 117.515625 L 193.578125 117.515625 C 195.164062 117.515625 196.464844 118.816406 196.464844 120.402344 Z M 196.464844 120.402344 " fill-opacity="1" fill-rule="nonzero"/><path fill="#f0f0f0" d="M 190.171875 80.007812 L 190.171875 169.457031 C 190.171875 171.046875 188.878906 172.339844 187.289062 172.339844 L 100.722656 172.339844 C 99.132812 172.339844 97.839844 171.046875 97.839844 169.457031 L 97.839844 80.007812 Z M 190.171875 80.007812 " fill-opacity="1" fill-rule="nonzero"/><g clip-path="url(#52c4ec4f43)"><path fill="#c80a50" d="M 190.171875 65.578125 L 190.171875 80.007812 L 97.839844 80.007812 L 97.839844 65.578125 C 97.839844 63.984375 99.132812 62.695312 100.722656 62.695312 L 187.289062 62.695312 C 188.878906 62.695312 190.171875 63.984375 190.171875 65.578125 Z M 190.171875 65.578125 " fill-opacity="1" fill-rule="nonzero"/></g><path fill="#f0f0f0" d="M 167.089844 71.351562 C 167.089844 71.730469 167.015625 72.101562 166.871094 72.453125 C 166.722656 72.808594 166.515625 73.121094 166.246094 73.390625 C 165.972656 73.660156 165.660156 73.871094 165.308594 74.015625 C 164.953125 74.160156 164.585938 74.234375 164.203125 74.234375 C 163.820312 74.234375 163.453125 74.160156 163.101562 74.015625 C 162.746094 73.871094 162.433594 73.660156 162.164062 73.390625 C 161.894531 73.121094 161.683594 72.808594 161.539062 72.453125 C 161.390625 72.101562 161.320312 71.730469 161.320312 71.351562 C 161.320312 70.96875 161.390625 70.597656 161.539062 70.246094 C 161.683594 69.890625 161.894531 69.578125 162.164062 69.308594 C 162.433594 69.039062 162.746094 68.832031 163.101562 68.683594 C 163.453125 68.539062 163.820312 68.464844 164.203125 68.464844 C 164.585938 68.464844 164.953125 68.539062 165.308594 68.683594 C 165.660156 68.832031 165.972656 69.039062 166.246094 69.308594 C 166.515625 69.578125 166.722656 69.890625 166.871094 70.246094 C 167.015625 70.597656 167.089844 70.96875 167.089844 71.351562 Z M 167.089844 71.351562 " fill-opacity="1" fill-rule="nonzero"/><path fill="#fab400" d="M 175.746094 71.351562 C 175.746094 71.730469 175.671875 72.101562 175.527344 72.453125 C 175.378906 72.808594 175.171875 73.121094 174.902344 73.390625 C 174.628906 73.660156 174.316406 73.871094 173.964844 74.015625 C 173.609375 74.160156 173.242188 74.234375 172.859375 74.234375 C 172.476562 74.234375 172.109375 74.160156 171.757812 74.015625 C 171.402344 73.871094 171.089844 73.660156 170.820312 73.390625 C 170.550781 73.121094 170.339844 72.808594 170.195312 72.453125 C 170.046875 72.101562 169.976562 71.730469 169.976562 71.351562 C 169.976562 70.96875 170.046875 70.597656 170.195312 70.246094 C 170.339844 69.890625 170.550781 69.578125 170.820312 69.308594 C 171.089844 69.039062 171.402344 68.832031 171.757812 68.683594 C 172.109375 68.539062 172.476562 68.464844 172.859375 68.464844 C 173.242188 68.464844 173.609375 68.539062 173.964844 68.683594 C 174.316406 68.832031 174.628906 69.039062 174.902344 69.308594 C 175.171875 69.578125 175.378906 69.890625 175.527344 70.246094 C 175.671875 70.597656 175.746094 70.96875 175.746094 71.351562 Z M 175.746094 71.351562 " fill-opacity="1" fill-rule="nonzero"/><path fill="#00a0c8" d="M 184.402344 71.351562 C 184.402344 71.730469 184.328125 72.101562 184.183594 72.453125 C 184.035156 72.808594 183.828125 73.121094 183.558594 73.390625 C 183.285156 73.660156 182.972656 73.871094 182.621094 74.015625 C 182.265625 74.160156 181.898438 74.234375 181.515625 74.234375 C 181.132812 74.234375 180.765625 74.160156 180.414062 74.015625 C 180.058594 73.871094 179.746094 73.660156 179.476562 73.390625 C 179.207031 73.121094 178.996094 72.808594 178.851562 72.453125 C 178.703125 72.101562 178.632812 71.730469 178.632812 71.351562 C 178.632812 70.96875 178.703125 70.597656 178.851562 70.246094 C 178.996094 69.890625 179.207031 69.578125 179.476562 69.308594 C 179.746094 69.039062 180.058594 68.832031 180.414062 68.683594 C 180.765625 68.539062 181.132812 68.464844 181.515625 68.464844 C 181.898438 68.464844 182.265625 68.539062 182.621094 68.683594 C 182.972656 68.832031 183.285156 69.039062 183.558594 69.308594 C 183.828125 69.578125 184.035156 69.890625 184.183594 70.246094 C 184.328125 70.597656 184.402344 70.96875 184.402344 71.351562 Z M 184.402344 71.351562 " fill-opacity="1" fill-rule="nonzero"/><path fill="#f0f0f0" d="M 103.609375 71.351562 C 103.609375 72.941406 104.902344 74.234375 106.496094 74.234375 L 126.691406 74.234375 C 128.285156 74.234375 129.578125 72.941406 129.578125 71.351562 C 129.578125 69.757812 128.285156 68.464844 126.691406 68.464844 L 106.496094 68.464844 C 104.902344 68.464844 103.609375 69.757812 103.609375 71.351562 Z M 103.609375 71.351562 " fill-opacity="1" fill-rule="nonzero"/><path fill="#fab400" d="M 106.496094 88.664062 L 106.496094 117.515625 C 106.496094 119.109375 107.789062 120.402344 109.378906 120.402344 L 178.632812 120.402344 C 180.222656 120.402344 181.515625 119.109375 181.515625 117.515625 L 181.515625 88.664062 C 181.515625 87.070312 180.222656 85.777344 178.632812 85.777344 L 109.378906 85.777344 C 107.789062 85.777344 106.496094 87.070312 106.496094 88.664062 Z M 106.496094 88.664062 " fill-opacity="1" fill-rule="nonzero"/><path fill="#00a0c8" d="M 106.496094 129.058594 L 106.496094 140.601562 C 106.496094 142.195312 107.789062 143.488281 109.378906 143.488281 L 123.808594 143.488281 C 125.398438 143.488281 126.691406 142.195312 126.691406 140.601562 L 126.691406 129.058594 C 126.691406 127.464844 125.398438 126.171875 123.808594 126.171875 L 109.378906 126.171875 C 107.789062 126.171875 106.496094 127.464844 106.496094 129.058594 Z M 106.496094 129.058594 " fill-opacity="1" fill-rule="nonzero"/><path fill="#c80a50" d="M 106.496094 152.144531 L 106.496094 163.683594 C 106.496094 165.277344 107.789062 166.570312 109.378906 166.570312 L 123.808594 166.570312 C 125.398438 166.570312 126.691406 165.277344 126.691406 163.683594 L 126.691406 152.144531 C 126.691406 150.550781 125.398438 149.257812 123.808594 149.257812 L 109.378906 149.257812 C 107.789062 149.257812 106.496094 150.550781 106.496094 152.144531 Z M 106.496094 152.144531 " fill-opacity="1" fill-rule="nonzero"/><path fill="#d2d2d2" d="M 178.632812 131.945312 L 135.347656 131.945312 C 133.757812 131.945312 132.464844 130.65625 132.464844 129.058594 C 132.464844 127.464844 133.757812 126.171875 135.347656 126.171875 L 178.632812 126.171875 C 180.222656 126.171875 181.515625 127.464844 181.515625 129.058594 C 181.515625 130.65625 180.222656 131.945312 178.632812 131.945312 Z M 178.632812 131.945312 " fill-opacity="1" fill-rule="nonzero"/><path fill="#d2d2d2" d="M 178.632812 143.488281 L 135.347656 143.488281 C 133.757812 143.488281 132.464844 142.195312 132.464844 140.601562 C 132.464844 139.003906 133.757812 137.714844 135.347656 137.714844 L 178.632812 137.714844 C 180.222656 137.714844 181.515625 139.003906 181.515625 140.601562 C 181.515625 142.195312 180.222656 143.488281 178.632812 143.488281 Z M 178.632812 143.488281 " fill-opacity="1" fill-rule="nonzero"/><path fill="#d2d2d2" d="M 178.632812 155.027344 L 135.347656 155.027344 C 133.757812 155.027344 132.464844 153.738281 132.464844 152.144531 C 132.464844 150.546875 133.757812 149.257812 135.347656 149.257812 L 178.632812 149.257812 C 180.222656 149.257812 181.515625 150.546875 181.515625 152.144531 C 181.515625 153.738281 180.222656 155.027344 178.632812 155.027344 Z M 178.632812 155.027344 " fill-opacity="1" fill-rule="nonzero"/><path fill="#d2d2d2" d="M 178.632812 166.570312 L 135.347656 166.570312 C 133.757812 166.570312 132.464844 165.28125 132.464844 163.683594 C 132.464844 162.089844 133.757812 160.800781 135.347656 160.800781 L 178.632812 160.800781 C 180.222656 160.800781 181.515625 162.089844 181.515625 163.683594 C 181.515625 165.28125 180.222656 166.570312 178.632812 166.570312 Z M 178.632812 166.570312 " fill-opacity="1" fill-rule="nonzero"/><path fill="#0a5078" d="M 155.546875 114.632812 C 154.894531 114.632812 154.242188 114.414062 153.699219 113.964844 C 152.476562 112.945312 152.3125 111.125 153.332031 109.898438 L 159.003906 103.089844 L 153.332031 96.28125 C 152.308594 95.058594 152.476562 93.234375 153.699219 92.21875 C 154.925781 91.199219 156.742188 91.359375 157.761719 92.585938 L 164.976562 101.242188 C 165.867188 102.3125 165.867188 103.867188 164.976562 104.941406 L 157.761719 113.597656 C 157.191406 114.28125 156.371094 114.632812 155.546875 114.632812 Z M 155.546875 114.632812 " fill-opacity="1" fill-rule="nonzero"/><path fill="#0a5078" d="M 132.464844 114.632812 C 131.636719 114.632812 130.816406 114.28125 130.246094 113.597656 L 123.03125 104.941406 C 122.140625 103.867188 122.140625 102.3125 123.03125 101.242188 L 130.246094 92.585938 C 131.265625 91.363281 133.082031 91.203125 134.308594 92.21875 C 135.53125 93.238281 135.695312 95.058594 134.675781 96.28125 L 129.007812 103.089844 L 134.679688 109.898438 C 135.703125 111.121094 135.535156 112.945312 134.308594 113.960938 C 133.769531 114.414062 133.117188 114.632812 132.464844 114.632812 Z M 132.464844 114.632812 " fill-opacity="1" fill-rule="nonzero"/><path fill="#0a5078" d="M 141.121094 114.632812 C 140.820312 114.632812 140.511719 114.582031 140.207031 114.480469 C 138.695312 113.980469 137.878906 112.347656 138.382812 110.832031 L 144.15625 93.519531 C 144.65625 92.007812 146.289062 91.183594 147.804688 91.695312 C 149.316406 92.195312 150.132812 93.832031 149.628906 95.34375 L 143.859375 112.65625 C 143.453125 113.867188 142.328125 114.632812 141.121094 114.632812 Z M 141.121094 114.632812 " fill-opacity="1" fill-rule="nonzero"/><g clip-path="url(#789c8942a0)"><path fill="#00a0ca" d="M 213.257812 189.652344 L 213.257812 192.539062 C 213.257812 197.320312 209.382812 201.195312 204.601562 201.195312 L 83.410156 201.195312 C 78.628906 201.195312 74.753906 197.320312 74.753906 192.539062 L 74.753906 189.652344 C 74.753906 188.0625 76.046875 186.769531 77.640625 186.769531 L 210.371094 186.769531 C 211.964844 186.769531 213.257812 188.0625 213.257812 189.652344 Z M 213.257812 189.652344 " fill-opacity="1" fill-rule="nonzero"/></g><path fill="#0082aa" d="M 155.546875 192.539062 L 132.464844 192.539062 C 129.273438 192.539062 126.691406 189.957031 126.691406 186.769531 L 161.320312 186.769531 C 161.320312 189.957031 158.734375 192.539062 155.546875 192.539062 Z M 155.546875 192.539062 " fill-opacity="1" fill-rule="nonzero"/><g clip-path="url(#8eee08fdcd)"><path fill="#f29c1f" d="M 221.691406 116.769531 L 266.921875 121.253906 L 316.664062 116.769531 L 316.664062 105.90625 C 316.664062 103.128906 314.394531 100.855469 311.621094 100.855469 L 226.734375 100.855469 C 223.960938 100.855469 221.691406 103.128906 221.691406 105.90625 Z M 221.691406 116.769531 " fill-opacity="1" fill-rule="evenodd"/></g><path fill="#20459e" d="M 255.65625 204.542969 L 282.695312 204.542969 L 282.695312 220.296875 L 255.65625 220.296875 Z M 255.65625 204.542969 " fill-opacity="1" fill-rule="evenodd"/><g clip-path="url(#c7e07dddf3)"><path fill="#2b6bb2" d="M 316.246094 127.246094 C 321.195312 127.246094 325.246094 131.300781 325.246094 136.253906 L 325.246094 197.03125 C 325.246094 201.984375 321.195312 206.039062 316.246094 206.039062 L 222.109375 206.039062 C 217.15625 206.039062 213.109375 201.984375 213.109375 197.03125 L 213.109375 136.253906 C 213.109375 131.300781 217.15625 127.246094 222.109375 127.246094 C 253.488281 127.246094 284.867188 127.246094 316.246094 127.246094 Z M 316.246094 127.246094 " fill-opacity="1" fill-rule="evenodd"/></g><path fill="#57b3fe" d="M 311.914062 140.59375 L 311.914062 192.691406 L 226.441406 192.691406 L 226.441406 140.59375 C 254.933594 140.59375 283.421875 140.59375 311.914062 140.59375 Z M 311.914062 140.59375 " fill-opacity="1" fill-rule="evenodd"/><g clip-path="url(#98d93a633a)"><path fill="#2b6bb2" d="M 244.480469 218.800781 L 293.871094 218.800781 L 293.871094 234.898438 L 244.480469 234.898438 Z M 244.480469 218.800781 " fill-opacity="1" fill-rule="evenodd"/></g><path fill="#e4eaf8" d="M 316.664062 116.769531 L 316.664062 177.164062 C 316.664062 179.941406 314.394531 182.210938 311.617188 182.210938 L 226.734375 182.210938 C 223.960938 182.210938 221.691406 179.941406 221.691406 177.164062 L 221.691406 116.769531 Z M 316.664062 116.769531 " fill-opacity="1" fill-rule="evenodd"/><path fill="#ffce00" d="M 233.734375 107.136719 C 233.734375 106.3125 233.066406 105.640625 232.242188 105.640625 C 231.417969 105.640625 230.746094 106.3125 230.746094 107.136719 L 230.746094 110.488281 C 230.746094 111.3125 231.417969 111.984375 232.242188 111.984375 C 233.066406 111.984375 233.734375 111.3125 233.734375 110.488281 Z M 233.734375 107.136719 " fill-opacity="1" fill-rule="nonzero"/><path fill="#ffce00" d="M 242.699219 107.136719 C 242.699219 106.3125 242.03125 105.640625 241.207031 105.640625 C 240.382812 105.640625 239.710938 106.3125 239.710938 107.136719 L 239.710938 110.488281 C 239.710938 111.3125 240.382812 111.984375 241.207031 111.984375 C 242.03125 111.984375 242.699219 111.3125 242.699219 110.488281 Z M 242.699219 107.136719 " fill-opacity="1" fill-rule="nonzero"/><path fill="#ffce00" d="M 251.667969 107.136719 C 251.667969 106.3125 250.996094 105.640625 250.171875 105.640625 C 249.347656 105.640625 248.675781 106.3125 248.675781 107.136719 L 248.675781 110.488281 C 248.675781 111.3125 249.347656 111.984375 250.171875 111.984375 C 250.996094 111.984375 251.667969 111.3125 251.667969 110.488281 Z M 251.667969 107.136719 " fill-opacity="1" fill-rule="nonzero"/><path fill="#ffce00" d="M 260.632812 107.136719 C 260.632812 106.3125 259.960938 105.640625 259.136719 105.640625 C 258.3125 105.640625 257.644531 106.3125 257.644531 107.136719 L 257.644531 110.488281 C 257.644531 111.3125 258.3125 111.984375 259.136719 111.984375 C 259.960938 111.984375 260.632812 111.3125 260.632812 110.488281 Z M 260.632812 107.136719 " fill-opacity="1" fill-rule="nonzero"/><path fill="#659bf6" d="M 240.800781 145.9375 C 241.390625 146.511719 242.332031 146.5 242.90625 145.910156 C 243.480469 145.316406 243.46875 144.375 242.878906 143.800781 L 238.023438 139.066406 L 242.878906 134.332031 C 243.46875 133.757812 243.480469 132.8125 242.90625 132.222656 C 242.332031 131.632812 241.390625 131.617188 240.800781 132.191406 L 234.929688 137.917969 C 234.890625 137.949219 234.855469 137.984375 234.820312 138.023438 C 234.242188 138.613281 234.253906 139.558594 234.847656 140.136719 L 235.890625 139.066406 L 234.851562 140.132812 Z M 240.800781 145.9375 " fill-opacity="1" fill-rule="nonzero"/><path fill="#659bf6" d="M 258.574219 143.800781 C 257.984375 144.375 257.972656 145.316406 258.546875 145.910156 C 259.121094 146.5 260.0625 146.511719 260.652344 145.9375 L 266.605469 140.132812 L 265.566406 139.066406 L 266.609375 140.136719 C 267.199219 139.558594 267.210938 138.613281 266.636719 138.023438 C 266.601562 137.984375 266.5625 137.949219 266.523438 137.917969 L 260.652344 132.191406 C 260.0625 131.617188 259.121094 131.632812 258.546875 132.222656 C 257.972656 132.8125 257.984375 133.757812 258.574219 134.332031 L 263.429688 139.066406 Z M 258.574219 143.800781 " fill-opacity="1" fill-rule="nonzero"/><path fill="#659bf6" d="M 254.480469 130.492188 C 254.664062 129.6875 254.164062 128.886719 253.359375 128.703125 C 252.558594 128.519531 251.757812 129.019531 251.574219 129.824219 L 247.46875 147.742188 C 247.285156 148.546875 247.785156 149.347656 248.585938 149.53125 C 249.390625 149.714844 250.191406 149.210938 250.375 148.40625 Z M 254.480469 130.492188 " fill-opacity="1" fill-rule="nonzero"/><path fill="#659bf6" d="M 235.890625 156.996094 C 235.0625 156.996094 234.394531 157.667969 234.394531 158.492188 C 234.394531 159.320312 235.0625 159.988281 235.890625 159.988281 L 288.582031 159.988281 C 289.40625 159.988281 290.078125 159.320312 290.078125 158.492188 C 290.078125 157.667969 289.40625 156.996094 288.582031 156.996094 Z M 235.890625 156.996094 " fill-opacity="1" fill-rule="nonzero"/><path fill="#659bf6" d="M 235.890625 167.335938 C 235.0625 167.335938 234.394531 168.003906 234.394531 168.832031 C 234.394531 169.65625 235.0625 170.328125 235.890625 170.328125 L 288.582031 170.328125 C 289.40625 170.328125 290.078125 169.65625 290.078125 168.832031 C 290.078125 168.003906 289.40625 167.335938 288.582031 167.335938 Z M 235.890625 167.335938 " fill-opacity="1" fill-rule="nonzero"/><path fill="#659bf6" d="M 272.917969 142.039062 C 272.09375 142.039062 271.421875 142.710938 271.421875 143.535156 C 271.421875 144.363281 272.09375 145.03125 272.917969 145.03125 L 288.582031 145.03125 C 289.40625 145.03125 290.078125 144.363281 290.078125 143.535156 C 290.078125 142.710938 289.40625 142.039062 288.582031 142.039062 Z M 272.917969 142.039062 " fill-opacity="1" fill-rule="nonzero"/><path fill="#659bf6" d="M 272.917969 133.097656 C 272.09375 133.097656 271.421875 133.769531 271.421875 134.59375 C 271.421875 135.421875 272.09375 136.089844 272.917969 136.089844 L 288.582031 136.089844 C 289.40625 136.089844 290.078125 135.421875 290.078125 134.59375 C 290.078125 133.769531 289.40625 133.097656 288.582031 133.097656 Z M 272.917969 133.097656 " fill-opacity="1" fill-rule="nonzero"/><path fill="#946ae0" d="M 325.902344 131.484375 C 328.382812 132.308594 330.636719 133.628906 332.546875 135.332031 L 338.042969 132.152344 L 343.996094 142.476562 L 338.503906 145.652344 C 338.757812 146.894531 338.894531 148.179688 338.894531 149.496094 C 338.894531 150.8125 338.757812 152.097656 338.503906 153.339844 L 343.996094 156.511719 L 338.042969 166.835938 L 332.546875 163.660156 C 330.636719 165.359375 328.382812 166.683594 325.902344 167.503906 L 325.902344 173.855469 L 313.996094 173.855469 L 313.996094 167.503906 C 311.511719 166.683594 309.257812 165.359375 307.351562 163.660156 L 301.851562 166.835938 L 295.898438 156.511719 L 301.394531 153.339844 C 301.136719 152.097656 301.003906 150.8125 301.003906 149.496094 C 301.003906 148.179688 301.136719 146.894531 301.394531 145.652344 L 295.898438 142.476562 L 301.851562 132.152344 L 307.351562 135.332031 C 309.257812 133.628906 311.511719 132.308594 313.996094 131.484375 L 313.996094 125.132812 L 325.902344 125.132812 Z M 325.902344 131.484375 " fill-opacity="1" fill-rule="evenodd"/><path fill="#e4eaf8" d="M 329.160156 149.496094 C 329.160156 150.101562 329.101562 150.699219 328.984375 151.292969 C 328.867188 151.886719 328.691406 152.464844 328.460938 153.023438 C 328.226562 153.582031 327.945312 154.113281 327.609375 154.617188 C 327.273438 155.121094 326.890625 155.589844 326.460938 156.015625 C 326.035156 156.445312 325.570312 156.828125 325.066406 157.164062 C 324.5625 157.5 324.03125 157.785156 323.472656 158.015625 C 322.914062 158.246094 322.339844 158.421875 321.746094 158.539062 C 321.152344 158.660156 320.554688 158.71875 319.949219 158.71875 C 319.34375 158.71875 318.746094 158.660156 318.152344 158.539062 C 317.558594 158.421875 316.980469 158.246094 316.421875 158.015625 C 315.863281 157.785156 315.332031 157.5 314.832031 157.164062 C 314.328125 156.828125 313.863281 156.445312 313.433594 156.015625 C 313.007812 155.589844 312.625 155.121094 312.289062 154.617188 C 311.953125 154.113281 311.667969 153.582031 311.4375 153.023438 C 311.207031 152.464844 311.03125 151.886719 310.914062 151.292969 C 310.796875 150.699219 310.738281 150.101562 310.738281 149.496094 C 310.738281 148.890625 310.796875 148.289062 310.914062 147.695312 C 311.03125 147.101562 311.207031 146.523438 311.4375 145.964844 C 311.667969 145.40625 311.953125 144.875 312.289062 144.371094 C 312.625 143.867188 313.007812 143.402344 313.433594 142.972656 C 313.863281 142.546875 314.328125 142.164062 314.832031 141.828125 C 315.332031 141.488281 315.863281 141.207031 316.421875 140.972656 C 316.980469 140.742188 317.558594 140.566406 318.152344 140.449219 C 318.746094 140.332031 319.34375 140.273438 319.949219 140.273438 C 320.554688 140.273438 321.152344 140.332031 321.746094 140.449219 C 322.339844 140.566406 322.914062 140.742188 323.472656 140.972656 C 324.03125 141.207031 324.5625 141.488281 325.066406 141.828125 C 325.570312 142.164062 326.035156 142.546875 326.460938 142.972656 C 326.890625 143.402344 327.273438 143.867188 327.609375 144.371094 C 327.945312 144.875 328.226562 145.40625 328.460938 145.964844 C 328.691406 146.523438 328.867188 147.101562 328.984375 147.695312 C 329.101562 148.289062 329.160156 148.890625 329.160156 149.496094 Z M 329.160156 149.496094 " fill-opacity="1" fill-rule="nonzero"/></svg>