<svg xmlns="http://www.w3.org/2000/svg" xmlns:xlink="http://www.w3.org/1999/xlink" width="559" zoomAndPan="magnify" viewBox="0 0 419.25 297.749993" height="397" preserveAspectRatio="xMidYMid meet" version="1.0"><defs><clipPath id="c91d7fdfee"><path d="M 0 0.140625 L 418.5 0.140625 L 418.5 297.359375 L 0 297.359375 Z M 0 0.140625 " clip-rule="nonzero"/></clipPath><clipPath id="6933a14c0a"><path d="M 206 206 L 272 206 L 272 221.589844 L 206 221.589844 Z M 206 206 " clip-rule="nonzero"/></clipPath><clipPath id="0ee2bdc9c7"><path d="M 191 75.601562 L 312 75.601562 L 312 203 L 191 203 Z M 191 75.601562 " clip-rule="nonzero"/></clipPath></defs><g clip-path="url(#c91d7fdfee)"><path fill="#ffffff" d="M 0 0.140625 L 418.5 0.140625 L 418.5 297.359375 L 0 297.359375 Z M 0 0.140625 " fill-opacity="1" fill-rule="nonzero"/><path fill="#ffffff" d="M 0 0.140625 L 418.5 0.140625 L 418.5 297.359375 L 0 297.359375 Z M 0 0.140625 " fill-opacity="1" fill-rule="nonzero"/></g><path fill="#03aadf" d="M 145.273438 82.203125 C 145.273438 82.578125 145.238281 82.949219 145.164062 83.316406 C 145.089844 83.679688 144.984375 84.039062 144.839844 84.382812 C 144.695312 84.730469 144.519531 85.058594 144.3125 85.367188 C 144.101562 85.679688 143.867188 85.96875 143.601562 86.234375 C 143.335938 86.496094 143.046875 86.734375 142.734375 86.941406 C 142.421875 87.148438 142.09375 87.324219 141.746094 87.46875 C 141.398438 87.609375 141.042969 87.71875 140.675781 87.792969 C 140.304688 87.863281 139.933594 87.902344 139.558594 87.902344 C 139.183594 87.902344 138.8125 87.863281 138.445312 87.792969 C 138.074219 87.71875 137.71875 87.609375 137.371094 87.46875 C 137.023438 87.324219 136.695312 87.148438 136.382812 86.941406 C 136.070312 86.734375 135.78125 86.496094 135.519531 86.234375 C 135.253906 85.96875 135.015625 85.679688 134.808594 85.367188 C 134.597656 85.058594 134.421875 84.730469 134.277344 84.382812 C 134.136719 84.039062 134.027344 83.679688 133.953125 83.316406 C 133.878906 82.949219 133.84375 82.578125 133.84375 82.203125 C 133.84375 81.828125 133.878906 81.457031 133.953125 81.089844 C 134.027344 80.722656 134.136719 80.367188 134.277344 80.023438 C 134.421875 79.675781 134.597656 79.347656 134.808594 79.035156 C 135.015625 78.726562 135.253906 78.4375 135.519531 78.171875 C 135.78125 77.910156 136.070312 77.671875 136.382812 77.464844 C 136.695312 77.257812 137.023438 77.082031 137.371094 76.9375 C 137.71875 76.792969 138.074219 76.6875 138.445312 76.613281 C 138.8125 76.539062 139.183594 76.503906 139.558594 76.503906 C 139.933594 76.503906 140.304688 76.539062 140.675781 76.613281 C 141.042969 76.6875 141.398438 76.792969 141.746094 76.9375 C 142.09375 77.082031 142.421875 77.257812 142.734375 77.464844 C 143.046875 77.671875 143.335938 77.910156 143.601562 78.171875 C 143.867188 78.4375 144.101562 78.726562 144.3125 79.035156 C 144.519531 79.347656 144.695312 79.675781 144.839844 80.023438 C 144.984375 80.367188 145.089844 80.722656 145.164062 81.089844 C 145.238281 81.457031 145.273438 81.828125 145.273438 82.203125 Z M 145.273438 82.203125 " fill-opacity="1" fill-rule="nonzero"/><path fill="#03aadf" d="M 118.554688 153.820312 C 118.554688 156.953125 115.984375 159.519531 112.839844 159.519531 C 109.695312 159.519531 107.125 156.953125 107.125 153.820312 C 107.125 150.683594 109.695312 148.121094 112.839844 148.121094 C 114.410156 148.121094 115.839844 148.785156 116.886719 149.78125 C 117.886719 150.828125 118.554688 152.253906 118.554688 153.820312 Z M 118.554688 153.820312 " fill-opacity="1" fill-rule="nonzero"/><path fill="#03aadf" d="M 157.707031 141.757812 C 157.707031 142.132812 157.667969 142.5 157.59375 142.867188 C 157.523438 143.234375 157.414062 143.59375 157.269531 143.9375 C 157.125 144.285156 156.949219 144.613281 156.742188 144.921875 C 156.535156 145.234375 156.296875 145.523438 156.03125 145.785156 C 155.765625 146.050781 155.476562 146.289062 155.164062 146.496094 C 154.851562 146.703125 154.523438 146.878906 154.175781 147.023438 C 153.832031 147.164062 153.472656 147.273438 153.105469 147.347656 C 152.738281 147.417969 152.367188 147.457031 151.988281 147.457031 C 151.613281 147.457031 151.242188 147.417969 150.875 147.347656 C 150.507812 147.273438 150.148438 147.164062 149.804688 147.023438 C 149.457031 146.878906 149.125 146.703125 148.816406 146.496094 C 148.503906 146.289062 148.214844 146.050781 147.949219 145.785156 C 147.683594 145.523438 147.445312 145.234375 147.238281 144.921875 C 147.03125 144.613281 146.851562 144.285156 146.710938 143.9375 C 146.566406 143.59375 146.457031 143.234375 146.382812 142.867188 C 146.3125 142.5 146.273438 142.132812 146.273438 141.757812 C 146.273438 141.382812 146.3125 141.011719 146.382812 140.644531 C 146.457031 140.277344 146.566406 139.921875 146.710938 139.574219 C 146.851562 139.230469 147.03125 138.902344 147.238281 138.589844 C 147.445312 138.28125 147.683594 137.992188 147.949219 137.726562 C 148.214844 137.460938 148.503906 137.226562 148.816406 137.019531 C 149.125 136.8125 149.457031 136.636719 149.804688 136.492188 C 150.148438 136.347656 150.507812 136.242188 150.875 136.167969 C 151.242188 136.09375 151.613281 136.058594 151.988281 136.058594 C 152.367188 136.058594 152.738281 136.09375 153.105469 136.167969 C 153.472656 136.242188 153.832031 136.347656 154.175781 136.492188 C 154.523438 136.636719 154.851562 136.8125 155.164062 137.019531 C 155.476562 137.226562 155.765625 137.460938 156.03125 137.726562 C 156.296875 137.992188 156.535156 138.28125 156.742188 138.589844 C 156.949219 138.902344 157.125 139.230469 157.269531 139.574219 C 157.414062 139.921875 157.523438 140.277344 157.59375 140.644531 C 157.667969 141.011719 157.707031 141.382812 157.707031 141.757812 Z M 157.707031 141.757812 " fill-opacity="1" fill-rule="nonzero"/><path fill="#03aadf" d="M 146.035156 170.441406 C 145.988281 173.625 143.464844 176.140625 140.320312 176.140625 C 137.175781 176.140625 134.605469 173.578125 134.605469 170.441406 C 134.605469 167.308594 137.175781 164.742188 140.320312 164.742188 C 143.464844 164.742188 146.035156 167.308594 146.035156 170.441406 Z M 146.035156 170.441406 " fill-opacity="1" fill-rule="nonzero"/><path fill="#03aadf" d="M 168.898438 194.519531 C 168.898438 197.65625 166.328125 200.21875 163.183594 200.21875 C 160.039062 200.21875 157.46875 197.65625 157.46875 194.519531 C 157.46875 191.386719 160.039062 188.820312 163.183594 188.820312 C 166.328125 188.820312 168.898438 191.386719 168.898438 194.519531 Z M 168.898438 194.519531 " fill-opacity="1" fill-rule="nonzero"/><g clip-path="url(#6933a14c0a)"><path fill="#193e80" d="M 206.144531 206.914062 L 271.824219 206.914062 L 271.824219 221.589844 L 206.144531 221.589844 Z M 206.144531 206.914062 " fill-opacity="1" fill-rule="nonzero"/></g><path fill="#193e80" d="M 227.148438 159.042969 L 227.863281 168.066406 L 216.621094 168.066406 Z M 227.148438 159.042969 " fill-opacity="1" fill-rule="nonzero"/><path fill="#193e80" d="M 203 161.371094 L 209.667969 168.019531 L 189.855469 168.019531 C 184.855469 160.894531 181.472656 152.773438 180.042969 144.132812 L 212.144531 144.132812 L 202.90625 154.914062 C 201.238281 156.859375 201.285156 159.660156 203 161.371094 Z M 203 161.371094 " fill-opacity="1" fill-rule="nonzero"/><path fill="#193e80" d="M 208.523438 123.28125 L 197.953125 124.089844 C 195.378906 124.28125 193.472656 126.273438 193.472656 128.746094 L 193.472656 138.386719 C 193.472656 138.71875 193.523438 139.050781 193.570312 139.335938 L 179.472656 139.335938 C 179.328125 137.71875 179.28125 136.058594 179.28125 134.394531 C 179.28125 130.597656 179.664062 126.890625 180.328125 123.332031 C 190.664062 123.28125 201.238281 123.28125 208.523438 123.28125 Z M 208.523438 123.28125 " fill-opacity="1" fill-rule="nonzero"/><path fill="#193e80" d="M 202.90625 112.21875 L 208.285156 118.484375 C 201.285156 118.484375 191.332031 118.484375 181.472656 118.484375 C 182.996094 113.121094 185.28125 108.039062 188.1875 103.382812 L 205.429688 103.382812 L 203.046875 105.757812 C 201.285156 107.46875 201.238281 110.269531 202.90625 112.21875 Z M 202.90625 112.21875 " fill-opacity="1" fill-rule="nonzero"/><g clip-path="url(#0ee2bdc9c7)"><path fill="#193e80" d="M 311.785156 150.683594 C 311.164062 151.777344 309.117188 152.871094 307.640625 152.871094 L 297.257812 152.871094 C 296.542969 152.871094 295.828125 153.203125 295.351562 153.773438 C 294.875 154.34375 294.734375 155.101562 294.875 155.816406 L 302.402344 189.914062 C 302.449219 190.054688 302.542969 190.484375 302.066406 191.054688 C 301.496094 191.765625 300.398438 192.289062 299.449219 192.289062 L 274.300781 192.289062 C 272.964844 192.289062 271.871094 193.378906 271.871094 194.710938 L 271.871094 202.117188 L 206.144531 202.117188 L 206.144531 185.023438 C 206.144531 184.214844 205.761719 183.453125 205.097656 183.027344 C 200.808594 180.128906 197 176.710938 193.664062 172.910156 L 228.195312 172.910156 L 228.242188 173.292969 C 228.433594 175.855469 230.433594 177.753906 232.910156 177.753906 L 242.578125 177.753906 C 245.054688 177.753906 247.054688 175.855469 247.246094 173.292969 L 248.34375 159.089844 L 259.203125 168.351562 C 261.15625 170.015625 263.917969 169.96875 265.679688 168.210938 L 272.539062 161.371094 C 274.253906 159.613281 274.347656 156.859375 272.679688 154.914062 L 263.394531 144.085938 L 277.632812 142.992188 C 280.207031 142.800781 282.109375 140.808594 282.109375 138.335938 L 282.109375 128.695312 C 282.109375 126.226562 280.207031 124.234375 277.632812 124.042969 L 263.394531 122.949219 L 272.679688 112.121094 C 274.347656 110.175781 274.300781 107.421875 272.539062 105.664062 L 265.679688 98.824219 C 263.964844 97.066406 261.15625 97.019531 259.203125 98.683594 L 248.34375 107.941406 L 247.246094 93.742188 C 247.054688 91.179688 245.054688 89.277344 242.578125 89.277344 L 232.910156 89.277344 C 230.433594 89.277344 228.433594 91.226562 228.242188 93.742188 L 227.148438 107.941406 L 216.289062 98.683594 C 214.480469 97.164062 212 97.066406 210.238281 98.445312 L 191.472656 98.445312 C 202.238281 84.578125 219.097656 75.601562 238.007812 75.601562 C 265.871094 75.601562 290.113281 95.359375 295.636719 122.523438 C 295.683594 122.808594 295.78125 123.046875 295.921875 123.28125 L 311.832031 150.066406 C 311.925781 150.304688 311.972656 150.402344 311.785156 150.683594 Z M 311.785156 150.683594 " fill-opacity="1" fill-rule="nonzero"/></g><path fill="#193e80" d="M 259.203125 141.042969 C 259.535156 140.140625 260.34375 139.476562 261.296875 139.429688 L 277.15625 138.195312 L 277.15625 128.886719 L 261.296875 127.652344 C 260.34375 127.605469 259.488281 126.941406 259.203125 126.039062 C 258.914062 125.230469 258.582031 124.421875 258.203125 123.664062 C 257.773438 122.808594 257.914062 121.761719 258.535156 121.050781 L 268.871094 109.035156 L 262.296875 102.480469 L 250.246094 112.789062 C 249.53125 113.40625 248.484375 113.546875 247.628906 113.121094 C 246.867188 112.738281 246.054688 112.40625 245.246094 112.121094 C 244.339844 111.789062 243.675781 110.984375 243.628906 110.03125 L 242.390625 94.21875 L 233.101562 94.21875 L 231.863281 110.03125 C 231.816406 110.984375 231.148438 111.835938 230.242188 112.121094 C 229.433594 112.40625 228.625 112.738281 227.863281 113.121094 C 227.003906 113.546875 225.957031 113.40625 225.242188 112.789062 L 213.191406 102.480469 L 213.003906 102.671875 L 206.621094 109.035156 L 215.289062 119.152344 C 215.382812 119.246094 215.429688 119.339844 215.527344 119.386719 L 216.957031 121.050781 C 217.574219 121.761719 217.71875 122.808594 217.289062 123.664062 C 216.90625 124.421875 216.574219 125.230469 216.289062 126.039062 C 215.957031 126.941406 215.144531 127.605469 214.191406 127.652344 L 198.332031 128.886719 L 198.332031 138.195312 L 212.859375 139.289062 L 214.003906 139.289062 C 215.191406 139.289062 216.191406 140.140625 216.382812 141.234375 C 216.621094 141.945312 216.957031 142.660156 217.289062 143.371094 C 217.71875 144.226562 217.574219 145.269531 216.957031 145.984375 L 206.621094 158 L 213.191406 164.554688 L 225.242188 154.34375 C 225.957031 153.726562 227.003906 153.582031 227.863281 154.011719 C 228.625 154.390625 229.433594 154.722656 230.242188 155.007812 C 231.148438 155.339844 231.816406 156.148438 231.863281 157.097656 L 232.863281 170.253906 L 233.054688 172.910156 L 242.390625 172.910156 L 243.628906 157.097656 C 243.675781 156.148438 244.339844 155.292969 245.246094 155.007812 C 246.054688 154.722656 246.867188 154.390625 247.628906 154.011719 C 248.484375 153.582031 249.53125 153.726562 250.246094 154.34375 L 262.296875 164.648438 L 268.871094 158.09375 L 258.582031 146.03125 C 257.964844 145.320312 257.820312 144.273438 258.25 143.417969 C 258.582031 142.660156 258.914062 141.851562 259.203125 141.042969 Z M 237.722656 151.871094 C 227.625 151.871094 219.382812 143.65625 219.382812 133.589844 C 219.382812 123.519531 227.625 115.304688 237.722656 115.304688 C 247.820312 115.304688 256.058594 123.519531 256.058594 133.589844 C 256.058594 143.65625 247.867188 151.871094 237.722656 151.871094 Z M 237.722656 151.871094 " fill-opacity="1" fill-rule="nonzero"/><path fill="#193e80" d="M 251.199219 133.589844 C 251.199219 140.996094 245.152344 147.027344 237.722656 147.027344 C 230.292969 147.027344 224.242188 140.996094 224.242188 133.589844 C 224.242188 126.179688 230.292969 120.148438 237.722656 120.148438 C 245.152344 120.148438 251.199219 126.132812 251.199219 133.589844 Z M 251.199219 133.589844 " fill-opacity="1" fill-rule="nonzero"/><path fill="#03aadf" d="M 201.285156 192.097656 L 201.285156 196.941406 L 173.46875 196.941406 C 173.660156 196.183594 173.757812 195.375 173.757812 194.519531 C 173.757812 193.664062 173.660156 192.859375 173.46875 192.097656 Z M 201.285156 192.097656 " fill-opacity="1" fill-rule="nonzero"/><path fill="#03aadf" d="M 187.425781 172.863281 L 150.609375 172.863281 C 150.800781 172.058594 150.894531 171.25 150.894531 170.394531 C 150.894531 169.585938 150.800781 168.78125 150.609375 168.019531 L 184.042969 168.019531 C 185.09375 169.730469 186.234375 171.34375 187.425781 172.863281 Z M 187.425781 172.863281 " fill-opacity="1" fill-rule="nonzero"/><path fill="#03aadf" d="M 159.371094 98.539062 L 185.519531 98.539062 C 184.425781 100.105469 183.425781 101.722656 182.519531 103.382812 L 158.421875 103.382812 C 157.753906 103.382812 157.179688 103.148438 156.707031 102.671875 L 145.132812 91.132812 C 146.511719 90.277344 147.703125 89.089844 148.5625 87.710938 Z M 159.371094 98.539062 " fill-opacity="1" fill-rule="nonzero"/><path fill="#03aadf" d="M 145.847656 118.484375 C 145.847656 118.484375 160.371094 118.484375 176.421875 118.4375 C 175.996094 120.054688 175.660156 121.667969 175.375 123.28125 C 162.230469 123.28125 150.324219 123.28125 146.894531 123.28125 L 121.890625 148.261719 C 121.03125 146.886719 119.839844 145.699219 118.460938 144.84375 L 144.179688 119.199219 C 144.558594 118.769531 145.179688 118.484375 145.847656 118.484375 Z M 145.847656 118.484375 " fill-opacity="1" fill-rule="nonzero"/><path fill="#03aadf" d="M 175.136719 144.179688 L 162.277344 144.179688 C 162.46875 143.417969 162.5625 142.613281 162.5625 141.757812 C 162.5625 140.902344 162.46875 140.09375 162.277344 139.335938 L 174.613281 139.335938 C 174.707031 140.949219 174.898438 142.5625 175.136719 144.179688 Z M 175.136719 144.179688 " fill-opacity="1" fill-rule="nonzero"/></svg>