<svg xmlns="http://www.w3.org/2000/svg" xmlns:xlink="http://www.w3.org/1999/xlink" width="559" zoomAndPan="magnify" viewBox="0 0 419.25 297.749993" height="397" preserveAspectRatio="xMidYMid meet" version="1.0"><defs><clipPath id="0d8828abe3"><path d="M 0 0.140625 L 418.5 0.140625 L 418.5 297.359375 L 0 297.359375 Z M 0 0.140625 " clip-rule="nonzero"/></clipPath><clipPath id="f209a324ab"><path d="M 102.136719 132 L 317.003906 132 L 317.003906 228.175781 L 102.136719 228.175781 Z M 102.136719 132 " clip-rule="nonzero"/></clipPath><clipPath id="d8924ef208"><path d="M 168 69.460938 L 251 69.460938 L 251 161 L 168 161 Z M 168 69.460938 " clip-rule="nonzero"/></clipPath></defs><g clip-path="url(#0d8828abe3)"><path fill="#ffffff" d="M 0 0.140625 L 418.5 0.140625 L 418.5 297.359375 L 0 297.359375 Z M 0 0.140625 " fill-opacity="1" fill-rule="nonzero"/><path fill="#ffffff" d="M 0 0.140625 L 418.5 0.140625 L 418.5 297.359375 L 0 297.359375 Z M 0 0.140625 " fill-opacity="1" fill-rule="nonzero"/></g><g clip-path="url(#f209a324ab)"><path fill="#c2bce0" d="M 269.160156 228.128906 C 254.054688 228.128906 239.785156 220.578125 230.550781 208.40625 L 188.585938 208.40625 C 179.355469 220.578125 165.085938 228.128906 149.976562 228.128906 C 123.539062 228.128906 102.136719 206.730469 102.136719 180.292969 C 102.136719 153.855469 123.539062 132.453125 149.976562 132.453125 L 180.613281 132.453125 C 181.453125 132.453125 181.871094 132.875 182.710938 133.292969 C 183.96875 134.972656 186.070312 137.070312 187.746094 138.328125 C 189.007812 139.167969 189.007812 140.425781 188.585938 141.265625 L 183.96875 153.855469 L 204.953125 145.882812 C 205.371094 145.460938 205.792969 145.460938 206.210938 145.460938 C 207.050781 145.882812 208.3125 145.882812 209.570312 145.882812 C 220.0625 145.882812 229.714844 141.265625 236.429688 133.292969 C 237.265625 132.875 237.6875 132.453125 238.527344 132.453125 L 269.160156 132.453125 C 295.601562 132.453125 317.003906 153.855469 317.003906 180.292969 C 317.003906 206.730469 295.601562 228.128906 269.160156 228.128906 Z M 269.160156 228.128906 " fill-opacity="1" fill-rule="evenodd"/></g><path fill="#fe3745" d="M 269.160156 165.605469 C 264.125 165.605469 259.929688 161.410156 259.929688 156.371094 C 259.929688 150.917969 264.125 146.722656 269.160156 146.722656 C 274.195312 146.722656 278.394531 150.917969 278.394531 156.371094 C 278.394531 161.410156 274.195312 165.605469 269.160156 165.605469 Z M 269.160156 165.605469 " fill-opacity="1" fill-rule="evenodd"/><path fill="#49a7fe" d="M 269.160156 213.441406 C 264.125 213.441406 259.929688 209.246094 259.929688 204.210938 C 259.929688 199.175781 264.125 194.980469 269.160156 194.980469 C 274.195312 194.980469 278.394531 199.175781 278.394531 204.210938 C 278.394531 209.246094 274.195312 213.441406 269.160156 213.441406 Z M 269.160156 213.441406 " fill-opacity="1" fill-rule="evenodd"/><path fill="#00a859" d="M 293.082031 189.523438 C 288.046875 189.523438 283.847656 185.328125 283.847656 180.292969 C 283.847656 175.257812 288.046875 171.058594 293.082031 171.058594 C 298.539062 171.058594 302.734375 175.257812 302.734375 180.292969 C 302.734375 185.328125 298.539062 189.523438 293.082031 189.523438 Z M 293.082031 189.523438 " fill-opacity="1" fill-rule="evenodd"/><path fill="#ed7161" d="M 245.242188 189.523438 C 239.785156 189.523438 236.007812 185.328125 236.007812 180.292969 C 236.007812 175.257812 239.785156 171.058594 245.242188 171.058594 C 250.277344 171.058594 254.472656 175.257812 254.472656 180.292969 C 254.472656 185.328125 250.277344 189.523438 245.242188 189.523438 Z M 245.242188 189.523438 " fill-opacity="1" fill-rule="evenodd"/><path fill="#6e61b6" d="M 154.175781 203.371094 L 145.78125 203.371094 C 143.683594 203.371094 142.003906 201.691406 142.003906 200.015625 L 142.003906 188.265625 L 130.253906 188.265625 C 128.574219 188.265625 126.898438 186.585938 126.898438 184.488281 L 126.898438 175.675781 C 126.898438 173.996094 128.574219 172.320312 130.253906 172.320312 L 142.003906 172.320312 L 142.003906 160.570312 C 142.003906 158.890625 143.683594 157.210938 145.78125 157.210938 L 154.175781 157.210938 C 156.273438 157.210938 157.953125 158.890625 157.953125 160.570312 L 157.953125 172.320312 L 169.703125 172.320312 C 171.378906 172.320312 173.058594 173.996094 173.058594 175.675781 L 173.058594 184.488281 C 173.058594 186.585938 171.378906 188.265625 169.703125 188.265625 L 157.953125 188.265625 L 157.953125 200.015625 C 157.953125 201.691406 156.273438 203.371094 154.175781 203.371094 Z M 154.175781 203.371094 " fill-opacity="1" fill-rule="evenodd"/><g clip-path="url(#d8924ef208)"><path fill="#6e61b6" d="M 179.355469 160.988281 C 178.515625 160.988281 178.09375 160.570312 177.675781 160.148438 C 176.835938 159.308594 176.835938 158.472656 176.835938 157.632812 L 183.550781 141.265625 C 174.316406 133.292969 168.863281 122.382812 168.863281 110.214844 C 168.863281 87.972656 187.328125 69.507812 209.570312 69.507812 C 231.8125 69.507812 250.277344 87.972656 250.277344 110.214844 C 250.277344 132.453125 231.8125 150.917969 209.570312 150.917969 C 208.3125 150.917969 207.472656 150.917969 206.210938 150.5 L 180.195312 160.570312 C 180.195312 160.988281 179.773438 160.988281 179.355469 160.988281 Z M 179.355469 160.988281 " fill-opacity="1" fill-rule="evenodd"/></g><path fill="#fefefe" d="M 197.398438 122.382812 C 196.980469 122.382812 196.558594 121.964844 196.140625 121.964844 L 181.453125 112.3125 C 180.613281 111.890625 180.195312 111.050781 180.195312 110.214844 C 180.195312 109.375 180.613281 108.535156 181.453125 108.117188 L 196.140625 98.464844 C 197.398438 97.625 198.660156 98.042969 199.496094 99.304688 C 200.335938 100.5625 199.917969 101.820312 198.660156 102.660156 L 187.328125 110.214844 L 198.660156 117.765625 C 199.917969 118.1875 200.335938 119.863281 199.496094 121.125 C 199.078125 121.964844 198.238281 122.382812 197.398438 122.382812 Z M 197.398438 122.382812 " fill-opacity="1" fill-rule="evenodd"/><path fill="#fefefe" d="M 221.738281 122.382812 C 220.902344 122.382812 220.0625 121.964844 219.640625 121.125 C 218.800781 119.863281 219.222656 118.1875 220.480469 117.765625 L 231.8125 110.214844 L 220.480469 102.660156 C 219.222656 101.820312 218.800781 100.5625 219.640625 99.304688 C 220.480469 98.042969 221.738281 97.625 223 98.464844 L 237.6875 108.117188 C 238.527344 108.535156 238.945312 109.375 238.945312 110.214844 C 238.945312 111.050781 238.527344 111.890625 237.6875 112.3125 L 223 121.964844 C 222.578125 121.964844 222.160156 122.382812 221.738281 122.382812 Z M 221.738281 122.382812 " fill-opacity="1" fill-rule="evenodd"/><path fill="#fefefe" d="M 205.371094 127.417969 C 205.371094 127.417969 204.953125 127.417969 204.953125 127.417969 C 203.273438 127 202.855469 125.738281 203.273438 124.0625 L 211.25 94.6875 C 211.667969 93.429688 212.925781 92.589844 214.1875 93.007812 C 215.445312 93.429688 216.285156 94.6875 215.863281 95.945312 L 207.890625 125.738281 C 207.472656 126.578125 206.632812 127.417969 205.371094 127.417969 Z M 205.371094 127.417969 " fill-opacity="1" fill-rule="evenodd"/></svg>