<svg xmlns="http://www.w3.org/2000/svg" xmlns:xlink="http://www.w3.org/1999/xlink" width="559" zoomAndPan="magnify" viewBox="0 0 419.25 297.749993" height="397" preserveAspectRatio="xMidYMid meet" version="1.0"><defs><clipPath id="80b0e1f855"><path d="M 0 0.140625 L 418.5 0.140625 L 418.5 297.359375 L 0 297.359375 Z M 0 0.140625 " clip-rule="nonzero"/></clipPath></defs><g clip-path="url(#80b0e1f855)"><path fill="#ffffff" d="M 0 0.140625 L 418.5 0.140625 L 418.5 297.359375 L 0 297.359375 Z M 0 0.140625 " fill-opacity="1" fill-rule="nonzero"/><path fill="#ffffff" d="M 0 0.140625 L 418.5 0.140625 L 418.5 297.359375 L 0 297.359375 Z M 0 0.140625 " fill-opacity="1" fill-rule="nonzero"/></g><path fill="#ecf7fd" d="M 270.308594 179.320312 C 286.65625 179.320312 299.917969 192.558594 299.917969 208.882812 C 299.917969 225.207031 286.65625 238.445312 270.308594 238.445312 C 253.960938 238.445312 240.703125 225.207031 240.703125 208.882812 C 240.703125 192.554688 253.960938 179.320312 270.308594 179.320312 Z M 270.308594 179.320312 " fill-opacity="1" fill-rule="evenodd"/><path fill="#ecf7fd" d="M 270.308594 58.691406 C 286.65625 58.691406 299.917969 71.929688 299.917969 88.25 C 299.917969 104.585938 286.65625 117.8125 270.308594 117.8125 C 253.960938 117.8125 240.703125 104.585938 240.703125 88.25 C 240.703125 71.929688 253.960938 58.691406 270.308594 58.691406 Z M 270.308594 58.691406 " fill-opacity="1" fill-rule="evenodd"/><path fill="#ecf7fd" d="M 148.550781 58.691406 C 164.898438 58.691406 178.15625 71.929688 178.15625 88.25 C 178.15625 104.585938 164.898438 117.8125 148.550781 117.8125 C 132.203125 117.8125 118.941406 104.585938 118.941406 88.25 C 118.941406 71.929688 132.203125 58.691406 148.550781 58.691406 Z M 148.550781 58.691406 " fill-opacity="1" fill-rule="evenodd"/><path fill="#ecf7fd" d="M 148.550781 179.320312 C 164.898438 179.320312 178.15625 192.558594 178.15625 208.882812 C 178.15625 225.207031 164.898438 238.445312 148.550781 238.445312 C 132.203125 238.445312 118.941406 225.207031 118.941406 208.882812 C 118.941406 192.554688 132.203125 179.320312 148.550781 179.320312 Z M 148.550781 179.320312 " fill-opacity="1" fill-rule="evenodd"/><path fill="#97d9ef" d="M 136.214844 205.113281 L 160.882812 205.113281 L 160.882812 225.417969 L 136.214844 225.417969 Z M 136.214844 205.113281 " fill-opacity="1" fill-rule="evenodd"/><path fill="#97d9ef" d="M 148.550781 190.136719 L 156.996094 198.964844 L 165.433594 207.785156 L 131.65625 207.785156 L 140.101562 198.964844 Z M 148.550781 190.136719 " fill-opacity="1" fill-rule="evenodd"/><path fill="#97d9ef" d="M 264.90625 218.03125 L 275.710938 218.03125 C 276.613281 218.03125 277.339844 218.863281 277.339844 219.875 L 277.339844 220.679688 C 277.339844 231.78125 263.273438 231.824219 263.273438 220.679688 L 263.273438 219.875 C 263.277344 218.863281 264.003906 218.03125 264.90625 218.03125 Z M 264.90625 218.03125 " fill-opacity="1" fill-rule="evenodd"/><path fill="#c6e9f5" d="M 270.308594 189.1875 C 278.175781 189.1875 284.558594 195.558594 284.558594 203.414062 C 284.558594 208.71875 279.828125 213.410156 277.34375 219.917969 L 263.277344 219.917969 C 260.792969 213.410156 256.0625 208.71875 256.0625 203.414062 C 256.058594 195.5625 262.445312 189.1875 270.308594 189.1875 Z M 270.308594 189.1875 " fill-opacity="1" fill-rule="evenodd"/><path fill="#c6e9f5" d="M 209.421875 112.574219 C 229.476562 112.574219 245.730469 128.804688 245.730469 148.8125 C 245.730469 168.832031 229.476562 185.0625 209.421875 185.0625 C 189.382812 185.0625 173.128906 168.832031 173.128906 148.8125 C 173.125 128.804688 189.378906 112.574219 209.421875 112.574219 Z M 209.421875 112.574219 " fill-opacity="1" fill-rule="evenodd"/><path fill="#ecf7fd" d="M 227.902344 117.617188 C 238.570312 123.933594 245.730469 135.546875 245.730469 148.816406 C 245.730469 168.835938 229.476562 185.066406 209.421875 185.066406 C 208.191406 185.066406 206.984375 185 205.777344 184.886719 C 195.105469 178.570312 187.957031 166.957031 187.957031 153.6875 C 187.957031 133.664062 204.210938 117.4375 224.253906 117.4375 C 225.484375 117.4375 226.703125 117.503906 227.902344 117.617188 Z M 227.902344 117.617188 " fill-opacity="1" fill-rule="evenodd"/><path fill="#97d9ef" d="M 137.867188 83.824219 L 159.21875 83.824219 C 160.347656 83.824219 161.269531 84.746094 161.269531 85.871094 L 161.269531 101.828125 C 161.269531 102.957031 160.34375 103.875 159.21875 103.875 L 137.867188 103.875 C 136.738281 103.875 135.828125 102.953125 135.828125 101.828125 L 135.828125 85.871094 C 135.824219 84.746094 136.738281 83.824219 137.867188 83.824219 Z M 137.867188 83.824219 " fill-opacity="1" fill-rule="evenodd"/><path fill="#97d9ef" d="M 267.035156 97.890625 C 268.839844 96.09375 271.777344 96.09375 273.578125 97.890625 C 275.394531 99.703125 275.394531 102.625 273.578125 104.4375 C 271.777344 106.25 268.839844 106.25 267.035156 104.4375 C 265.222656 102.625 265.222656 99.699219 267.035156 97.890625 Z M 267.035156 97.890625 " fill-opacity="1" fill-rule="evenodd"/><path fill="#118cb5" d="M 265.054688 95.910156 C 269.726562 91.230469 277.765625 94.554688 277.765625 101.167969 C 277.765625 107.769531 269.730469 111.09375 265.054688 106.429688 C 262.144531 103.527344 262.144531 98.8125 265.054688 95.910156 Z M 270.316406 99.347656 C 267.925781 99.347656 267.925781 102.976562 270.316406 102.976562 C 272.710938 102.976562 272.714844 99.347656 270.316406 99.347656 Z M 253.925781 82.886719 C 252.820312 83.992188 251.042969 83.992188 249.949219 82.886719 C 248.84375 81.792969 248.84375 80.007812 249.949219 78.914062 C 261.203125 67.679688 279.4375 67.679688 290.691406 78.914062 C 291.785156 80.007812 291.785156 81.792969 290.691406 82.886719 C 289.585938 83.992188 287.808594 83.992188 286.714844 82.886719 C 277.660156 73.851562 262.980469 73.851562 253.925781 82.886719 Z M 264.320312 93.28125 C 263.226562 94.375 261.449219 94.375 260.34375 93.28125 C 259.25 92.191406 259.25 90.402344 260.34375 89.3125 C 265.851562 83.8125 274.777344 83.8125 280.285156 89.3125 C 281.390625 90.402344 281.390625 92.191406 280.285156 93.28125 C 279.191406 94.375 277.398438 94.375 276.304688 93.28125 C 273 89.976562 267.640625 89.976562 264.320312 93.28125 Z M 259.125 88.089844 C 258.03125 89.183594 256.242188 89.183594 255.148438 88.089844 C 254.054688 86.988281 254.054688 85.210938 255.148438 84.105469 C 263.527344 75.742188 277.113281 75.742188 285.496094 84.105469 C 286.589844 85.210938 286.589844 86.988281 285.496094 88.089844 C 284.390625 89.183594 282.613281 89.183594 281.507812 88.089844 C 275.324219 81.921875 265.304688 81.921875 259.125 88.089844 Z M 145.742188 92.632812 C 145.742188 91.074219 146.996094 89.820312 148.558594 89.820312 C 150.105469 89.820312 151.359375 91.074219 151.359375 92.632812 L 151.359375 95.078125 C 151.359375 96.628906 150.105469 97.886719 148.558594 97.886719 C 146.996094 97.886719 145.742188 96.625 145.742188 95.078125 Z M 137.535156 81.023438 L 137.535156 75.535156 C 137.535156 66.644531 146.207031 62.742188 152.945312 65.453125 C 156.660156 66.941406 159.566406 70.308594 159.566406 75.535156 L 159.566406 81.019531 C 162.097656 81.199219 164.09375 83.308594 164.09375 85.871094 L 164.09375 101.828125 C 164.09375 104.488281 161.894531 106.6875 159.226562 106.6875 L 137.878906 106.6875 C 135.214844 106.6875 133.015625 104.488281 133.015625 101.828125 L 133.015625 85.871094 C 133.011719 83.308594 135.003906 81.203125 137.535156 81.023438 Z M 153.941406 81.011719 L 153.941406 75.535156 C 153.941406 70.84375 149.425781 69.375 146.25 70.652344 C 144.527344 71.347656 143.171875 72.972656 143.171875 75.535156 L 143.171875 81.011719 Z M 158.464844 86.632812 L 138.640625 86.632812 L 138.640625 101.066406 L 158.460938 101.066406 L 158.460938 86.632812 Z M 228.824219 136.84375 C 231.402344 136.816406 234 136.84375 236.585938 136.84375 C 238.132812 136.84375 239.398438 138.105469 239.398438 139.652344 C 239.398438 141.210938 238.132812 142.464844 236.585938 142.464844 L 231.652344 142.464844 L 231.652344 157.988281 C 231.652344 159.539062 230.394531 160.796875 228.847656 160.796875 C 227.289062 160.796875 226.03125 159.535156 226.03125 157.988281 L 226.03125 142.464844 L 221.09375 142.464844 C 219.546875 142.464844 218.292969 141.210938 218.292969 139.652344 C 218.292969 138.105469 219.546875 136.84375 221.09375 136.84375 Z M 185.960938 139.652344 C 185.960938 138.105469 187.230469 136.84375 188.777344 136.84375 C 190.324219 136.84375 191.59375 138.105469 191.59375 139.652344 L 191.59375 157.992188 C 191.59375 159.542969 190.324219 160.800781 188.777344 160.800781 C 187.230469 160.800781 185.960938 159.539062 185.960938 157.992188 Z M 206.925781 136.84375 C 216.820312 136.84375 221.90625 149.625 214.941406 157.203125 C 210.542969 161.996094 203.316406 161.996094 198.902344 157.203125 C 191.945312 149.625 197.03125 136.84375 206.925781 136.84375 Z M 210.816406 144.238281 C 207.269531 140.378906 201.320312 143.214844 201.320312 148.816406 C 201.320312 154.425781 207.273438 157.261719 210.816406 153.402344 C 213.101562 150.910156 213.101562 146.730469 210.816406 144.238281 Z M 209.4375 109.761719 C 219.238281 109.761719 228.1875 113.359375 235.0625 119.3125 L 245.402344 108.949219 C 234.675781 96.101562 235.539062 77.191406 247.394531 65.355469 C 260.046875 52.722656 280.582031 52.722656 293.246094 65.355469 C 305.898438 78 305.898438 98.5 293.246094 111.136719 C 281.308594 123.042969 262.226562 123.835938 249.359375 112.945312 L 239.019531 123.257812 C 251.738281 137.929688 251.730469 159.738281 238.992188 174.398438 L 249.058594 184.425781 C 261.910156 173.28125 281.207031 173.964844 293.246094 185.984375 C 305.898438 198.628906 305.898438 219.117188 293.246094 231.761719 C 280.582031 244.394531 260.050781 244.394531 247.394531 231.761719 C 235.652344 220.039062 234.675781 201.339844 245.152344 188.464844 L 235.039062 178.347656 C 220.347656 191.046875 198.527344 191.046875 183.835938 178.347656 L 173.722656 188.464844 C 184.199219 201.339844 183.21875 220.039062 171.480469 231.761719 C 158.828125 244.394531 138.292969 244.394531 125.640625 231.761719 C 112.976562 219.117188 112.976562 198.628906 125.640625 185.984375 C 137.671875 173.964844 156.96875 173.28125 169.816406 184.425781 L 179.882812 174.398438 C 167.148438 159.738281 167.136719 137.929688 179.867188 123.257812 L 169.515625 112.945312 C 156.648438 123.839844 137.5625 123.042969 125.636719 111.136719 C 112.972656 98.503906 112.972656 78 125.636719 65.355469 C 138.289062 52.722656 158.824219 52.722656 171.476562 65.355469 C 183.332031 77.191406 184.195312 96.097656 173.472656 108.949219 L 183.824219 119.3125 C 190.683594 113.359375 199.644531 109.761719 209.4375 109.761719 Z M 233.109375 125.171875 C 220.035156 112.117188 198.832031 112.117188 185.757812 125.171875 C 172.683594 138.226562 172.683594 159.402344 185.757812 172.46875 C 198.832031 185.519531 220.035156 185.519531 233.109375 172.46875 C 246.1875 159.402344 246.1875 138.230469 233.109375 125.171875 Z M 270.316406 186.375 C 279.734375 186.375 287.375 194.015625 287.375 203.414062 C 287.375 207.367188 285.460938 210.667969 283.339844 214.320312 C 282.222656 216.242188 281.046875 218.269531 280.171875 220.433594 L 280.171875 220.679688 C 280.171875 229.683594 272.359375 233.851562 266.214844 230.890625 C 262.992188 229.347656 260.460938 225.929688 260.460938 220.679688 L 260.460938 220.433594 C 259.585938 218.265625 258.410156 216.242188 257.292969 214.320312 C 255.171875 210.667969 253.257812 207.367188 253.257812 203.414062 C 253.253906 194.015625 260.890625 186.375 270.316406 186.375 Z M 274.300781 222.734375 L 266.332031 222.734375 C 267.515625 227.421875 273.113281 227.386719 274.300781 222.734375 Z M 278.402344 195.347656 C 271.21875 188.175781 258.886719 193.273438 258.886719 203.417969 C 258.886719 205.886719 260.4375 208.5625 262.160156 211.507812 C 263.160156 213.253906 264.234375 215.082031 265.144531 217.109375 L 275.484375 217.109375 C 276.410156 215.082031 277.46875 213.253906 278.484375 211.507812 C 280.195312 208.5625 281.757812 205.886719 281.757812 203.417969 C 281.753906 200.261719 280.464844 197.40625 278.402344 195.347656 Z M 150.589844 188.207031 L 167.484375 205.863281 C 169.179688 207.636719 167.894531 210.597656 165.445312 210.597656 L 163.699219 210.597656 L 163.699219 225.417969 C 163.699219 226.96875 162.445312 228.230469 160.882812 228.230469 L 136.226562 228.230469 C 134.667969 228.230469 133.410156 226.964844 133.410156 225.417969 L 133.410156 210.597656 L 131.667969 210.597656 C 129.25 210.597656 127.789062 207.636719 129.773438 205.703125 L 146.519531 188.195312 C 147.625 187.035156 149.480469 187.035156 150.589844 188.207031 Z M 158.082031 210.597656 L 139.042969 210.597656 L 139.042969 222.609375 L 158.082031 222.609375 Z M 154.96875 200.902344 L 148.5625 194.195312 L 138.234375 204.972656 L 158.878906 204.972656 Z M 129.613281 189.960938 C 119.148438 200.410156 119.148438 217.347656 129.613281 227.796875 C 140.0625 238.230469 157.039062 238.230469 167.496094 227.796875 C 172.339844 222.945312 175.335938 216.265625 175.335938 208.878906 C 175.335938 186.003906 146.894531 172.707031 129.613281 189.960938 Z M 167.496094 69.34375 C 157.042969 58.894531 140.078125 58.894531 129.613281 69.34375 C 119.148438 79.777344 119.148438 96.714844 129.613281 107.167969 C 134.457031 112.007812 141.15625 115 148.558594 115 C 162.773438 115 175.335938 102.441406 175.335938 88.25 C 175.335938 80.863281 172.339844 74.179688 167.496094 69.34375 Z M 289.253906 69.34375 C 278.804688 58.894531 261.839844 58.894531 251.371094 69.34375 C 246.527344 74.179688 243.53125 80.863281 243.53125 88.246094 C 243.53125 102.441406 256.09375 114.996094 270.316406 114.996094 C 285.113281 114.996094 297.105469 103.019531 297.105469 88.246094 C 297.109375 80.863281 294.109375 74.179688 289.253906 69.34375 Z M 289.253906 189.960938 C 284.410156 185.125 277.71875 182.132812 270.320312 182.132812 C 255.71875 182.132812 243.535156 194.324219 243.535156 208.878906 C 243.535156 223.652344 255.527344 235.625 270.320312 235.625 C 285.117188 235.625 297.109375 223.652344 297.109375 208.878906 C 297.109375 201.492188 294.109375 194.800781 289.253906 189.960938 Z M 289.253906 189.960938 " fill-opacity="1" fill-rule="nonzero"/></svg>