<svg xmlns="http://www.w3.org/2000/svg" xmlns:xlink="http://www.w3.org/1999/xlink" width="559" zoomAndPan="magnify" viewBox="0 0 419.25 297.749993" height="397" preserveAspectRatio="xMidYMid meet" version="1.0"><defs><clipPath id="f4ee7ab597"><path d="M 0 0.140625 L 418.5 0.140625 L 418.5 297.359375 L 0 297.359375 Z M 0 0.140625 " clip-rule="nonzero"/></clipPath><clipPath id="08841c4e3a"><path d="M 131 45.761719 L 291 45.761719 L 291 63 L 131 63 Z M 131 45.761719 " clip-rule="nonzero"/></clipPath><clipPath id="fc29df422f"><path d="M 131 62 L 291 62 L 291 223 L 131 223 Z M 131 62 " clip-rule="nonzero"/></clipPath><clipPath id="7a7f5c6a03"><path d="M 131.054688 62.964844 L 290.828125 62.964844 L 290.828125 207.761719 C 290.828125 209.722656 290.441406 211.667969 289.6875 213.480469 C 288.9375 215.292969 287.839844 216.941406 286.449219 218.328125 C 285.0625 219.714844 283.414062 220.816406 281.601562 221.570312 C 279.785156 222.320312 277.84375 222.707031 275.878906 222.707031 L 146.003906 222.707031 C 144.039062 222.707031 142.097656 222.320312 140.28125 221.570312 C 138.46875 220.816406 136.820312 219.714844 135.433594 218.328125 C 134.046875 216.941406 132.945312 215.292969 132.195312 213.480469 C 131.441406 211.667969 131.054688 209.722656 131.054688 207.761719 Z M 131.054688 62.964844 " clip-rule="nonzero"/></clipPath><linearGradient x1="2460.587599" gradientTransform="matrix(0.0524904, 0, 0, 0.0524807, 92.288083, 45.762645)" y1="50.043219" x2="3016.201625" gradientUnits="userSpaceOnUse" y2="3495.165746" id="dabdbdc720"><stop stop-opacity="1" stop-color="rgb(85.400391%, 90.440369%, 100%)" offset="0"/><stop stop-opacity="1" stop-color="rgb(85.289001%, 90.367126%, 100%)" offset="0.015625"/><stop stop-opacity="1" stop-color="rgb(85.066223%, 90.220642%, 100%)" offset="0.03125"/><stop stop-opacity="1" stop-color="rgb(84.841919%, 90.075684%, 100%)" offset="0.046875"/><stop stop-opacity="1" stop-color="rgb(84.619141%, 89.929199%, 100%)" offset="0.0625"/><stop stop-opacity="1" stop-color="rgb(84.394836%, 89.782715%, 100%)" offset="0.078125"/><stop stop-opacity="1" stop-color="rgb(84.172058%, 89.63623%, 100%)" offset="0.09375"/><stop stop-opacity="1" stop-color="rgb(83.947754%, 89.489746%, 100%)" offset="0.109375"/><stop stop-opacity="1" stop-color="rgb(83.724976%, 89.343262%, 100%)" offset="0.125"/><stop stop-opacity="1" stop-color="rgb(83.500671%, 89.196777%, 100%)" offset="0.138877"/><stop stop-opacity="1" stop-color="rgb(83.389282%, 89.123535%, 100%)" offset="0.140625"/><stop stop-opacity="1" stop-color="rgb(83.277893%, 89.050293%, 100%)" offset="0.15625"/><stop stop-opacity="1" stop-color="rgb(83.055115%, 88.903809%, 100%)" offset="0.171875"/><stop stop-opacity="1" stop-color="rgb(82.830811%, 88.75885%, 100%)" offset="0.1875"/><stop stop-opacity="1" stop-color="rgb(82.608032%, 88.612366%, 100%)" offset="0.203125"/><stop stop-opacity="1" stop-color="rgb(82.383728%, 88.465881%, 100%)" offset="0.21875"/><stop stop-opacity="1" stop-color="rgb(82.16095%, 88.319397%, 100%)" offset="0.234375"/><stop stop-opacity="1" stop-color="rgb(81.936646%, 88.172913%, 100%)" offset="0.25"/><stop stop-opacity="1" stop-color="rgb(81.713867%, 88.026428%, 100%)" offset="0.265625"/><stop stop-opacity="1" stop-color="rgb(81.489563%, 87.879944%, 100%)" offset="0.28125"/><stop stop-opacity="1" stop-color="rgb(81.266785%, 87.733459%, 100%)" offset="0.296875"/><stop stop-opacity="1" stop-color="rgb(81.04248%, 87.586975%, 100%)" offset="0.3125"/><stop stop-opacity="1" stop-color="rgb(80.819702%, 87.442017%, 100%)" offset="0.328125"/><stop stop-opacity="1" stop-color="rgb(80.596924%, 87.295532%, 100%)" offset="0.34375"/><stop stop-opacity="1" stop-color="rgb(80.37262%, 87.149048%, 100%)" offset="0.359375"/><stop stop-opacity="1" stop-color="rgb(80.149841%, 87.002563%, 100%)" offset="0.375"/><stop stop-opacity="1" stop-color="rgb(79.925537%, 86.856079%, 100%)" offset="0.390625"/><stop stop-opacity="1" stop-color="rgb(79.702759%, 86.709595%, 100%)" offset="0.40625"/><stop stop-opacity="1" stop-color="rgb(79.478455%, 86.56311%, 100%)" offset="0.421875"/><stop stop-opacity="1" stop-color="rgb(79.255676%, 86.416626%, 100%)" offset="0.4375"/><stop stop-opacity="1" stop-color="rgb(79.031372%, 86.270142%, 100%)" offset="0.453125"/><stop stop-opacity="1" stop-color="rgb(78.808594%, 86.125183%, 100%)" offset="0.46875"/><stop stop-opacity="1" stop-color="rgb(78.58429%, 85.978699%, 100%)" offset="0.484375"/><stop stop-opacity="1" stop-color="rgb(78.361511%, 85.832214%, 100%)" offset="0.5"/><stop stop-opacity="1" stop-color="rgb(78.138733%, 85.68573%, 100%)" offset="0.515625"/><stop stop-opacity="1" stop-color="rgb(77.914429%, 85.539246%, 100%)" offset="0.53125"/><stop stop-opacity="1" stop-color="rgb(77.69165%, 85.392761%, 100%)" offset="0.546875"/><stop stop-opacity="1" stop-color="rgb(77.467346%, 85.246277%, 100%)" offset="0.5625"/><stop stop-opacity="1" stop-color="rgb(77.244568%, 85.099792%, 100%)" offset="0.578125"/><stop stop-opacity="1" stop-color="rgb(77.020264%, 84.953308%, 100%)" offset="0.59375"/><stop stop-opacity="1" stop-color="rgb(76.797485%, 84.80835%, 100%)" offset="0.609375"/><stop stop-opacity="1" stop-color="rgb(76.573181%, 84.661865%, 100%)" offset="0.625"/><stop stop-opacity="1" stop-color="rgb(76.350403%, 84.515381%, 100%)" offset="0.640625"/><stop stop-opacity="1" stop-color="rgb(76.127625%, 84.368896%, 100%)" offset="0.65625"/><stop stop-opacity="1" stop-color="rgb(75.90332%, 84.222412%, 100%)" offset="0.671875"/><stop stop-opacity="1" stop-color="rgb(75.680542%, 84.075928%, 100%)" offset="0.6875"/><stop stop-opacity="1" stop-color="rgb(75.456238%, 83.929443%, 100%)" offset="0.703125"/><stop stop-opacity="1" stop-color="rgb(75.233459%, 83.782959%, 100%)" offset="0.71875"/><stop stop-opacity="1" stop-color="rgb(75.009155%, 83.636475%, 100%)" offset="0.734375"/><stop stop-opacity="1" stop-color="rgb(74.786377%, 83.491516%, 100%)" offset="0.75"/><stop stop-opacity="1" stop-color="rgb(74.562073%, 83.345032%, 100%)" offset="0.765625"/><stop stop-opacity="1" stop-color="rgb(74.339294%, 83.198547%, 100%)" offset="0.78125"/><stop stop-opacity="1" stop-color="rgb(74.11499%, 83.052063%, 100%)" offset="0.796875"/><stop stop-opacity="1" stop-color="rgb(73.892212%, 82.905579%, 100%)" offset="0.8125"/><stop stop-opacity="1" stop-color="rgb(73.669434%, 82.759094%, 100%)" offset="0.828125"/><stop stop-opacity="1" stop-color="rgb(73.445129%, 82.61261%, 100%)" offset="0.84375"/><stop stop-opacity="1" stop-color="rgb(73.222351%, 82.466125%, 100%)" offset="0.859375"/><stop stop-opacity="1" stop-color="rgb(72.998047%, 82.319641%, 100%)" offset="0.861123"/><stop stop-opacity="1" stop-color="rgb(72.886658%, 82.247925%, 100%)" offset="0.875"/><stop stop-opacity="1" stop-color="rgb(72.775269%, 82.174683%, 100%)" offset="0.890625"/><stop stop-opacity="1" stop-color="rgb(72.550964%, 82.028198%, 100%)" offset="0.90625"/><stop stop-opacity="1" stop-color="rgb(72.328186%, 81.881714%, 100%)" offset="0.921875"/><stop stop-opacity="1" stop-color="rgb(72.103882%, 81.735229%, 100%)" offset="0.9375"/><stop stop-opacity="1" stop-color="rgb(71.881104%, 81.588745%, 100%)" offset="0.953125"/><stop stop-opacity="1" stop-color="rgb(71.658325%, 81.442261%, 100%)" offset="0.96875"/><stop stop-opacity="1" stop-color="rgb(71.434021%, 81.295776%, 100%)" offset="0.984375"/><stop stop-opacity="1" stop-color="rgb(71.211243%, 81.149292%, 100%)" offset="1"/></linearGradient><clipPath id="40e01fda47"><path d="M 206 157 L 264 157 L 264 195 L 206 195 Z M 206 157 " clip-rule="nonzero"/></clipPath><clipPath id="a7da5b93fd"><path d="M 256.550781 194.96875 L 214.140625 194.96875 C 213.324219 194.96875 212.53125 194.667969 211.914062 194.128906 C 211.300781 193.585938 210.90625 192.835938 210.800781 192.023438 L 206.886719 160.789062 C 206.828125 160.3125 206.871094 159.832031 207.011719 159.378906 C 207.152344 158.921875 207.386719 158.5 207.703125 158.140625 C 208.019531 157.785156 208.410156 157.496094 208.84375 157.300781 C 209.277344 157.105469 209.75 157.003906 210.226562 157.003906 L 260.464844 157.003906 C 260.941406 157.003906 261.414062 157.105469 261.847656 157.300781 C 262.285156 157.496094 262.671875 157.785156 262.988281 158.140625 C 263.304688 158.5 263.542969 158.921875 263.683594 159.378906 C 263.824219 159.832031 263.863281 160.3125 263.804688 160.789062 L 259.890625 192.023438 C 259.789062 192.835938 259.394531 193.585938 258.777344 194.128906 C 258.164062 194.667969 257.371094 194.96875 256.550781 194.96875 Z M 256.550781 194.96875 " clip-rule="nonzero"/></clipPath><linearGradient x1="2695.840298" gradientTransform="matrix(0.0524904, 0, 0, 0.0524807, 92.288083, 45.762645)" y1="2082.523275" x2="2753.496984" gradientUnits="userSpaceOnUse" y2="2880.305716" id="6914baf339"><stop stop-opacity="1" stop-color="rgb(100%, 100%, 100%)" offset="0"/><stop stop-opacity="1" stop-color="rgb(100%, 100%, 100%)" offset="0.03125"/><stop stop-opacity="1" stop-color="rgb(99.972534%, 99.981689%, 100%)" offset="0.046875"/><stop stop-opacity="1" stop-color="rgb(99.775696%, 99.85199%, 100%)" offset="0.0625"/><stop stop-opacity="1" stop-color="rgb(99.436951%, 99.630737%, 100%)" offset="0.078125"/><stop stop-opacity="1" stop-color="rgb(99.09668%, 99.407959%, 100%)" offset="0.09375"/><stop stop-opacity="1" stop-color="rgb(98.757935%, 99.186707%, 100%)" offset="0.0979228"/><stop stop-opacity="1" stop-color="rgb(98.588562%, 99.075317%, 100%)" offset="0.109375"/><stop stop-opacity="1" stop-color="rgb(98.419189%, 98.963928%, 100%)" offset="0.125"/><stop stop-opacity="1" stop-color="rgb(98.080444%, 98.742676%, 100%)" offset="0.140625"/><stop stop-opacity="1" stop-color="rgb(97.740173%, 98.519897%, 100%)" offset="0.15625"/><stop stop-opacity="1" stop-color="rgb(97.401428%, 98.298645%, 100%)" offset="0.171875"/><stop stop-opacity="1" stop-color="rgb(97.062683%, 98.075867%, 100%)" offset="0.1875"/><stop stop-opacity="1" stop-color="rgb(96.723938%, 97.854614%, 100%)" offset="0.203125"/><stop stop-opacity="1" stop-color="rgb(96.383667%, 97.631836%, 100%)" offset="0.21875"/><stop stop-opacity="1" stop-color="rgb(96.044922%, 97.410583%, 100%)" offset="0.234375"/><stop stop-opacity="1" stop-color="rgb(95.706177%, 97.187805%, 100%)" offset="0.25"/><stop stop-opacity="1" stop-color="rgb(95.367432%, 96.966553%, 100%)" offset="0.265625"/><stop stop-opacity="1" stop-color="rgb(95.027161%, 96.743774%, 100%)" offset="0.28125"/><stop stop-opacity="1" stop-color="rgb(94.688416%, 96.522522%, 100%)" offset="0.296875"/><stop stop-opacity="1" stop-color="rgb(94.34967%, 96.299744%, 100%)" offset="0.3125"/><stop stop-opacity="1" stop-color="rgb(94.010925%, 96.076965%, 100%)" offset="0.328125"/><stop stop-opacity="1" stop-color="rgb(93.670654%, 95.855713%, 100%)" offset="0.34375"/><stop stop-opacity="1" stop-color="rgb(93.331909%, 95.632935%, 100%)" offset="0.359375"/><stop stop-opacity="1" stop-color="rgb(92.993164%, 95.411682%, 100%)" offset="0.375"/><stop stop-opacity="1" stop-color="rgb(92.654419%, 95.188904%, 100%)" offset="0.390625"/><stop stop-opacity="1" stop-color="rgb(92.314148%, 94.967651%, 100%)" offset="0.40625"/><stop stop-opacity="1" stop-color="rgb(91.975403%, 94.744873%, 100%)" offset="0.421875"/><stop stop-opacity="1" stop-color="rgb(91.636658%, 94.523621%, 100%)" offset="0.4375"/><stop stop-opacity="1" stop-color="rgb(91.297913%, 94.300842%, 100%)" offset="0.453125"/><stop stop-opacity="1" stop-color="rgb(90.957642%, 94.07959%, 100%)" offset="0.46875"/><stop stop-opacity="1" stop-color="rgb(90.618896%, 93.856812%, 100%)" offset="0.484375"/><stop stop-opacity="1" stop-color="rgb(90.280151%, 93.635559%, 100%)" offset="0.5"/><stop stop-opacity="1" stop-color="rgb(89.941406%, 93.412781%, 100%)" offset="0.515625"/><stop stop-opacity="1" stop-color="rgb(89.601135%, 93.191528%, 100%)" offset="0.53125"/><stop stop-opacity="1" stop-color="rgb(89.26239%, 92.96875%, 100%)" offset="0.546875"/><stop stop-opacity="1" stop-color="rgb(88.923645%, 92.747498%, 100%)" offset="0.5625"/><stop stop-opacity="1" stop-color="rgb(88.5849%, 92.524719%, 100%)" offset="0.578125"/><stop stop-opacity="1" stop-color="rgb(88.244629%, 92.303467%, 100%)" offset="0.59375"/><stop stop-opacity="1" stop-color="rgb(87.905884%, 92.080688%, 100%)" offset="0.609375"/><stop stop-opacity="1" stop-color="rgb(87.567139%, 91.859436%, 100%)" offset="0.625"/><stop stop-opacity="1" stop-color="rgb(87.228394%, 91.636658%, 100%)" offset="0.640625"/><stop stop-opacity="1" stop-color="rgb(86.888123%, 91.413879%, 100%)" offset="0.65625"/><stop stop-opacity="1" stop-color="rgb(86.549377%, 91.192627%, 100%)" offset="0.671875"/><stop stop-opacity="1" stop-color="rgb(86.210632%, 90.969849%, 100%)" offset="0.6875"/><stop stop-opacity="1" stop-color="rgb(85.871887%, 90.748596%, 100%)" offset="0.703125"/><stop stop-opacity="1" stop-color="rgb(85.531616%, 90.525818%, 100%)" offset="0.71875"/><stop stop-opacity="1" stop-color="rgb(85.192871%, 90.304565%, 100%)" offset="0.734375"/><stop stop-opacity="1" stop-color="rgb(84.854126%, 90.081787%, 100%)" offset="0.75"/><stop stop-opacity="1" stop-color="rgb(84.513855%, 89.860535%, 100%)" offset="0.765625"/><stop stop-opacity="1" stop-color="rgb(84.17511%, 89.637756%, 100%)" offset="0.78125"/><stop stop-opacity="1" stop-color="rgb(83.836365%, 89.416504%, 100%)" offset="0.796875"/><stop stop-opacity="1" stop-color="rgb(83.49762%, 89.193726%, 100%)" offset="0.8125"/><stop stop-opacity="1" stop-color="rgb(83.157349%, 88.972473%, 100%)" offset="0.828125"/><stop stop-opacity="1" stop-color="rgb(82.818604%, 88.749695%, 100%)" offset="0.84375"/><stop stop-opacity="1" stop-color="rgb(82.479858%, 88.528442%, 100%)" offset="0.859375"/><stop stop-opacity="1" stop-color="rgb(82.141113%, 88.305664%, 100%)" offset="0.875"/><stop stop-opacity="1" stop-color="rgb(81.800842%, 88.084412%, 100%)" offset="0.890625"/><stop stop-opacity="1" stop-color="rgb(81.462097%, 87.861633%, 100%)" offset="0.902077"/><stop stop-opacity="1" stop-color="rgb(81.292725%, 87.75177%, 100%)" offset="0.90625"/><stop stop-opacity="1" stop-color="rgb(81.123352%, 87.640381%, 100%)" offset="0.921875"/><stop stop-opacity="1" stop-color="rgb(80.784607%, 87.417603%, 100%)" offset="0.9375"/><stop stop-opacity="1" stop-color="rgb(80.444336%, 87.19635%, 100%)" offset="0.953125"/><stop stop-opacity="1" stop-color="rgb(80.105591%, 86.973572%, 100%)" offset="0.96875"/><stop stop-opacity="1" stop-color="rgb(79.766846%, 86.750793%, 100%)" offset="0.984375"/><stop stop-opacity="1" stop-color="rgb(79.428101%, 86.529541%, 100%)" offset="1"/></linearGradient><clipPath id="16aac18109"><path d="M 92.3125 45.761719 L 141 45.761719 L 141 103 L 92.3125 103 Z M 92.3125 45.761719 " clip-rule="nonzero"/></clipPath><clipPath id="7febc220b3"><path d="M 92.3125 49 L 147 49 L 147 112 L 92.3125 112 Z M 92.3125 49 " clip-rule="nonzero"/></clipPath><clipPath id="2c492862df"><path d="M 231 148 L 321 148 L 321 251.625 L 231 251.625 Z M 231 148 " clip-rule="nonzero"/></clipPath><clipPath id="4513e10825"><path d="M 254 133 L 326.535156 133 L 326.535156 218 L 254 218 Z M 254 133 " clip-rule="nonzero"/></clipPath><clipPath id="52746a2f8b"><path d="M 246 143 L 326.535156 143 L 326.535156 231 L 246 231 Z M 246 143 " clip-rule="nonzero"/></clipPath><clipPath id="17d61a66d0"><path d="M 92.3125 211 L 128 211 L 128 232 L 92.3125 232 Z M 92.3125 211 " clip-rule="nonzero"/></clipPath><clipPath id="7386cc6769"><path d="M 204 164 L 326.535156 164 L 326.535156 251.625 L 204 251.625 Z M 204 164 " clip-rule="nonzero"/></clipPath><clipPath id="7a79065086"><path d="M 151 198 L 199 198 L 199 238 L 151 238 Z M 151 198 " clip-rule="nonzero"/></clipPath><clipPath id="ac20aede7c"><path d="M 154.988281 198.777344 C 161.390625 200.605469 176.371094 203.871094 195.996094 201.621094 C 196.3125 201.574219 196.632812 201.597656 196.9375 201.691406 C 197.246094 201.78125 197.527344 201.9375 197.765625 202.148438 C 198.003906 202.363281 198.191406 202.621094 198.320312 202.914062 C 198.445312 203.207031 198.507812 203.523438 198.5 203.839844 L 198.5 234.125 C 198.488281 234.796875 198.238281 235.4375 197.796875 235.9375 C 197.355469 236.441406 196.75 236.773438 196.089844 236.871094 C 189.101562 237.828125 168.351562 239.871094 152.886719 233.195312 C 152.492188 233.019531 152.15625 232.734375 151.925781 232.367188 C 151.695312 232.003906 151.574219 231.578125 151.585938 231.144531 L 151.585938 201.457031 C 151.585938 199.699219 153.351562 198.3125 154.988281 198.777344 Z M 154.988281 198.777344 " clip-rule="nonzero"/></clipPath><linearGradient x1="1550.37964" gradientTransform="matrix(0.0524904, 0, 0, 0.0524807, 92.288083, 45.762645)" y1="2868.585644" x2="1628.914172" gradientUnits="userSpaceOnUse" y2="3734.468191" id="0238cf7654"><stop stop-opacity="1" stop-color="rgb(100%, 100%, 100%)" offset="0"/><stop stop-opacity="1" stop-color="rgb(99.859619%, 99.908447%, 100%)" offset="0.0625"/><stop stop-opacity="1" stop-color="rgb(99.542236%, 99.699402%, 100%)" offset="0.078125"/><stop stop-opacity="1" stop-color="rgb(99.185181%, 99.465942%, 100%)" offset="0.0928925"/><stop stop-opacity="1" stop-color="rgb(99.006653%, 99.34845%, 100%)" offset="0.09375"/><stop stop-opacity="1" stop-color="rgb(98.828125%, 99.230957%, 100%)" offset="0.109375"/><stop stop-opacity="1" stop-color="rgb(98.469543%, 98.997498%, 100%)" offset="0.125"/><stop stop-opacity="1" stop-color="rgb(98.112488%, 98.764038%, 100%)" offset="0.140625"/><stop stop-opacity="1" stop-color="rgb(97.755432%, 98.530579%, 100%)" offset="0.15625"/><stop stop-opacity="1" stop-color="rgb(97.398376%, 98.295593%, 100%)" offset="0.171875"/><stop stop-opacity="1" stop-color="rgb(97.041321%, 98.062134%, 100%)" offset="0.1875"/><stop stop-opacity="1" stop-color="rgb(96.684265%, 97.828674%, 100%)" offset="0.203125"/><stop stop-opacity="1" stop-color="rgb(96.327209%, 97.595215%, 100%)" offset="0.21875"/><stop stop-opacity="1" stop-color="rgb(95.970154%, 97.360229%, 100%)" offset="0.234375"/><stop stop-opacity="1" stop-color="rgb(95.613098%, 97.12677%, 100%)" offset="0.25"/><stop stop-opacity="1" stop-color="rgb(95.256042%, 96.893311%, 100%)" offset="0.265625"/><stop stop-opacity="1" stop-color="rgb(94.898987%, 96.658325%, 100%)" offset="0.28125"/><stop stop-opacity="1" stop-color="rgb(94.541931%, 96.424866%, 100%)" offset="0.296875"/><stop stop-opacity="1" stop-color="rgb(94.184875%, 96.191406%, 100%)" offset="0.3125"/><stop stop-opacity="1" stop-color="rgb(93.82782%, 95.957947%, 100%)" offset="0.328125"/><stop stop-opacity="1" stop-color="rgb(93.470764%, 95.722961%, 100%)" offset="0.34375"/><stop stop-opacity="1" stop-color="rgb(93.112183%, 95.489502%, 100%)" offset="0.359375"/><stop stop-opacity="1" stop-color="rgb(92.755127%, 95.256042%, 100%)" offset="0.375"/><stop stop-opacity="1" stop-color="rgb(92.398071%, 95.022583%, 100%)" offset="0.390625"/><stop stop-opacity="1" stop-color="rgb(92.041016%, 94.787598%, 100%)" offset="0.40625"/><stop stop-opacity="1" stop-color="rgb(91.68396%, 94.554138%, 100%)" offset="0.421875"/><stop stop-opacity="1" stop-color="rgb(91.326904%, 94.320679%, 100%)" offset="0.4375"/><stop stop-opacity="1" stop-color="rgb(90.969849%, 94.087219%, 100%)" offset="0.453125"/><stop stop-opacity="1" stop-color="rgb(90.612793%, 93.852234%, 100%)" offset="0.46875"/><stop stop-opacity="1" stop-color="rgb(90.255737%, 93.618774%, 100%)" offset="0.484375"/><stop stop-opacity="1" stop-color="rgb(89.898682%, 93.385315%, 100%)" offset="0.5"/><stop stop-opacity="1" stop-color="rgb(89.541626%, 93.151855%, 100%)" offset="0.515625"/><stop stop-opacity="1" stop-color="rgb(89.18457%, 92.91687%, 100%)" offset="0.53125"/><stop stop-opacity="1" stop-color="rgb(88.827515%, 92.683411%, 100%)" offset="0.546875"/><stop stop-opacity="1" stop-color="rgb(88.470459%, 92.449951%, 100%)" offset="0.5625"/><stop stop-opacity="1" stop-color="rgb(88.111877%, 92.216492%, 100%)" offset="0.578125"/><stop stop-opacity="1" stop-color="rgb(87.754822%, 91.981506%, 100%)" offset="0.59375"/><stop stop-opacity="1" stop-color="rgb(87.397766%, 91.748047%, 100%)" offset="0.609375"/><stop stop-opacity="1" stop-color="rgb(87.04071%, 91.514587%, 100%)" offset="0.625"/><stop stop-opacity="1" stop-color="rgb(86.683655%, 91.281128%, 100%)" offset="0.640625"/><stop stop-opacity="1" stop-color="rgb(86.326599%, 91.046143%, 100%)" offset="0.65625"/><stop stop-opacity="1" stop-color="rgb(85.969543%, 90.812683%, 100%)" offset="0.671875"/><stop stop-opacity="1" stop-color="rgb(85.612488%, 90.579224%, 100%)" offset="0.6875"/><stop stop-opacity="1" stop-color="rgb(85.255432%, 90.344238%, 100%)" offset="0.703125"/><stop stop-opacity="1" stop-color="rgb(84.898376%, 90.110779%, 100%)" offset="0.71875"/><stop stop-opacity="1" stop-color="rgb(84.541321%, 89.877319%, 100%)" offset="0.734375"/><stop stop-opacity="1" stop-color="rgb(84.184265%, 89.64386%, 100%)" offset="0.75"/><stop stop-opacity="1" stop-color="rgb(83.827209%, 89.408875%, 100%)" offset="0.765625"/><stop stop-opacity="1" stop-color="rgb(83.470154%, 89.175415%, 100%)" offset="0.78125"/><stop stop-opacity="1" stop-color="rgb(83.113098%, 88.941956%, 100%)" offset="0.796875"/><stop stop-opacity="1" stop-color="rgb(82.754517%, 88.708496%, 100%)" offset="0.8125"/><stop stop-opacity="1" stop-color="rgb(82.397461%, 88.473511%, 100%)" offset="0.828125"/><stop stop-opacity="1" stop-color="rgb(82.040405%, 88.240051%, 100%)" offset="0.84375"/><stop stop-opacity="1" stop-color="rgb(81.68335%, 88.006592%, 100%)" offset="0.859375"/><stop stop-opacity="1" stop-color="rgb(81.326294%, 87.773132%, 100%)" offset="0.875"/><stop stop-opacity="1" stop-color="rgb(80.969238%, 87.538147%, 100%)" offset="0.890625"/><stop stop-opacity="1" stop-color="rgb(80.612183%, 87.304688%, 100%)" offset="0.90625"/><stop stop-opacity="1" stop-color="rgb(80.255127%, 87.071228%, 100%)" offset="0.907108"/><stop stop-opacity="1" stop-color="rgb(80.076599%, 86.955261%, 100%)" offset="0.921875"/><stop stop-opacity="1" stop-color="rgb(79.898071%, 86.837769%, 100%)" offset="0.9375"/><stop stop-opacity="1" stop-color="rgb(79.541016%, 86.602783%, 100%)" offset="0.953125"/><stop stop-opacity="1" stop-color="rgb(79.18396%, 86.369324%, 100%)" offset="0.96875"/><stop stop-opacity="1" stop-color="rgb(78.826904%, 86.135864%, 100%)" offset="0.984375"/><stop stop-opacity="1" stop-color="rgb(78.469849%, 85.902405%, 100%)" offset="1"/></linearGradient><clipPath id="5a4408323b"><path d="M 262 50 L 326.535156 50 L 326.535156 127 L 262 127 Z M 262 50 " clip-rule="nonzero"/></clipPath><clipPath id="dec371fb6b"><path d="M 322.898438 50.597656 C 314.53125 56.738281 299.226562 72.226562 265.824219 77.371094 C 263.269531 77.765625 262.3125 79.585938 262.3125 81.59375 L 262.3125 123.9375 C 262.324219 124.523438 262.542969 125.089844 262.921875 125.535156 C 263.304688 125.984375 263.828125 126.285156 264.40625 126.390625 C 272.832031 127.808594 305.277344 119.53125 324.679688 102.871094 C 326.535156 101.28125 326.535156 98.613281 326.535156 98.058594 L 326.535156 52.710938 C 326.535156 50.828125 324.328125 49.546875 322.898438 50.597656 Z M 322.898438 50.597656 " clip-rule="nonzero"/></clipPath><linearGradient x1="4019.741731" gradientTransform="matrix(0.0524904, 0, 0, 0.0524807, 92.288083, 45.762645)" y1="-77.555611" x2="4338.875795" gradientUnits="userSpaceOnUse" y2="1587.069169" id="b2ed465b0e"><stop stop-opacity="1" stop-color="rgb(85.510254%, 90.512085%, 100%)" offset="0"/><stop stop-opacity="1" stop-color="rgb(85.395813%, 90.437317%, 100%)" offset="0.015625"/><stop stop-opacity="1" stop-color="rgb(85.166931%, 90.287781%, 100%)" offset="0.03125"/><stop stop-opacity="1" stop-color="rgb(84.938049%, 90.138245%, 100%)" offset="0.046875"/><stop stop-opacity="1" stop-color="rgb(84.710693%, 89.988708%, 100%)" offset="0.0625"/><stop stop-opacity="1" stop-color="rgb(84.481812%, 89.839172%, 100%)" offset="0.078125"/><stop stop-opacity="1" stop-color="rgb(84.25293%, 89.689636%, 100%)" offset="0.09375"/><stop stop-opacity="1" stop-color="rgb(84.025574%, 89.5401%, 100%)" offset="0.109375"/><stop stop-opacity="1" stop-color="rgb(83.796692%, 89.390564%, 100%)" offset="0.125"/><stop stop-opacity="1" stop-color="rgb(83.569336%, 89.241028%, 100%)" offset="0.135919"/><stop stop-opacity="1" stop-color="rgb(83.454895%, 89.16626%, 100%)" offset="0.140625"/><stop stop-opacity="1" stop-color="rgb(83.340454%, 89.091492%, 100%)" offset="0.15625"/><stop stop-opacity="1" stop-color="rgb(83.111572%, 88.941956%, 100%)" offset="0.171875"/><stop stop-opacity="1" stop-color="rgb(82.884216%, 88.792419%, 100%)" offset="0.1875"/><stop stop-opacity="1" stop-color="rgb(82.655334%, 88.642883%, 100%)" offset="0.203125"/><stop stop-opacity="1" stop-color="rgb(82.426453%, 88.493347%, 100%)" offset="0.21875"/><stop stop-opacity="1" stop-color="rgb(82.199097%, 88.343811%, 100%)" offset="0.234375"/><stop stop-opacity="1" stop-color="rgb(81.970215%, 88.194275%, 100%)" offset="0.25"/><stop stop-opacity="1" stop-color="rgb(81.741333%, 88.044739%, 100%)" offset="0.265625"/><stop stop-opacity="1" stop-color="rgb(81.513977%, 87.895203%, 100%)" offset="0.28125"/><stop stop-opacity="1" stop-color="rgb(81.285095%, 87.745667%, 100%)" offset="0.296875"/><stop stop-opacity="1" stop-color="rgb(81.056213%, 87.59613%, 100%)" offset="0.3125"/><stop stop-opacity="1" stop-color="rgb(80.828857%, 87.446594%, 100%)" offset="0.328125"/><stop stop-opacity="1" stop-color="rgb(80.599976%, 87.297058%, 100%)" offset="0.34375"/><stop stop-opacity="1" stop-color="rgb(80.371094%, 87.147522%, 100%)" offset="0.359375"/><stop stop-opacity="1" stop-color="rgb(80.143738%, 86.997986%, 100%)" offset="0.375"/><stop stop-opacity="1" stop-color="rgb(79.914856%, 86.84845%, 100%)" offset="0.390625"/><stop stop-opacity="1" stop-color="rgb(79.685974%, 86.698914%, 100%)" offset="0.40625"/><stop stop-opacity="1" stop-color="rgb(79.458618%, 86.549377%, 100%)" offset="0.421875"/><stop stop-opacity="1" stop-color="rgb(79.229736%, 86.399841%, 100%)" offset="0.4375"/><stop stop-opacity="1" stop-color="rgb(79.00238%, 86.250305%, 100%)" offset="0.453125"/><stop stop-opacity="1" stop-color="rgb(78.773499%, 86.100769%, 100%)" offset="0.46875"/><stop stop-opacity="1" stop-color="rgb(78.544617%, 85.951233%, 100%)" offset="0.484375"/><stop stop-opacity="1" stop-color="rgb(78.317261%, 85.801697%, 100%)" offset="0.5"/><stop stop-opacity="1" stop-color="rgb(78.088379%, 85.653687%, 100%)" offset="0.515625"/><stop stop-opacity="1" stop-color="rgb(77.859497%, 85.50415%, 100%)" offset="0.53125"/><stop stop-opacity="1" stop-color="rgb(77.632141%, 85.354614%, 100%)" offset="0.546875"/><stop stop-opacity="1" stop-color="rgb(77.403259%, 85.205078%, 100%)" offset="0.5625"/><stop stop-opacity="1" stop-color="rgb(77.174377%, 85.055542%, 100%)" offset="0.578125"/><stop stop-opacity="1" stop-color="rgb(76.947021%, 84.906006%, 100%)" offset="0.59375"/><stop stop-opacity="1" stop-color="rgb(76.71814%, 84.75647%, 100%)" offset="0.609375"/><stop stop-opacity="1" stop-color="rgb(76.489258%, 84.606934%, 100%)" offset="0.625"/><stop stop-opacity="1" stop-color="rgb(76.261902%, 84.457397%, 100%)" offset="0.640625"/><stop stop-opacity="1" stop-color="rgb(76.03302%, 84.307861%, 100%)" offset="0.65625"/><stop stop-opacity="1" stop-color="rgb(75.804138%, 84.158325%, 100%)" offset="0.671875"/><stop stop-opacity="1" stop-color="rgb(75.576782%, 84.008789%, 100%)" offset="0.6875"/><stop stop-opacity="1" stop-color="rgb(75.3479%, 83.859253%, 100%)" offset="0.703125"/><stop stop-opacity="1" stop-color="rgb(75.120544%, 83.709717%, 100%)" offset="0.71875"/><stop stop-opacity="1" stop-color="rgb(74.891663%, 83.560181%, 100%)" offset="0.734375"/><stop stop-opacity="1" stop-color="rgb(74.662781%, 83.410645%, 100%)" offset="0.75"/><stop stop-opacity="1" stop-color="rgb(74.435425%, 83.261108%, 100%)" offset="0.765625"/><stop stop-opacity="1" stop-color="rgb(74.206543%, 83.111572%, 100%)" offset="0.78125"/><stop stop-opacity="1" stop-color="rgb(73.977661%, 82.962036%, 100%)" offset="0.796875"/><stop stop-opacity="1" stop-color="rgb(73.750305%, 82.8125%, 100%)" offset="0.8125"/><stop stop-opacity="1" stop-color="rgb(73.521423%, 82.662964%, 100%)" offset="0.828125"/><stop stop-opacity="1" stop-color="rgb(73.292542%, 82.513428%, 100%)" offset="0.84375"/><stop stop-opacity="1" stop-color="rgb(73.065186%, 82.363892%, 100%)" offset="0.859375"/><stop stop-opacity="1" stop-color="rgb(72.836304%, 82.214355%, 100%)" offset="0.864081"/><stop stop-opacity="1" stop-color="rgb(72.721863%, 82.139587%, 100%)" offset="0.875"/><stop stop-opacity="1" stop-color="rgb(72.607422%, 82.064819%, 100%)" offset="0.890625"/><stop stop-opacity="1" stop-color="rgb(72.380066%, 81.915283%, 100%)" offset="0.90625"/><stop stop-opacity="1" stop-color="rgb(72.151184%, 81.765747%, 100%)" offset="0.921875"/><stop stop-opacity="1" stop-color="rgb(71.922302%, 81.616211%, 100%)" offset="0.9375"/><stop stop-opacity="1" stop-color="rgb(71.694946%, 81.466675%, 100%)" offset="0.953125"/><stop stop-opacity="1" stop-color="rgb(71.466064%, 81.317139%, 100%)" offset="0.96875"/><stop stop-opacity="1" stop-color="rgb(71.237183%, 81.167603%, 100%)" offset="0.984375"/><stop stop-opacity="1" stop-color="rgb(71.009827%, 81.018066%, 100%)" offset="1"/></linearGradient><clipPath id="136c9dfcf0"><path d="M 267 45.761719 L 326.535156 45.761719 L 326.535156 111 L 267 111 Z M 267 45.761719 " clip-rule="nonzero"/></clipPath><clipPath id="344b32abeb"><path d="M 267 45.761719 L 326.535156 45.761719 L 326.535156 121 L 267 121 Z M 267 45.761719 " clip-rule="nonzero"/></clipPath><clipPath id="be046ddab2"><path d="M 267 50 L 326.535156 50 L 326.535156 130 L 267 130 Z M 267 50 " clip-rule="nonzero"/></clipPath><clipPath id="3556f11c95"><path d="M 267 60 L 326.535156 60 L 326.535156 141 L 267 141 Z M 267 60 " clip-rule="nonzero"/></clipPath></defs><g clip-path="url(#f4ee7ab597)"><path fill="#ffffff" d="M 0 0.140625 L 418.5 0.140625 L 418.5 297.359375 L 0 297.359375 Z M 0 0.140625 " fill-opacity="1" fill-rule="nonzero"/><path fill="#ffffff" d="M 0 0.140625 L 418.5 0.140625 L 418.5 297.359375 L 0 297.359375 Z M 0 0.140625 " fill-opacity="1" fill-rule="nonzero"/></g><g clip-path="url(#08841c4e3a)"><path fill="#1c85e8" d="M 139.230469 45.761719 L 282.652344 45.761719 C 284.820312 45.761719 286.898438 46.625 288.433594 48.15625 C 289.964844 49.691406 290.828125 51.769531 290.828125 53.9375 L 290.828125 62.964844 L 131.054688 62.964844 L 131.054688 53.9375 C 131.054688 51.769531 131.917969 49.691406 133.449219 48.15625 C 134.984375 46.625 137.0625 45.761719 139.230469 45.761719 Z M 139.230469 45.761719 " fill-opacity="1" fill-rule="nonzero"/></g><g clip-path="url(#fc29df422f)"><g clip-path="url(#7a7f5c6a03)"><path fill="url(#dabdbdc720)" d="M 131.054688 62.964844 L 131.054688 222.707031 L 290.828125 222.707031 L 290.828125 62.964844 Z M 131.054688 62.964844 " fill-rule="nonzero"/></g></g><path fill="#ffccb3" d="M 235.445312 165.675781 L 191.625 165.675781 L 191.625 186.957031 L 235.445312 186.957031 Z M 235.445312 165.675781 " fill-opacity="1" fill-rule="nonzero"/><path fill="#1f2d49" d="M 191.367188 178.796875 C 186.226562 183.851562 184.203125 208.75 184.472656 222.707031 L 245.652344 222.707031 C 245.652344 222.707031 245.542969 192.273438 240.90625 182.019531 C 236.640625 172.589844 229.550781 186.5 191.367188 178.796875 Z M 191.367188 178.796875 " fill-opacity="1" fill-rule="nonzero"/><path fill="#1c85e8" d="M 201.476562 119.480469 C 201.476562 119.480469 209.347656 128.316406 206.730469 131.148438 C 201.546875 136.972656 187.757812 147.914062 183.238281 151.539062 C 183.042969 151.6875 182.820312 151.796875 182.582031 151.859375 C 182.34375 151.921875 182.097656 151.9375 181.855469 151.902344 C 181.609375 151.871094 181.375 151.789062 181.164062 151.664062 C 180.953125 151.542969 180.765625 151.375 180.621094 151.179688 L 169.933594 137.136719 C 169.515625 136.59375 169.324219 135.914062 169.390625 135.234375 C 169.457031 134.554688 169.785156 133.925781 170.300781 133.480469 L 190.996094 115.636719 Z M 201.476562 119.480469 " fill-opacity="1" fill-rule="nonzero"/><path fill="#0e66af" d="M 189.050781 130.710938 C 189.050781 130.710938 179.242188 136.539062 178.359375 148.253906 L 180.3125 150.761719 C 180.3125 150.761719 181.539062 152.898438 183.238281 151.539062 C 184.9375 150.175781 192.800781 143.878906 192.800781 143.878906 Z M 189.050781 130.710938 " fill-opacity="1" fill-rule="nonzero"/><path fill="#1c85e8" d="M 198.222656 135.152344 C 204.339844 135.152344 209.300781 130.191406 209.300781 124.074219 C 209.300781 117.957031 204.339844 112.996094 198.222656 112.996094 C 192.105469 112.996094 187.144531 117.957031 187.144531 124.074219 C 187.144531 130.191406 192.105469 135.152344 198.222656 135.152344 Z M 198.222656 135.152344 " fill-opacity="1" fill-rule="nonzero"/><path fill="#ffccb3" d="M 169.375 158.796875 L 159.691406 145.980469 L 168.859375 138.867188 L 170.292969 137.707031 L 180.335938 150.839844 L 178.589844 152.097656 Z M 169.375 158.796875 " fill-opacity="1" fill-rule="nonzero"/><path fill="#ff967c" d="M 178.589844 152.097656 C 175.996094 148.625 171.117188 141.839844 168.859375 138.867188 L 170.292969 137.707031 L 180.3125 150.761719 Z M 178.589844 152.097656 " fill-opacity="1" fill-rule="nonzero"/><path fill="#ffccb3" d="M 164.386719 160.574219 C 168.828125 160.574219 172.429688 156.976562 172.429688 152.535156 C 172.429688 148.09375 168.828125 144.492188 164.386719 144.492188 C 159.945312 144.492188 156.34375 148.09375 156.34375 152.535156 C 156.34375 156.976562 159.945312 160.574219 164.386719 160.574219 Z M 164.386719 160.574219 " fill-opacity="1" fill-rule="nonzero"/><path fill="#ffccb3" d="M 171.195312 148.207031 C 171.195312 148.207031 145.25 110.113281 144.050781 106.878906 C 142.886719 103.722656 136.757812 111.324219 136.757812 111.324219 L 156.835938 155.121094 Z M 171.195312 148.207031 " fill-opacity="1" fill-rule="nonzero"/><path fill="#ffccb3" d="M 206.910156 95.085938 L 203.792969 116.828125 C 203.792969 116.828125 202.976562 119.710938 206.609375 120.148438 C 210.242188 120.585938 217.988281 119.609375 220.757812 116.660156 C 223.523438 113.714844 222.554688 112.253906 222.554688 112.253906 L 216.6875 88.65625 Z M 206.910156 95.085938 " fill-opacity="1" fill-rule="nonzero"/><path fill="#ff967c" d="M 206.476562 97.898438 L 214.105469 95.203125 L 204.65625 109.210938 Z M 206.476562 97.898438 " fill-opacity="1" fill-rule="nonzero"/><path fill="#ffccb3" d="M 198.28125 68.230469 C 198.28125 68.230469 191.734375 83.609375 195.148438 94.144531 C 197.371094 101.019531 202.214844 102.253906 213.308594 97.105469 C 223.484375 92.382812 226.125 88.808594 226.125 88.808594 L 227.625 71.667969 C 227.625 71.667969 204.929688 54.527344 198.28125 68.230469 Z M 198.28125 68.230469 " fill-opacity="1" fill-rule="nonzero"/><path fill="#1c85e8" d="M 203.738281 110.574219 C 203.738281 110.574219 195.355469 112.90625 193.652344 114.265625 C 191.949219 115.625 189.253906 122.589844 189.253906 130.554688 C 189.253906 141.855469 190.808594 147.917969 190.808594 154.9375 C 190.808594 161.953125 187.113281 188.710938 187.113281 188.710938 L 241.503906 188.710938 C 240.113281 161.90625 241.503906 114.03125 241.503906 114.03125 L 220.777344 109.253906 C 216.101562 110.058594 203.738281 110.574219 203.738281 110.574219 Z M 203.738281 110.574219 " fill-opacity="1" fill-rule="nonzero"/><path fill="#0e66af" d="M 231.457031 124.074219 C 231.457031 124.074219 224.230469 128.851562 226.359375 133.675781 C 228.753906 139.09375 226.359375 145.066406 226.359375 153.390625 C 225.535156 155.886719 225.058594 158.265625 225.058594 160.285156 C 225.058594 162.308594 223.945312 160.375 223.945312 166.246094 C 223.945312 170.425781 237.078125 174.050781 236.738281 170.671875 C 234.453125 148.082031 243.949219 133.777344 231.457031 124.074219 Z M 231.457031 124.074219 " fill-opacity="1" fill-rule="nonzero"/><path fill="#ffccb3" d="M 256.492188 167.292969 L 240.480469 168.605469 L 237.746094 157.003906 L 234.453125 148.082031 L 251.304688 146.066406 L 253.410156 156.050781 Z M 256.492188 167.292969 " fill-opacity="1" fill-rule="nonzero"/><path fill="#ff967c" d="M 251.875 148.761719 L 252.464844 151.5625 L 235.871094 151.917969 L 234.777344 148.960938 Z M 251.875 148.761719 " fill-opacity="1" fill-rule="nonzero"/><path fill="#1c85e8" d="M 238.75 135.835938 C 244.867188 135.835938 249.828125 130.875 249.828125 124.757812 C 249.828125 118.640625 244.867188 113.679688 238.75 113.679688 C 232.632812 113.679688 227.671875 118.640625 227.671875 124.757812 C 227.671875 130.875 232.632812 135.835938 238.75 135.835938 Z M 238.75 135.835938 " fill-opacity="1" fill-rule="nonzero"/><path fill="#1c85e8" d="M 236.613281 119.550781 C 236.613281 119.550781 248.289062 117.636719 249.28125 121.363281 C 251.421875 128.859375 254.054688 140.894531 254.695312 146.648438 C 254.71875 146.890625 254.691406 147.140625 254.617188 147.375 C 254.542969 147.605469 254.421875 147.824219 254.265625 148.011719 C 254.105469 148.199219 253.910156 148.355469 253.695312 148.464844 C 253.476562 148.578125 253.238281 148.648438 252.992188 148.667969 L 235.40625 150.167969 C 234.726562 150.230469 234.046875 150.03125 233.507812 149.609375 C 232.972656 149.1875 232.617188 148.578125 232.515625 147.902344 L 227.753906 126.339844 Z M 236.613281 119.550781 " fill-opacity="1" fill-rule="nonzero"/><path fill="#080b09" d="M 202.359375 66.769531 C 202.359375 66.769531 202.773438 74.238281 209.101562 77.859375 C 209.101562 77.859375 210.953125 83.585938 217.859375 84.933594 C 217.859375 84.933594 217.453125 79.667969 220.742188 79.722656 C 226.332031 79.820312 223.582031 88.296875 219.804688 89.6875 C 217.238281 90.632812 215.691406 93.988281 219.503906 101.632812 C 228.257812 98.511719 234.414062 85.902344 232 71.917969 C 230.066406 60.714844 216.175781 57.058594 213.324219 57.421875 C 213.324219 57.421875 201.472656 53.328125 195.234375 64.554688 C 189.898438 74.152344 194.882812 79.878906 194.882812 79.878906 L 197.722656 71.339844 C 197.722656 71.339844 198.910156 72.171875 202.359375 66.769531 Z M 202.359375 66.769531 " fill-opacity="1" fill-rule="nonzero"/><g clip-path="url(#40e01fda47)"><g clip-path="url(#a7da5b93fd)"><path fill="url(#6914baf339)" d="M 206.828125 157.003906 L 206.828125 194.96875 L 263.863281 194.96875 L 263.863281 157.003906 Z M 206.828125 157.003906 " fill-rule="nonzero"/></g></g><path fill="#ffffff" d="M 235.445312 178.378906 C 237.089844 178.378906 238.421875 177.046875 238.421875 175.402344 C 238.421875 173.761719 237.089844 172.429688 235.445312 172.429688 C 233.804688 172.429688 232.46875 173.761719 232.46875 175.402344 C 232.46875 177.046875 233.804688 178.378906 235.445312 178.378906 Z M 235.445312 178.378906 " fill-opacity="1" fill-rule="nonzero"/><path fill="#ffccb3" d="M 137.859375 113.824219 L 135.304688 108.921875 C 135.304688 108.921875 126.269531 103.757812 125.222656 101.886719 C 124.171875 100.019531 123.761719 94.683594 125.617188 93.316406 C 125.617188 93.316406 118.40625 87.902344 119.632812 86.808594 C 120.855469 85.628906 135.023438 96.152344 135.023438 96.152344 C 135.023438 96.152344 133.296875 88.398438 135.917969 88.035156 C 136.628906 91.042969 137.84375 93.902344 139.515625 96.5 C 142.273438 100.761719 142.613281 104.582031 142.613281 104.582031 L 145.863281 110.824219 Z M 137.859375 113.824219 " fill-opacity="1" fill-rule="nonzero"/><path stroke-linecap="round" transform="matrix(0.0524904, 0, 0, 0.0524807, 92.288083, 45.762636)" fill="none" stroke-linejoin="round" d="M 644.183725 908.72479 L 727.383418 961.199464 " stroke="#ff967c" stroke-width="13.016" stroke-opacity="1" stroke-miterlimit="4"/><path stroke-linecap="round" transform="matrix(0.0524904, 0, 0, 0.0524807, 92.288083, 45.762636)" fill="none" stroke-linejoin="round" d="M 631.830282 968.717113 L 702.378859 1012.632089 " stroke="#ff967c" stroke-width="13.016" stroke-opacity="1" stroke-miterlimit="4"/><path stroke-linecap="round" transform="matrix(0.0524904, 0, 0, 0.0524807, 92.288083, 45.762636)" fill="none" stroke-linejoin="round" d="M 645.523255 1033.547527 L 692.630058 1063.320392 " stroke="#ff967c" stroke-width="13.016" stroke-opacity="1" stroke-miterlimit="4"/><path fill="#ffffff" d="M 143.179688 56.445312 C 144.332031 56.445312 145.261719 55.511719 145.261719 54.363281 C 145.261719 53.214844 144.332031 52.28125 143.179688 52.28125 C 142.03125 52.28125 141.101562 53.214844 141.101562 54.363281 C 141.101562 55.511719 142.03125 56.445312 143.179688 56.445312 Z M 143.179688 56.445312 " fill-opacity="1" fill-rule="nonzero"/><path fill="#ffffff" d="M 151.585938 56.445312 C 152.734375 56.445312 153.667969 55.511719 153.667969 54.363281 C 153.667969 53.214844 152.734375 52.28125 151.585938 52.28125 C 150.4375 52.28125 149.503906 53.214844 149.503906 54.363281 C 149.503906 55.511719 150.4375 56.445312 151.585938 56.445312 Z M 151.585938 56.445312 " fill-opacity="1" fill-rule="nonzero"/><path fill="#ffffff" d="M 159.480469 56.445312 C 160.632812 56.445312 161.5625 55.511719 161.5625 54.363281 C 161.5625 53.214844 160.632812 52.28125 159.480469 52.28125 C 158.332031 52.28125 157.402344 53.214844 157.402344 54.363281 C 157.402344 55.511719 158.332031 56.445312 159.480469 56.445312 Z M 159.480469 56.445312 " fill-opacity="1" fill-rule="nonzero"/><path fill="#febb94" d="M 96.976562 54.109375 C 105.34375 61.242188 127.40625 77.507812 155.425781 78.285156 C 156 78.300781 156.542969 78.542969 156.941406 78.953125 C 157.339844 79.363281 157.5625 79.914062 157.5625 80.488281 L 157.5625 124.878906 C 157.5625 125.445312 157.34375 125.988281 156.957031 126.398438 C 156.566406 126.8125 156.03125 127.054688 155.464844 127.082031 C 147.039062 127.503906 115.09375 127.453125 93.925781 104.792969 C 93.546875 104.386719 93.339844 103.851562 93.339844 103.296875 L 93.339844 55.789062 C 93.339844 55.367188 93.460938 54.957031 93.6875 54.601562 C 93.914062 54.246094 94.238281 53.960938 94.621094 53.785156 C 95.003906 53.609375 95.429688 53.546875 95.84375 53.601562 C 96.261719 53.660156 96.65625 53.835938 96.976562 54.109375 Z M 96.976562 54.109375 " fill-opacity="0.7" fill-rule="nonzero"/><g clip-path="url(#16aac18109)"><path stroke-linecap="round" transform="matrix(0.0524904, 0, 0, 0.0524807, 92.288083, 45.762636)" fill="none" stroke-linejoin="miter" d="M 149.748344 408.317359 C 149.748344 408.317359 275.515321 530.460539 447.421662 606.381345 " stroke="#ffffff" stroke-width="33.686001" stroke-opacity="1" stroke-miterlimit="10"/></g><g clip-path="url(#7febc220b3)"><path stroke-linecap="round" transform="matrix(0.0524904, 0, 0, 0.0524807, 92.288083, 45.762636)" fill="none" stroke-linejoin="miter" d="M 149.748344 556.437363 C 149.748344 556.437363 324.780255 719.741528 552.500343 780.329309 " stroke="#ffffff" stroke-width="33.686001" stroke-opacity="0.4" stroke-miterlimit="10"/></g><path fill="#ffffff" d="M 98.78125 103.398438 L 98.78125 84.855469 L 105.28125 89.507812 L 105.28125 108.496094 Z M 98.78125 103.398438 " fill-opacity="1" fill-rule="nonzero"/><path fill="#ffffff" d="M 109.753906 110.890625 L 109.753906 97.679688 L 116.257812 101.566406 L 116.257812 114.625 Z M 109.753906 110.890625 " fill-opacity="1" fill-rule="nonzero"/><path fill="#ffffff" d="M 137.558594 121.230469 L 137.558594 108.019531 L 131.054688 107.128906 L 131.054688 120.191406 Z M 137.558594 121.230469 " fill-opacity="1" fill-rule="nonzero"/><path fill="#ffffff" d="M 148.238281 121.796875 L 148.238281 98.667969 L 141.734375 98.667969 L 141.734375 121.644531 Z M 148.238281 121.796875 " fill-opacity="1" fill-rule="nonzero"/><path fill="#ffffff" d="M 120.40625 116.675781 L 120.40625 110.636719 L 126.90625 112.464844 L 126.90625 119.03125 Z M 120.40625 116.675781 " fill-opacity="1" fill-rule="nonzero"/><path fill="#96bafd" d="M 113.261719 146.089844 C 121.625 152.230469 143.6875 168.261719 171.710938 165.714844 C 171.980469 165.683594 172.257812 165.710938 172.519531 165.792969 C 172.78125 165.878906 173.023438 166.015625 173.222656 166.203125 C 173.425781 166.386719 173.585938 166.613281 173.695312 166.867188 C 173.800781 167.121094 173.851562 167.390625 173.847656 167.664062 L 173.847656 212.054688 C 173.832031 212.644531 173.617188 213.210938 173.234375 213.65625 C 172.851562 214.101562 172.328125 214.402344 171.75 214.507812 C 163.324219 215.925781 128.285156 215.226562 110.207031 197.136719 C 110.019531 196.949219 109.875 196.726562 109.773438 196.484375 C 109.671875 196.238281 109.621094 195.976562 109.625 195.710938 L 109.625 148.203125 C 109.625 146.320312 111.828125 145.039062 113.261719 146.089844 Z M 113.261719 146.089844 " fill-opacity="0.7" fill-rule="nonzero"/><path fill="#ffccb3" d="M 247.914062 193.695312 C 247.914062 193.695312 250.15625 193.878906 249.820312 195.011719 C 249.480469 196.140625 247.480469 195.621094 245.652344 196.75 C 243.828125 197.882812 236.601562 198.6875 232.996094 198.085938 C 229.386719 197.488281 228.382812 193.695312 228.382812 193.695312 C 228.382812 193.695312 227.78125 190.097656 234.15625 189.726562 C 240.527344 189.359375 243.492188 191.402344 244.601562 193.621094 Z M 247.914062 193.695312 " fill-opacity="1" fill-rule="nonzero"/><path stroke-linecap="round" transform="matrix(0.0524904, 0, 0, 0.0524807, 92.288083, 45.762636)" fill="none" stroke-linejoin="miter" d="M 2644.399586 2753.823672 L 2670.594838 2824.385363 " stroke="#e56441" stroke-width="10.147" stroke-opacity="1" stroke-miterlimit="4"/><path stroke-linecap="round" transform="matrix(0.0524904, 0, 0, 0.0524807, 92.288083, 45.762636)" fill="none" stroke-linejoin="miter" d="M 2712.343521 2742.361119 L 2738.538773 2812.92281 " stroke="#e56441" stroke-width="10.147" stroke-opacity="1" stroke-miterlimit="4"/><path stroke-linecap="round" transform="matrix(0.0524904, 0, 0, 0.0524807, 92.288083, 45.762636)" fill="none" stroke-linejoin="miter" d="M 2784.008373 2748.315692 L 2810.278043 2818.877383 " stroke="#e56441" stroke-width="10.147" stroke-opacity="1" stroke-miterlimit="4"/><g clip-path="url(#2c492862df)"><path fill="#1c85e8" d="M 315.742188 149.703125 C 304.074219 159.652344 273.300781 182.339844 234.214844 183.425781 C 233.414062 183.449219 232.65625 183.785156 232.097656 184.359375 C 231.542969 184.933594 231.230469 185.699219 231.234375 186.5 L 231.234375 248.421875 C 231.230469 249.210938 231.535156 249.96875 232.082031 250.542969 C 232.625 251.113281 233.371094 251.457031 234.15625 251.496094 C 245.910156 252.078125 290.472656 252.011719 320.003906 220.402344 C 320.527344 219.835938 320.820312 219.089844 320.816406 218.316406 L 320.816406 152.046875 C 320.816406 151.460938 320.648438 150.882812 320.332031 150.386719 C 320.015625 149.894531 319.5625 149.5 319.03125 149.253906 C 318.5 149.003906 317.902344 148.917969 317.324219 148.996094 C 316.742188 149.078125 316.191406 149.320312 315.742188 149.703125 Z M 315.742188 149.703125 " fill-opacity="0.7" fill-rule="nonzero"/></g><g clip-path="url(#4513e10825)"><path stroke-linecap="round" transform="matrix(0.0524904, 0, 0, 0.0524807, 92.288083, 45.762636)" fill="none" stroke-linejoin="miter" d="M 4172.803239 2328.220566 C 4172.803239 2328.220566 3997.324818 2498.670218 3757.54896 2604.587186 " stroke="#ffffff" stroke-width="46.988998" stroke-opacity="1" stroke-miterlimit="10"/></g><g clip-path="url(#52746a2f8b)"><path stroke-linecap="round" transform="matrix(0.0524904, 0, 0, 0.0524807, 92.288083, 45.762636)" fill="none" stroke-linejoin="miter" d="M 4172.803239 2534.918682 C 4172.803239 2534.918682 3928.562281 2762.606668 3610.944851 2847.236037 " stroke="#ffffff" stroke-width="46.988998" stroke-opacity="0.4" stroke-miterlimit="10"/></g><path fill="#ffffff" d="M 305.332031 130.113281 L 269.710938 130.113281 C 269.011719 130.113281 268.320312 130.25 267.675781 130.519531 C 267.027344 130.785156 266.441406 131.175781 265.949219 131.671875 C 265.453125 132.164062 265.0625 132.753906 264.792969 133.398438 C 264.527344 134.042969 264.390625 134.734375 264.390625 135.433594 L 264.390625 146.453125 C 264.390625 147.152344 264.527344 147.84375 264.792969 148.488281 C 265.0625 149.136719 265.453125 149.722656 265.949219 150.214844 C 266.441406 150.710938 267.027344 151.101562 267.675781 151.367188 C 268.320312 151.636719 269.011719 151.773438 269.710938 151.773438 L 282.359375 151.773438 L 286.089844 155.503906 C 286.4375 155.855469 286.910156 156.050781 287.40625 156.050781 C 287.902344 156.050781 288.375 155.855469 288.722656 155.503906 L 292.453125 151.773438 L 305.332031 151.773438 C 306.742188 151.773438 308.101562 151.214844 309.097656 150.214844 C 310.097656 149.21875 310.65625 147.863281 310.65625 146.453125 L 310.65625 135.433594 C 310.65625 134.023438 310.097656 132.667969 309.097656 131.671875 C 308.101562 130.671875 306.742188 130.113281 305.332031 130.113281 Z M 305.332031 130.113281 " fill-opacity="1" fill-rule="nonzero"/><path fill="#f4608a" d="M 279.5 137.449219 C 279.023438 137.007812 278.402344 136.765625 277.753906 136.765625 C 277.105469 136.765625 276.484375 137.007812 276.007812 137.449219 L 275.351562 138.054688 L 274.691406 137.449219 C 274.21875 137.007812 273.59375 136.765625 272.945312 136.765625 C 272.300781 136.765625 271.675781 137.007812 271.199219 137.449219 C 270.949219 137.675781 270.75 137.953125 270.609375 138.261719 C 270.472656 138.570312 270.402344 138.90625 270.402344 139.246094 C 270.402344 139.582031 270.472656 139.917969 270.609375 140.226562 C 270.75 140.535156 270.949219 140.8125 271.199219 141.042969 L 275.351562 144.886719 L 279.5 141.089844 C 279.761719 140.867188 279.972656 140.585938 280.117188 140.273438 C 280.261719 139.957031 280.335938 139.617188 280.335938 139.269531 C 280.335938 138.925781 280.261719 138.582031 280.117188 138.269531 C 279.972656 137.953125 279.761719 137.675781 279.5 137.449219 Z M 279.5 137.449219 " fill-opacity="1" fill-rule="nonzero"/><path fill="#1c85e8" d="M 284.136719 139.695312 C 284.171875 139.230469 284.351562 138.863281 284.675781 138.601562 C 285 138.339844 285.417969 138.207031 285.9375 138.207031 C 286.28125 138.207031 286.578125 138.269531 286.824219 138.394531 C 287.078125 138.519531 287.269531 138.683594 287.394531 138.898438 C 287.527344 139.109375 287.59375 139.351562 287.59375 139.621094 C 287.59375 139.933594 287.503906 140.203125 287.320312 140.433594 C 287.140625 140.660156 286.910156 140.808594 286.621094 140.875 L 286.621094 140.910156 C 286.949219 140.992188 287.210938 141.152344 287.402344 141.390625 C 287.597656 141.628906 287.695312 141.941406 287.695312 142.324219 C 287.695312 142.613281 287.628906 142.875 287.492188 143.109375 C 287.363281 143.335938 287.164062 143.515625 286.902344 143.648438 C 286.636719 143.777344 286.320312 143.84375 285.953125 143.84375 C 285.414062 143.84375 284.976562 143.707031 284.628906 143.425781 C 284.285156 143.144531 284.089844 142.742188 284.050781 142.226562 L 284.71875 142.226562 C 284.753906 142.53125 284.878906 142.777344 285.09375 142.972656 C 285.304688 143.164062 285.589844 143.257812 285.945312 143.257812 C 286.300781 143.257812 286.566406 143.167969 286.75 142.984375 C 286.9375 142.800781 287.03125 142.558594 287.03125 142.265625 C 287.03125 141.882812 286.902344 141.609375 286.652344 141.445312 C 286.398438 141.277344 286.015625 141.191406 285.503906 141.191406 L 285.328125 141.191406 L 285.328125 140.613281 L 285.511719 140.613281 C 285.976562 140.609375 286.332031 140.535156 286.566406 140.386719 C 286.804688 140.234375 286.925781 140.003906 286.925781 139.6875 C 286.925781 139.417969 286.835938 139.203125 286.660156 139.042969 C 286.488281 138.878906 286.238281 138.796875 285.914062 138.796875 C 285.601562 138.796875 285.347656 138.878906 285.152344 139.042969 C 284.960938 139.203125 284.847656 139.421875 284.8125 139.695312 Z M 289.453125 142.851562 L 288.605469 144.894531 L 288.140625 144.894531 L 288.695312 142.851562 Z M 293.636719 138.914062 L 290.96875 138.914062 L 290.96875 140.644531 C 291.085938 140.484375 291.257812 140.351562 291.484375 140.25 C 291.714844 140.144531 291.960938 140.089844 292.222656 140.089844 C 292.644531 140.089844 292.988281 140.179688 293.25 140.355469 C 293.511719 140.527344 293.699219 140.753906 293.8125 141.035156 C 293.929688 141.308594 293.984375 141.597656 293.984375 141.90625 C 293.984375 142.273438 293.917969 142.597656 293.78125 142.886719 C 293.644531 143.175781 293.433594 143.402344 293.152344 143.570312 C 292.871094 143.738281 292.527344 143.820312 292.109375 143.820312 C 291.578125 143.820312 291.148438 143.683594 290.816406 143.410156 C 290.488281 143.136719 290.285156 142.773438 290.21875 142.316406 L 290.894531 142.316406 C 290.960938 142.605469 291.097656 142.832031 291.3125 142.992188 C 291.523438 143.15625 291.792969 143.238281 292.117188 143.238281 C 292.519531 143.238281 292.816406 143.117188 293.023438 142.878906 C 293.222656 142.636719 293.324219 142.316406 293.324219 141.921875 C 293.324219 141.527344 293.222656 141.222656 293.023438 141.011719 C 292.816406 140.792969 292.519531 140.683594 292.125 140.683594 C 291.855469 140.683594 291.621094 140.75 291.417969 140.882812 C 291.21875 141.007812 291.074219 141.183594 290.984375 141.40625 L 290.332031 141.40625 L 290.332031 138.304688 L 293.636719 138.304688 Z M 294.824219 143.253906 C 295.464844 142.734375 295.96875 142.3125 296.332031 141.984375 C 296.699219 141.648438 297.007812 141.300781 297.253906 140.941406 C 297.507812 140.578125 297.636719 140.21875 297.636719 139.871094 C 297.636719 139.542969 297.554688 139.28125 297.390625 139.09375 C 297.234375 138.902344 296.980469 138.808594 296.625 138.808594 C 296.277344 138.808594 296.011719 138.914062 295.816406 139.132812 C 295.628906 139.347656 295.53125 139.632812 295.511719 139.992188 L 294.84375 139.992188 C 294.867188 139.425781 295.035156 138.988281 295.359375 138.675781 C 295.6875 138.367188 296.105469 138.214844 296.617188 138.214844 C 297.136719 138.214844 297.550781 138.359375 297.855469 138.648438 C 298.164062 138.9375 298.316406 139.332031 298.316406 139.839844 C 298.316406 140.261719 298.191406 140.671875 297.941406 141.070312 C 297.691406 141.464844 297.40625 141.816406 297.085938 142.121094 C 296.769531 142.417969 296.359375 142.769531 295.863281 143.167969 L 298.476562 143.167969 L 298.476562 143.746094 L 294.824219 143.746094 Z M 302.660156 138.851562 L 300.546875 143.808594 L 299.847656 143.808594 L 301.992188 138.921875 L 299.058594 138.921875 L 299.058594 138.328125 L 302.660156 138.328125 Z M 302.660156 138.851562 " fill-opacity="1" fill-rule="nonzero"/><g clip-path="url(#17d61a66d0)"><path fill="#1c85e8" d="M 96.328125 231.53125 L 123.183594 231.53125 C 123.710938 231.53125 124.234375 231.429688 124.71875 231.226562 C 125.207031 231.027344 125.648438 230.730469 126.019531 230.355469 C 126.394531 229.984375 126.691406 229.542969 126.890625 229.054688 C 127.09375 228.570312 127.195312 228.046875 127.195312 227.519531 L 127.195312 219.214844 C 127.195312 218.6875 127.09375 218.164062 126.890625 217.679688 C 126.691406 217.191406 126.394531 216.75 126.019531 216.375 C 125.648438 216.003906 125.207031 215.707031 124.71875 215.507812 C 124.234375 215.304688 123.710938 215.203125 123.183594 215.203125 L 113.648438 215.203125 L 110.835938 212.386719 C 110.574219 212.125 110.214844 211.976562 109.84375 211.976562 C 109.472656 211.976562 109.113281 212.125 108.851562 212.386719 L 106.035156 215.203125 L 96.328125 215.203125 C 95.261719 215.203125 94.242188 215.625 93.488281 216.375 C 92.738281 217.128906 92.3125 218.148438 92.3125 219.214844 L 92.3125 227.519531 C 92.3125 228.585938 92.738281 229.605469 93.488281 230.355469 C 94.242188 231.109375 95.261719 231.53125 96.328125 231.53125 Z M 96.328125 231.53125 " fill-opacity="0.7" fill-rule="nonzero"/></g><path fill="#ffffff" d="M 108.980469 225.410156 C 109.464844 225.019531 109.84375 224.699219 110.121094 224.453125 C 110.394531 224.199219 110.625 223.9375 110.8125 223.667969 C 111.003906 223.390625 111.097656 223.121094 111.097656 222.859375 C 111.097656 222.609375 111.039062 222.417969 110.914062 222.273438 C 110.796875 222.128906 110.605469 222.058594 110.335938 222.058594 C 110.078125 222.058594 109.875 222.140625 109.730469 222.304688 C 109.589844 222.464844 109.511719 222.679688 109.5 222.949219 L 108.996094 222.949219 C 109.011719 222.523438 109.140625 222.191406 109.386719 221.960938 C 109.628906 221.726562 109.945312 221.609375 110.332031 221.609375 C 110.726562 221.609375 111.035156 221.71875 111.265625 221.9375 C 111.5 222.15625 111.613281 222.453125 111.613281 222.835938 C 111.613281 223.152344 111.519531 223.460938 111.328125 223.765625 C 111.140625 224.0625 110.925781 224.324219 110.6875 224.554688 C 110.445312 224.78125 110.136719 225.042969 109.765625 225.347656 L 111.734375 225.347656 L 111.734375 225.78125 L 108.980469 225.78125 Z M 112.210938 224.90625 L 112.210938 224.507812 L 114.222656 221.722656 L 114.847656 221.722656 L 114.847656 224.453125 L 115.421875 224.453125 L 115.421875 224.90625 L 114.847656 224.90625 L 114.847656 225.828125 L 114.332031 225.828125 L 114.332031 224.90625 Z M 114.355469 222.269531 L 112.8125 224.453125 L 114.355469 224.453125 Z M 115.929688 222.726562 C 115.957031 222.375 116.09375 222.101562 116.335938 221.902344 C 116.582031 221.703125 116.898438 221.605469 117.289062 221.605469 C 117.550781 221.605469 117.773438 221.652344 117.960938 221.746094 C 118.152344 221.839844 118.292969 221.964844 118.390625 222.125 C 118.488281 222.285156 118.539062 222.46875 118.539062 222.671875 C 118.539062 222.90625 118.46875 223.109375 118.332031 223.285156 C 118.199219 223.453125 118.023438 223.566406 117.804688 223.617188 L 117.804688 223.644531 C 118.054688 223.707031 118.25 223.824219 118.394531 224.003906 C 118.539062 224.183594 118.613281 224.417969 118.613281 224.710938 C 118.613281 224.925781 118.5625 225.125 118.464844 225.300781 C 118.363281 225.472656 118.214844 225.609375 118.015625 225.707031 C 117.816406 225.804688 117.578125 225.855469 117.300781 225.855469 C 116.894531 225.855469 116.5625 225.75 116.304688 225.539062 C 116.042969 225.328125 115.898438 225.023438 115.867188 224.636719 L 116.371094 224.636719 C 116.398438 224.863281 116.492188 225.050781 116.652344 225.195312 C 116.8125 225.34375 117.027344 225.414062 117.292969 225.414062 C 117.5625 225.414062 117.765625 225.347656 117.902344 225.207031 C 118.042969 225.066406 118.113281 224.886719 118.113281 224.664062 C 118.113281 224.378906 118.019531 224.171875 117.828125 224.046875 C 117.636719 223.917969 117.347656 223.855469 116.960938 223.855469 L 116.832031 223.855469 L 116.832031 223.421875 L 116.96875 223.421875 C 117.320312 223.417969 117.585938 223.359375 117.765625 223.25 C 117.945312 223.132812 118.035156 222.957031 118.035156 222.722656 C 118.035156 222.519531 117.96875 222.355469 117.832031 222.234375 C 117.703125 222.113281 117.515625 222.050781 117.273438 222.050781 C 117.035156 222.050781 116.84375 222.113281 116.699219 222.234375 C 116.554688 222.355469 116.46875 222.519531 116.441406 222.726562 Z M 121.625 222.671875 C 121.542969 222.246094 121.28125 222.035156 120.839844 222.035156 C 120.5 222.035156 120.246094 222.164062 120.078125 222.429688 C 119.910156 222.6875 119.828125 223.117188 119.832031 223.71875 C 119.921875 223.519531 120.066406 223.363281 120.269531 223.253906 C 120.472656 223.140625 120.703125 223.082031 120.957031 223.082031 C 121.347656 223.082031 121.664062 223.203125 121.894531 223.449219 C 122.132812 223.695312 122.25 224.03125 122.25 224.464844 C 122.25 224.722656 122.199219 224.957031 122.097656 225.164062 C 121.996094 225.367188 121.84375 225.53125 121.636719 225.65625 C 121.433594 225.777344 121.1875 225.839844 120.898438 225.839844 C 120.503906 225.839844 120.199219 225.75 119.976562 225.574219 C 119.753906 225.398438 119.597656 225.15625 119.511719 224.847656 C 119.425781 224.539062 119.378906 224.15625 119.378906 223.703125 C 119.378906 222.300781 119.867188 221.597656 120.847656 221.597656 C 121.222656 221.597656 121.515625 221.699219 121.730469 221.902344 C 121.945312 222.105469 122.070312 222.359375 122.109375 222.671875 Z M 120.847656 223.523438 C 120.683594 223.523438 120.527344 223.558594 120.382812 223.628906 C 120.238281 223.691406 120.117188 223.792969 120.027344 223.929688 C 119.941406 224.0625 119.894531 224.226562 119.894531 224.421875 C 119.894531 224.714844 119.980469 224.949219 120.148438 225.132812 C 120.316406 225.3125 120.554688 225.402344 120.871094 225.402344 C 121.136719 225.402344 121.347656 225.320312 121.507812 225.15625 C 121.667969 224.988281 121.746094 224.761719 121.746094 224.480469 C 121.746094 224.183594 121.671875 223.949219 121.515625 223.78125 C 121.363281 223.609375 121.140625 223.523438 120.847656 223.523438 Z M 120.847656 223.523438 " fill-opacity="1" fill-rule="nonzero"/><g clip-path="url(#7386cc6769)"><path stroke-linecap="round" transform="matrix(0.0524904, 0, 0, 0.0524807, 92.288083, 45.762636)" fill="none" stroke-linejoin="miter" d="M 2800.380405 3408.082383 C 2800.380405 3408.082383 2963.505384 3373.91802 3038.146968 3294.722199 C 3136.97451 3189.847282 3159.820937 3064.131359 3268.099606 3051.180163 C 3438.071071 3030.860182 3536.600939 3630.932278 3742.962967 3549.801221 C 3949.324995 3468.595731 3900.506571 3020.439679 4023.296815 2944.518873 C 4107.836037 2892.193063 4151.81727 3047.830715 4270.29125 3007.190754 " stroke="#ffffff" stroke-width="46.988998" stroke-opacity="1" stroke-miterlimit="10"/></g><g clip-path="url(#7a79065086)"><g clip-path="url(#ac20aede7c)"><path fill="url(#0238cf7654)" d="M 151.574219 198.3125 L 151.574219 239.871094 L 198.507812 239.871094 L 198.507812 198.3125 Z M 151.574219 198.3125 " fill-rule="nonzero"/></g></g><path fill="#ffffff" d="M 97.558594 226.664062 L 98.441406 226.664062 C 98.605469 226.664062 98.761719 226.601562 98.875 226.484375 C 98.992188 226.367188 99.054688 226.210938 99.054688 226.050781 L 99.054688 222.003906 C 99.054688 221.839844 98.992188 221.683594 98.875 221.566406 C 98.761719 221.453125 98.605469 221.386719 98.441406 221.386719 L 97.558594 221.386719 C 97.398438 221.386719 97.242188 221.453125 97.125 221.566406 C 97.007812 221.683594 96.945312 221.839844 96.945312 222.003906 L 96.945312 226.050781 C 96.945312 226.210938 97.007812 226.367188 97.125 226.484375 C 97.242188 226.601562 97.398438 226.664062 97.558594 226.664062 Z M 97.558594 226.664062 " fill-opacity="1" fill-rule="nonzero"/><path fill="#ffffff" d="M 101.441406 218.835938 C 101.089844 218.835938 100.914062 219.011719 100.914062 219.890625 C 100.914062 220.726562 100.105469 221.398438 99.585938 221.746094 L 99.585938 226.105469 C 100.148438 226.367188 101.277344 226.753906 103.027344 226.753906 L 103.589844 226.753906 C 103.921875 226.753906 104.242188 226.636719 104.496094 226.421875 C 104.75 226.210938 104.921875 225.910156 104.976562 225.585938 L 105.371094 223.296875 C 105.40625 223.09375 105.394531 222.886719 105.34375 222.691406 C 105.289062 222.492188 105.191406 222.308594 105.0625 222.152344 C 104.929688 221.996094 104.765625 221.867188 104.578125 221.78125 C 104.390625 221.695312 104.1875 221.652344 103.984375 221.652344 L 102.324219 221.652344 C 102.507812 221.207031 102.601562 220.726562 102.585938 220.242188 C 102.585938 219.1875 101.792969 218.835938 101.441406 218.835938 Z M 101.441406 218.835938 " fill-opacity="1" fill-rule="nonzero"/><path fill="#ffffff" d="M 126.875 191.003906 C 122.207031 189.359375 118.421875 184.242188 118.421875 179.574219 C 118.421875 174.90625 122.207031 172.457031 126.875 174.101562 L 126.875 168.675781 C 119.332031 166.019531 113.21875 169.976562 113.21875 177.515625 C 113.21875 185.054688 119.332031 193.324219 126.875 195.984375 C 134.097656 198.53125 140.007812 195.003906 140.496094 188.078125 L 135.296875 186.246094 C 134.929688 190.445312 131.300781 192.5625 126.875 191.003906 Z M 126.875 191.003906 " fill-opacity="1" fill-rule="nonzero"/><path fill="#1c85e8" d="M 128.609375 167.554688 L 128.609375 172.980469 C 133.277344 174.625 137.0625 179.742188 137.0625 184.410156 C 137.0625 184.65625 137.050781 184.890625 137.03125 185.121094 L 142.230469 186.957031 C 142.25 186.648438 142.265625 186.339844 142.265625 186.023438 C 142.265625 178.480469 136.152344 170.214844 128.609375 167.554688 Z M 128.609375 167.554688 " fill-opacity="1" fill-rule="nonzero"/><path stroke-linecap="butt" transform="matrix(0.0524904, 0, 0, 0.0524807, 92.288083, 45.762636)" fill="none" stroke-linejoin="miter" d="M 658.918554 2767.51919 L 658.918554 2862.420198 " stroke="#ffffff" stroke-width="11.005" stroke-opacity="1" stroke-miterlimit="10"/><path stroke-linecap="butt" transform="matrix(0.0524904, 0, 0, 0.0524807, 92.288083, 45.762636)" fill="none" stroke-linejoin="miter" d="M 497.877289 2549.730682 L 398.752074 2514.747566 " stroke="#ffffff" stroke-width="11.005" stroke-opacity="1" stroke-miterlimit="10"/><path stroke-linecap="round" transform="matrix(0.0524904, 0, 0, 0.0524807, 92.288083, 45.762636)" fill="none" stroke-linejoin="miter" d="M 1076.10771 2564.46825 L 1260.06982 2599.451367 " stroke="#ffffff" stroke-width="46.988998" stroke-opacity="1" stroke-miterlimit="10"/><path stroke-linecap="round" transform="matrix(0.0524904, 0, 0, 0.0524807, 92.288083, 45.762636)" fill="none" stroke-linejoin="miter" d="M 1076.10771 2852.669584 L 1260.06982 2887.652701 " stroke="#ffffff" stroke-width="46.988998" stroke-opacity="0.4" stroke-miterlimit="10"/><path stroke-linecap="round" transform="matrix(0.0524904, 0, 0, 0.0524807, 92.288083, 45.762636)" fill="none" stroke-linejoin="miter" d="M 1076.10771 2711.546204 L 1340.367198 2761.713482 " stroke="#ffffff" stroke-width="46.988998" stroke-opacity="1" stroke-miterlimit="10"/><g clip-path="url(#5a4408323b)"><g clip-path="url(#dec371fb6b)"><path fill="url(#b2ed465b0e)" d="M 262.3125 49.546875 L 262.3125 127.808594 L 326.535156 127.808594 L 326.535156 49.546875 Z M 262.3125 49.546875 " fill-rule="nonzero"/></g></g><path fill="#ffffff" d="M 266.726562 84.917969 L 266.726562 111.105469 C 266.726562 111.335938 266.777344 111.558594 266.875 111.765625 C 266.976562 111.972656 267.117188 112.152344 267.296875 112.292969 C 267.472656 112.4375 267.683594 112.539062 267.902344 112.589844 C 268.125 112.640625 268.355469 112.640625 268.578125 112.59375 C 273.351562 111.523438 286.257812 108.433594 294.40625 104.589844 C 294.667969 104.46875 294.886719 104.273438 295.042969 104.027344 C 295.195312 103.785156 295.277344 103.503906 295.273438 103.214844 L 295.273438 77.710938 C 295.277344 77.457031 295.214844 77.203125 295.089844 76.980469 C 294.96875 76.757812 294.792969 76.566406 294.574219 76.429688 C 294.363281 76.292969 294.117188 76.210938 293.863281 76.191406 C 293.609375 76.175781 293.351562 76.222656 293.121094 76.328125 C 288.578125 78.417969 277.664062 82.988281 268.171875 83.398438 C 267.78125 83.417969 267.414062 83.585938 267.144531 83.867188 C 266.875 84.152344 266.726562 84.527344 266.726562 84.917969 Z M 266.726562 84.917969 " fill-opacity="1" fill-rule="nonzero"/><path fill="#1c85e8" d="M 267.90625 106.890625 L 267.90625 109.644531 C 267.90625 109.855469 267.953125 110.058594 268.046875 110.246094 C 268.140625 110.433594 268.273438 110.597656 268.441406 110.722656 C 268.605469 110.851562 268.796875 110.9375 269.003906 110.976562 C 269.207031 111.015625 269.417969 111.007812 269.621094 110.953125 L 283.898438 107.050781 C 284.121094 106.988281 284.328125 106.871094 284.492188 106.707031 C 284.660156 106.542969 284.78125 106.339844 284.84375 106.113281 C 284.90625 105.890625 284.914062 105.652344 284.859375 105.425781 C 284.804688 105.199219 284.691406 104.992188 284.535156 104.820312 L 276.878906 96.585938 C 276.742188 96.4375 276.574219 96.324219 276.386719 96.25 C 276.199219 96.175781 275.996094 96.144531 275.796875 96.15625 C 275.59375 96.171875 275.398438 96.230469 275.222656 96.328125 C 275.046875 96.425781 274.894531 96.5625 274.777344 96.726562 L 268.15625 106.109375 C 267.992188 106.339844 267.90625 106.613281 267.90625 106.890625 Z M 267.90625 106.890625 " fill-opacity="1" fill-rule="nonzero"/><path fill="#1c85e8" d="M 282.460938 100.429688 L 286.746094 104.976562 C 286.886719 105.121094 287.0625 105.222656 287.257812 105.269531 C 287.453125 105.3125 287.65625 105.296875 287.847656 105.222656 C 289.113281 104.730469 291.953125 103.613281 293.394531 102.992188 C 293.574219 102.914062 293.726562 102.785156 293.835938 102.621094 C 293.941406 102.457031 294 102.265625 294 102.070312 L 294 97.808594 C 294 97.59375 293.929688 97.378906 293.800781 97.207031 L 287.777344 89.140625 C 287.667969 88.996094 287.523438 88.882812 287.355469 88.8125 C 287.1875 88.742188 287.007812 88.71875 286.828125 88.746094 C 286.648438 88.769531 286.480469 88.84375 286.335938 88.957031 C 286.195312 89.070312 286.089844 89.21875 286.027344 89.386719 L 282.253906 99.382812 C 282.1875 99.5625 282.167969 99.753906 282.207031 99.9375 C 282.242188 100.121094 282.332031 100.292969 282.460938 100.429688 Z M 282.460938 100.429688 " fill-opacity="0.6" fill-rule="nonzero"/><path fill="#febb94" d="M 278.699219 93.332031 C 279.972656 93.332031 281 92.304688 281 91.035156 C 281 89.765625 279.972656 88.734375 278.699219 88.734375 C 277.429688 88.734375 276.402344 89.765625 276.402344 91.035156 C 276.402344 92.304688 277.429688 93.332031 278.699219 93.332031 Z M 278.699219 93.332031 " fill-opacity="1" fill-rule="nonzero"/><g clip-path="url(#136c9dfcf0)"><path stroke-linecap="round" transform="matrix(0.0524904, 0, 0, 0.0524807, 92.288083, 45.762636)" fill="none" stroke-linejoin="miter" d="M 3993.455064 566.113544 C 4105.90116 509.098508 4214.17983 444.11923 4317.323635 371.622303 " stroke="#ffffff" stroke-width="46.988998" stroke-opacity="1" stroke-miterlimit="10"/></g><g clip-path="url(#344b32abeb)"><path stroke-linecap="round" transform="matrix(0.0524904, 0, 0, 0.0524807, 92.288083, 45.762636)" fill="none" stroke-linejoin="miter" d="M 3993.455064 755.394534 C 3993.455064 755.394534 4067.203629 719.518232 4168.26372 658.111698 " stroke="#ffffff" stroke-width="46.988998" stroke-opacity="1" stroke-miterlimit="10"/></g><g clip-path="url(#be046ddab2)"><path stroke-linecap="round" transform="matrix(0.0524904, 0, 0, 0.0524807, 92.288083, 45.762636)" fill="none" stroke-linejoin="miter" d="M 3993.455064 940.507323 C 4105.90116 883.417854 4214.17983 818.438576 4317.323635 745.94165 " stroke="#ffffff" stroke-width="46.988998" stroke-opacity="1" stroke-miterlimit="10"/></g><g clip-path="url(#3556f11c95)"><path stroke-linecap="round" transform="matrix(0.0524904, 0, 0, 0.0524807, 92.288083, 45.762636)" fill="none" stroke-linejoin="miter" d="M 3993.455064 1148.247489 C 4105.90116 1091.232453 4214.17983 1026.178742 4317.323635 953.681816 " stroke="#ffffff" stroke-width="46.988998" stroke-opacity="1" stroke-miterlimit="10"/></g><path fill="#ffffff" d="M 270.007812 120.144531 C 271.167969 120.144531 272.109375 119.203125 272.109375 118.042969 C 272.109375 116.886719 271.167969 115.945312 270.007812 115.945312 C 268.847656 115.945312 267.90625 116.886719 267.90625 118.042969 C 267.90625 119.203125 268.847656 120.144531 270.007812 120.144531 Z M 270.007812 120.144531 " fill-opacity="1" fill-rule="nonzero"/><path fill="#ffffff" d="M 282.1875 116.746094 C 283.347656 116.746094 284.289062 115.804688 284.289062 114.648438 C 284.289062 113.488281 283.347656 112.546875 282.1875 112.546875 C 281.027344 112.546875 280.089844 113.488281 280.089844 114.648438 C 280.089844 115.804688 281.027344 116.746094 282.1875 116.746094 Z M 282.1875 116.746094 " fill-opacity="1" fill-rule="nonzero"/><path fill="#ffffff" d="M 293.175781 112.996094 C 294.335938 112.996094 295.273438 112.054688 295.273438 110.894531 C 295.273438 109.734375 294.335938 108.792969 293.175781 108.792969 C 292.015625 108.792969 291.074219 109.734375 291.074219 110.894531 C 291.074219 112.054688 292.015625 112.996094 293.175781 112.996094 Z M 293.175781 112.996094 " fill-opacity="1" fill-rule="nonzero"/></svg>