<svg width="565" height="167" viewBox="0 0 565 167" fill="none" xmlns="http://www.w3.org/2000/svg">
<path d="M248.71 88.1501V97.7062H217.458V60.1028H248.009V69.6789H229.919V74.0663H245.805V83.2017H229.919V88.1501H248.71Z" fill="#1D2D44"/>
<path d="M261.004 77.6124H277.111V86.7478H261.004V77.6124Z" fill="#1D2D44"/>
<path d="M310.071 98.5677C306.105 98.5677 302.524 97.7363 299.333 96.0835C296.153 94.4157 293.654 92.0868 291.841 89.0917C290.037 86.1017 289.136 82.711 289.136 78.9146C289.136 75.1081 290.037 71.7174 291.841 68.7374C293.654 65.7474 296.153 63.4184 299.333 61.7456C302.524 60.0778 306.105 59.2414 310.071 59.2414C313.727 59.2414 316.988 59.8925 319.848 61.1847C322.718 62.4668 325.082 64.33 326.94 66.7741L318.946 73.9061C316.607 70.9712 313.868 69.4987 310.732 69.4987C308.073 69.4987 305.934 70.3551 304.322 72.063C302.719 73.7609 301.918 76.0447 301.918 78.9146C301.918 81.7744 302.719 84.0582 304.322 85.7661C305.934 87.464 308.073 88.3104 310.732 88.3104C313.868 88.3104 316.607 86.8429 318.946 83.903L326.94 91.055C325.082 93.4891 322.718 95.3523 319.848 96.6444C316.988 97.9266 313.727 98.5677 310.071 98.5677Z" fill="#1D2D44"/>
<path d="M358.351 98.5677C354.304 98.5677 350.663 97.7263 347.432 96.0434C344.212 94.3606 341.688 92.0267 339.86 89.0316C338.041 86.0416 337.135 82.6709 337.135 78.9146C337.135 75.1482 338.041 71.7725 339.86 68.7775C341.688 65.7874 344.212 63.4485 347.432 61.7656C350.663 60.0828 354.304 59.2414 358.351 59.2414C362.398 59.2414 366.029 60.0828 369.249 61.7656C372.464 63.4485 374.989 65.7874 376.822 68.7775C378.65 71.7725 379.566 75.1482 379.566 78.9146C379.566 82.6709 378.65 86.0416 376.822 89.0316C374.989 92.0267 372.464 94.3606 369.249 96.0434C366.029 97.7263 362.398 98.5677 358.351 98.5677ZM358.351 88.3104C359.923 88.3104 361.346 87.9298 362.618 87.1685C363.885 86.3972 364.892 85.3003 365.643 83.8829C366.404 82.4706 366.785 80.8128 366.785 78.9146C366.785 77.0214 366.404 75.3636 365.643 73.9462C364.892 72.5338 363.885 71.437 362.618 70.6606C361.346 69.8893 359.923 69.4987 358.351 69.4987C356.773 69.4987 355.346 69.8893 354.063 70.6606C352.791 71.437 351.785 72.5338 351.038 73.9462C350.287 75.3636 349.916 77.0214 349.916 78.9146C349.916 80.8128 350.287 82.4706 351.038 83.8829C351.785 85.3003 352.791 86.3972 354.063 87.1685C355.346 87.9298 356.773 88.3104 358.351 88.3104Z" fill="#1D2D44"/>
<path d="M410.21 98.5676C404.44 98.5676 399.943 97.015 396.727 93.8998C393.507 90.7745 391.899 86.4021 391.899 80.7776V60.1028H404.561V80.417C404.561 83.1717 405.051 85.175 406.043 86.4272C407.03 87.6843 408.452 88.3103 410.31 88.3103C412.179 88.3103 413.601 87.6843 414.578 86.4272C415.564 85.175 416.06 83.1717 416.06 80.417V60.1028H428.521V80.7776C428.521 86.4021 426.908 90.7745 423.693 93.8998C420.472 97.015 415.98 98.5676 410.21 98.5676Z" fill="#1D2D44"/>
<path d="M458.474 88.2502H455.048V97.7062H442.366V60.1028H460.457C463.928 60.1028 466.953 60.6788 469.532 61.8257C472.107 62.9776 474.1 64.6254 475.502 66.774C476.905 68.9277 477.606 71.4319 477.606 74.2867C477.606 76.9712 476.99 79.3152 475.763 81.3185C474.546 83.3219 472.798 84.9196 470.514 86.1066L478.407 97.7062H464.864L458.474 88.2502ZM464.804 74.2867C464.804 72.8994 464.373 71.8175 463.522 71.0412C462.666 70.2699 461.378 69.8793 459.656 69.8793H455.048V78.6941H459.656C461.378 78.6941 462.666 78.3135 463.522 77.5522C464.373 76.7809 464.804 75.6891 464.804 74.2867Z" fill="#1D2D44"/>
<path d="M504.443 98.5677C501.318 98.5677 498.277 98.2171 495.327 97.5259C492.372 96.8197 489.948 95.8782 488.055 94.7012L492.142 85.4656C493.93 86.4973 495.933 87.3237 498.152 87.9498C500.366 88.5809 502.499 88.8914 504.543 88.8914C506.291 88.8914 507.538 88.7261 508.289 88.3905C509.051 88.0449 509.431 87.5291 509.431 86.8479C509.431 86.0616 508.935 85.4756 507.949 85.085C506.957 84.6843 505.344 84.2586 503.101 83.8028C500.186 83.1918 497.762 82.5357 495.828 81.8395C493.905 81.1333 492.222 79.9864 490.78 78.3937C489.347 76.806 488.636 74.6474 488.636 71.9228C488.636 69.5588 489.297 67.4152 490.619 65.4919C491.952 63.5587 493.935 62.0361 496.569 60.9242C499.199 59.8023 502.389 59.2414 506.146 59.2414C508.72 59.2414 511.254 59.5219 513.738 60.0828C516.233 60.6438 518.431 61.4601 520.33 62.5269L516.523 71.7024C512.837 69.8493 509.341 68.9177 506.045 68.9177C502.785 68.9177 501.157 69.709 501.157 71.2817C501.157 72.033 501.638 72.5989 502.6 72.9846C503.571 73.3602 505.169 73.7609 507.388 74.1866C510.243 74.7225 512.657 75.3385 514.62 76.0297C516.593 76.7259 518.311 77.8628 519.769 79.4354C521.221 81.0131 521.952 83.1617 521.952 85.8863C521.952 88.2503 521.281 90.3939 519.949 92.3172C518.627 94.2304 516.648 95.7529 514.019 96.8849C511.384 98.0067 508.194 98.5677 504.443 98.5677Z" fill="#1D2D44"/>
<path d="M565 88.1501V97.7062H533.747V60.1028H564.299V69.6789H546.208V74.0663H562.095V83.2017H546.208V88.1501H565Z" fill="#1D2D44"/>
<mask id="mask0_10_247" style="mask-type:luminance" maskUnits="userSpaceOnUse" x="18" y="0" width="126" height="54">
<path d="M18.2508 0H143.903V53.8157H18.2508V0Z" fill="white"/>
</mask>
<g mask="url(#mask0_10_247)">
<path d="M92.1704 51.1212L143.111 26.8402L90.9133 3.15031C84.1118 0.0450759 76.2786 0.115194 69.4772 3.28554L19.1623 26.8052L70.1032 51.1212C77.105 54.4568 85.1987 54.4568 92.1704 51.1212Z" fill="#007BFF"/>
</g>
<mask id="mask1_10_247" style="mask-type:luminance" maskUnits="userSpaceOnUse" x="0" y="34" width="164" height="133">
<path d="M0 34.5834H163.135V166.361H0V34.5834Z" fill="white"/>
</mask>
<g mask="url(#mask1_10_247)">
<path d="M152.828 115.079C151.636 114.914 150.414 115.114 149.292 115.54L120.283 127.004L91.4792 138.403C84.9682 140.978 77.701 140.978 71.195 138.368L28.7735 121.39C25.7985 120.102 22.7634 118.88 19.6882 117.754C19.4929 117.493 19.3576 117.293 19.1623 117.027C19.0922 112.074 19.1623 107.116 19.0922 102.162C19.2274 102.593 20.8802 103.184 22.528 103.68L56.2298 118.55C57.5169 119.141 58.8392 119.702 60.1263 120.268L62.5705 121.355V121.289C66.8326 123.007 71.1599 124.53 75.6525 125.652C82.9198 127.47 90.157 124.79 96.9634 122.446C116.091 115.74 133.465 104.641 152.262 97.1087C156.789 95.2906 161.748 92.3507 162.604 87.1319C163.2 84.1218 162.173 81.3171 160.355 79.1034C160.355 79.0683 160.325 79.0683 160.29 79.0383C155.567 72.6625 149.191 74.4756 147.574 75.0716C147.509 75.1066 147.439 75.1066 147.373 75.1367C147.243 75.1717 147.178 75.2068 147.178 75.2068C127.024 84.3572 107.271 94.6295 86.6561 102.558C83.055 103.75 79.1885 103.054 75.5523 102.393C55.9944 95.9518 38.2545 84.4524 18.6965 77.9114C18.8618 72.5273 19.1272 67.1432 19.0621 61.7591C21.0104 62.5204 22.8585 63.477 24.7417 64.3685C33.4664 68.6307 42.2863 72.6274 51.1061 76.6242C59.1347 80.2904 67.3285 85.1135 76.3136 85.7746C93.4575 87.0317 107.797 77.8462 122.662 70.8745C131.251 66.8477 140.141 63.3769 148.631 59.1147C153.98 56.6705 161.417 54.557 162.569 47.7505C162.935 45.4717 162.439 43.323 161.417 41.4399C158.672 36.3212 152.462 34.1426 146.913 35.8905C142.155 37.4131 137.827 39.9874 133.27 41.9057C128.016 44.1194 122.862 46.6587 117.643 49.0377C110.672 52.3433 103.635 55.4835 96.6329 58.6839C93.2271 60.2366 89.7913 62.2199 86.2554 63.2767C82.6543 64.3335 79.1234 63.7725 75.5223 62.9812C57.0512 55.9443 39.3113 46.859 21.4061 38.4348C18.1055 36.2561 13.643 34.999 9.54609 35.2945C4.09691 35.7252 0 40.4482 0 45.9324L0.560945 122.512C0.596005 127.169 3.07017 131.467 7.10197 133.776C11.86 136.52 18.8618 140.452 26.8903 144.649C26.9254 144.679 26.9905 144.714 27.0556 144.714C32.4747 147.323 38.0241 149.702 43.4432 152.342C48.9926 154.956 54.5119 157.661 60.1263 160.11C63.6623 161.497 67.2634 162.749 70.8945 163.841C74.2001 164.833 77.701 165.955 81.2019 166.02C85.6944 166.085 90.1219 164.502 94.1837 162.749C97.6546 161.232 101.055 159.644 104.491 158.127C104.526 158.127 104.561 158.092 104.591 158.092C108.192 156.474 111.828 154.856 115.43 153.238C119.426 151.45 123.388 149.667 127.39 147.884C131.186 146.166 135.018 144.484 138.819 142.766C141.889 141.378 144.994 140.021 148.07 138.634C149.888 137.842 151.671 137.016 153.484 136.225C153.719 136.124 153.98 135.989 154.215 135.894L154.711 135.659L154.776 135.729C158.572 133.745 162.339 131.001 162.87 126.543C163.43 119.506 158.607 115.905 152.828 115.079Z" fill="#007BFF"/>
</g>
</svg>
