<svg width="164" height="167" viewBox="0 0 164 167" fill="none" xmlns="http://www.w3.org/2000/svg">
<mask id="mask0_15_249" style="mask-type:luminance" maskUnits="userSpaceOnUse" x="18" y="0" width="126" height="54">
<path d="M18.2508 0H143.903V53.8157H18.2508V0Z" fill="white"/>
</mask>
<g mask="url(#mask0_15_249)">
<path d="M92.1704 51.1211L143.111 26.8402L90.9133 3.15025C84.1118 0.0450149 76.2786 0.115133 69.4772 3.28548L19.1624 26.8051L70.1032 51.1211C77.105 54.4567 85.1987 54.4567 92.1704 51.1211Z" fill="#007BFF"/>
</g>
<mask id="mask1_15_249" style="mask-type:luminance" maskUnits="userSpaceOnUse" x="0" y="34" width="164" height="133">
<path d="M0 34.5834H163.135V166.361H0V34.5834Z" fill="white"/>
</mask>
<g mask="url(#mask1_15_249)">
<path d="M152.828 115.079C151.636 114.914 150.414 115.114 149.292 115.54L120.283 127.004L91.4792 138.403C84.9682 140.978 77.701 140.978 71.195 138.368L28.7735 121.39C25.7985 120.102 22.7634 118.88 19.6882 117.753C19.4929 117.493 19.3576 117.293 19.1623 117.027C19.0922 112.074 19.1623 107.116 19.0922 102.162C19.2274 102.593 20.8802 103.184 22.528 103.68L56.2298 118.55C57.5169 119.141 58.8392 119.702 60.1263 120.268L62.5705 121.355V121.289C66.8326 123.007 71.1599 124.53 75.6525 125.652C82.9198 127.47 90.157 124.79 96.9634 122.446C116.091 115.74 133.465 104.641 152.262 97.1087C156.789 95.2906 161.748 92.3506 162.604 87.1318C163.2 84.1218 162.173 81.317 160.355 79.1033C160.355 79.0682 160.325 79.0682 160.29 79.0382C155.567 72.6624 149.191 74.4755 147.574 75.0715C147.509 75.1066 147.439 75.1066 147.373 75.1366C147.243 75.1717 147.178 75.2067 147.178 75.2067C127.024 84.3572 107.271 94.6295 86.6561 102.558C83.055 103.75 79.1885 103.054 75.5523 102.393C55.9944 95.9517 38.2545 84.4523 18.6965 77.9113C18.8618 72.5272 19.1272 67.1431 19.0621 61.7591C21.0104 62.5203 22.8585 63.477 24.7417 64.3685C33.4664 68.6306 42.2863 72.6274 51.1061 76.6241C59.1347 80.2903 67.3285 85.1134 76.3136 85.7745C93.4575 87.0317 107.797 77.8462 122.662 70.8744C131.251 66.8476 140.141 63.3768 148.631 59.1146C153.98 56.6705 161.417 54.5569 162.569 47.7504C162.935 45.4716 162.439 43.323 161.417 41.4398C158.672 36.3212 152.462 34.1425 146.913 35.8905C142.155 37.413 137.827 39.9874 133.27 41.9056C128.016 44.1193 122.862 46.6586 117.643 49.0376C110.672 52.3432 103.635 55.4835 96.6329 58.6839C93.2271 60.2365 89.7913 62.2198 86.2554 63.2766C82.6543 64.3334 79.1234 63.7725 75.5223 62.9811C57.0512 55.9443 39.3113 46.8589 21.4061 38.4347C18.1055 36.2561 13.643 34.999 9.54609 35.2944C4.09691 35.7252 0 40.4481 0 45.9324L0.560945 122.511C0.596005 127.169 3.07017 131.467 7.10197 133.775C11.86 136.52 18.8618 140.452 26.8903 144.649C26.9254 144.679 26.9905 144.714 27.0556 144.714C32.4747 147.323 38.0241 149.702 43.4432 152.342C48.9926 154.956 54.5119 157.661 60.1263 160.11C63.6623 161.497 67.2634 162.749 70.8945 163.841C74.2001 164.833 77.701 165.955 81.2019 166.02C85.6944 166.085 90.1219 164.502 94.1837 162.749C97.6546 161.232 101.055 159.644 104.491 158.127C104.526 158.127 104.561 158.091 104.591 158.091C108.192 156.474 111.828 154.856 115.43 153.238C119.426 151.45 123.388 149.667 127.39 147.884C131.186 146.166 135.018 144.484 138.819 142.766C141.889 141.378 144.994 140.021 148.07 138.634C149.888 137.842 151.671 137.016 153.484 136.225C153.719 136.124 153.98 135.989 154.215 135.894L154.711 135.659L154.776 135.729C158.572 133.745 162.339 131.001 162.87 126.543C163.43 119.506 158.607 115.905 152.828 115.079Z" fill="#007BFF"/>
</g>
</svg>
