<svg xmlns="http://www.w3.org/2000/svg" xmlns:xlink="http://www.w3.org/1999/xlink" width="500" zoomAndPan="magnify" viewBox="0 0 375 374.999991" height="500" preserveAspectRatio="xMidYMid meet" version="1.0"><defs><clipPath id="fa46a7ee52"><path d="M 39 24 L 335.949219 24 L 335.949219 353.277344 L 39 353.277344 Z M 39 24 " clip-rule="nonzero"/></clipPath><clipPath id="daec42bef1"><path d="M 39 104 L 316 104 L 316 353.277344 L 39 353.277344 Z M 39 104 " clip-rule="nonzero"/></clipPath><clipPath id="d4073527da"><path d="M 49 124 L 298 124 L 298 353.277344 L 49 353.277344 Z M 49 124 " clip-rule="nonzero"/></clipPath><clipPath id="c487b31be7"><path d="M 47 30 L 280 30 L 280 353.277344 L 47 353.277344 Z M 47 30 " clip-rule="nonzero"/></clipPath><clipPath id="edf33ea875"><path d="M 41 24 L 335.949219 24 L 335.949219 353 L 41 353 Z M 41 24 " clip-rule="nonzero"/></clipPath></defs><g clip-path="url(#fa46a7ee52)"><path fill="#c9e3ff" d="M 53.242188 269.71875 C 53.308594 269.765625 53.378906 269.8125 53.445312 269.851562 C 53.710938 270.019531 53.984375 270.167969 54.265625 270.308594 C 54.355469 270.347656 54.441406 270.394531 54.527344 270.433594 C 54.824219 270.574219 55.125 270.703125 55.429688 270.808594 C 55.484375 270.828125 55.546875 270.84375 55.605469 270.863281 C 55.894531 270.964844 56.1875 271.042969 56.480469 271.117188 C 56.546875 271.128906 56.617188 271.152344 56.683594 271.164062 C 57.015625 271.238281 57.359375 271.296875 57.707031 271.339844 C 57.78125 271.34375 57.859375 271.351562 57.933594 271.363281 C 58.296875 271.40625 58.664062 271.425781 59.039062 271.425781 L 197.820312 271.425781 C 198.3125 271.425781 198.785156 271.398438 199.265625 271.359375 C 199.421875 271.34375 199.570312 271.324219 199.722656 271.3125 C 200.050781 271.277344 200.371094 271.238281 200.691406 271.183594 C 200.867188 271.15625 201.035156 271.125 201.203125 271.089844 C 201.507812 271.03125 201.816406 270.964844 202.117188 270.882812 C 202.277344 270.84375 202.433594 270.808594 202.59375 270.761719 C 203 270.648438 203.410156 270.523438 203.804688 270.382812 C 203.964844 270.320312 204.125 270.253906 204.285156 270.195312 C 204.566406 270.085938 204.847656 269.972656 205.121094 269.847656 C 205.328125 269.753906 205.523438 269.652344 205.722656 269.550781 C 205.925781 269.453125 206.121094 269.351562 206.3125 269.242188 C 206.535156 269.125 206.75 269.003906 206.957031 268.875 C 207.117188 268.78125 207.269531 268.683594 207.425781 268.582031 C 207.660156 268.433594 207.886719 268.285156 208.105469 268.125 C 208.105469 268.125 208.105469 268.125 208.113281 268.125 C 208.714844 267.699219 209.292969 267.222656 209.832031 266.722656 C 209.878906 266.675781 209.933594 266.632812 209.980469 266.585938 C 210.226562 266.351562 210.460938 266.113281 210.695312 265.863281 C 210.757812 265.804688 210.816406 265.738281 210.871094 265.675781 C 211.109375 265.417969 211.339844 265.15625 211.558594 264.882812 C 211.578125 264.855469 211.597656 264.828125 211.621094 264.800781 C 212.515625 263.691406 213.285156 262.472656 213.894531 261.160156 C 214.136719 260.640625 214.351562 260.105469 214.542969 259.554688 C 214.628906 259.3125 214.710938 259.074219 214.785156 258.832031 C 214.839844 258.664062 214.886719 258.492188 214.933594 258.316406 C 215.050781 257.882812 215.160156 257.441406 215.246094 256.984375 L 217.433594 245.53125 L 219.898438 232.636719 L 232.1875 168.320312 C 233.441406 161.769531 228.421875 155.699219 221.75 155.699219 L 126.125 155.699219 C 125.816406 155.269531 125.488281 154.863281 125.148438 154.496094 C 122.21875 151.316406 118.484375 150.125 114.769531 151.070312 C 112.707031 145.734375 104.070312 128.566406 78.730469 131.015625 C 48.792969 133.90625 38.929688 162.484375 42.164062 175.410156 C 43.976562 182.660156 44.773438 193.425781 46.886719 203.855469 L 40.589844 208.085938 C 38.949219 209.191406 38.9375 211.597656 40.5625 212.714844 L 48.886719 218.445312 C 52.921875 221.214844 54.921875 226.117188 53.992188 230.921875 L 48.59375 258.765625 C 48.105469 261.273438 48.546875 263.710938 49.636719 265.765625 C 49.765625 266 49.898438 266.234375 50.042969 266.460938 C 50.125 266.585938 50.207031 266.707031 50.292969 266.828125 C 50.414062 267.003906 50.539062 267.175781 50.671875 267.34375 C 50.78125 267.484375 50.894531 267.617188 51.015625 267.75 C 51.148438 267.914062 51.296875 268.066406 51.4375 268.214844 C 51.53125 268.308594 51.617188 268.402344 51.710938 268.488281 C 51.917969 268.6875 52.132812 268.875 52.359375 269.054688 C 52.445312 269.128906 52.539062 269.195312 52.628906 269.265625 C 52.828125 269.4375 53.035156 269.578125 53.242188 269.71875 Z M 124.296875 155.296875 C 124.425781 155.429688 124.539062 155.578125 124.660156 155.71875 L 118.15625 155.71875 C 117.246094 154.722656 116.296875 153.652344 115.285156 152.554688 C 115.265625 152.480469 115.226562 152.359375 115.171875 152.191406 C 118.429688 151.417969 121.714844 152.488281 124.296875 155.296875 Z M 305.472656 287.859375 C 298.667969 297.722656 296.625 304.019531 297.132812 306.742188 C 297.335938 307.824219 295.703125 308.066406 293.328125 307.042969 L 298.359375 310.320312 C 300.039062 311.414062 300.03125 313.875 298.34375 314.957031 L 284.019531 324.160156 C 281.746094 325.617188 280.164062 327.953125 279.648438 330.609375 L 278.203125 338.128906 L 277.789062 340.296875 C 276.363281 347.699219 269.886719 353.046875 262.351562 353.046875 L 122.59375 353.046875 C 122.277344 353.046875 121.96875 353.027344 121.667969 352.992188 C 121.527344 352.980469 121.386719 352.953125 121.246094 352.933594 C 121.101562 352.910156 120.960938 352.886719 120.8125 352.859375 C 120.625 352.816406 120.445312 352.777344 120.261719 352.722656 C 120.183594 352.703125 120.109375 352.675781 120.027344 352.65625 C 119.816406 352.589844 119.609375 352.523438 119.398438 352.449219 C 115.773438 351.058594 113.363281 347.363281 113.765625 343.316406 L 98.964844 318.820312 L 117.332031 324.519531 L 124.132812 289.191406 C 125.554688 281.789062 132.035156 276.445312 139.566406 276.445312 L 212.878906 276.445312 C 215.679688 271.332031 218.953125 266.855469 221.785156 261.375 C 223.054688 258.917969 224.6875 256.304688 226.75 253.867188 C 228.554688 247.777344 237.394531 240.746094 255.273438 239.902344 C 266.816406 239.359375 277.09375 245.019531 283.402344 253.625 C 286.214844 251.546875 291.582031 248.976562 299.324219 251.296875 C 311.261719 254.863281 312.277344 277.996094 305.472656 287.859375 Z M 334.640625 112.558594 L 321.355469 121.085938 C 318.425781 122.964844 316.390625 125.96875 315.734375 129.390625 L 314.011719 138.347656 C 312.585938 145.75 306.109375 151.09375 298.574219 151.09375 L 260.78125 151.09375 C 260.859375 151.210938 260.90625 151.269531 260.90625 151.269531 C 260.480469 150.839844 238.625 151.4375 238.625 151.4375 C 238.625 151.4375 227.054688 153.984375 225.867188 153.644531 C 224.96875 153.390625 226.472656 152.078125 227.277344 151.445312 C 227.257812 151.417969 227.230469 151.390625 227.21875 151.355469 C 227.203125 151.328125 227.203125 151.296875 227.191406 151.261719 C 225.871094 151.65625 222.558594 152.519531 222.292969 151.4375 C 222.265625 151.324219 222.277344 151.210938 222.304688 151.089844 L 158.8125 151.089844 C 158.503906 151.089844 158.195312 151.070312 157.902344 151.035156 C 157.820312 151.027344 157.746094 151.015625 157.667969 151.007812 C 157.386719 150.976562 157.113281 150.929688 156.84375 150.867188 C 156.824219 150.863281 156.804688 150.863281 156.785156 150.855469 C 156.511719 150.789062 156.234375 150.707031 155.96875 150.621094 C 155.882812 150.59375 155.800781 150.558594 155.714844 150.535156 C 155.5 150.453125 155.292969 150.367188 155.085938 150.273438 C 155.011719 150.238281 154.929688 150.207031 154.855469 150.164062 C 154.648438 150.058594 154.441406 149.945312 154.25 149.824219 C 154.148438 149.765625 154.046875 149.695312 153.949219 149.636719 C 153.8125 149.550781 153.679688 149.457031 153.550781 149.355469 C 153.390625 149.234375 153.238281 149.113281 153.089844 148.988281 C 152.984375 148.894531 152.871094 148.800781 152.769531 148.707031 C 152.65625 148.601562 152.550781 148.492188 152.441406 148.378906 C 152.375 148.304688 152.308594 148.238281 152.242188 148.164062 C 152.027344 147.925781 151.828125 147.675781 151.632812 147.414062 C 151.605469 147.375 151.578125 147.339844 151.550781 147.300781 C 151.445312 147.148438 151.34375 146.992188 151.25 146.832031 C 151.21875 146.785156 151.191406 146.734375 151.164062 146.679688 C 150.96875 146.34375 150.789062 145.996094 150.640625 145.640625 C 150.640625 145.640625 150.640625 145.640625 150.640625 145.636719 C 150.453125 145.179688 150.300781 144.710938 150.1875 144.222656 L 145.074219 127.804688 L 152.179688 129.796875 L 160.371094 87.242188 C 161.796875 79.839844 168.273438 74.492188 175.808594 74.492188 L 214.75 74.492188 C 214.429688 69.046875 218.277344 66.476562 218.277344 66.476562 C 218.277344 66.476562 217.996094 64.441406 217.964844 61.371094 C 217.582031 60.128906 216.035156 54.695312 216.644531 50.625 C 210.355469 46.183594 214.699219 35.230469 219.917969 32.039062 C 226.039062 28.296875 229.105469 31.527344 234.203125 29.65625 C 239.308594 27.78125 246.449219 22 252.570312 26.589844 C 258.691406 31.179688 271.277344 27.78125 275.019531 35.09375 C 278.761719 42.410156 276.894531 44.625 281.316406 49.894531 C 284.167969 53.296875 282.601562 64.765625 277.761719 74.488281 L 315.5625 74.488281 C 321.128906 74.488281 325.316406 79.558594 324.269531 85.03125 L 322.96875 91.785156 C 322.152344 96.011719 323.546875 100.289062 326.53125 103.238281 C 326.804688 103.515625 327.097656 103.773438 327.398438 104.023438 C 327.445312 104.0625 327.484375 104.097656 327.53125 104.136719 C 327.847656 104.390625 328.175781 104.632812 328.515625 104.851562 L 334.644531 108.847656 C 335.996094 109.714844 335.992188 111.695312 334.640625 112.558594 Z M 334.640625 112.558594 " fill-opacity="1" fill-rule="nonzero"/></g><g clip-path="url(#daec42bef1)"><path fill="#007bff" d="M 315.101562 132.703125 L 314.011719 138.355469 C 312.585938 145.757812 306.109375 151.101562 298.574219 151.101562 L 197.375 151.101562 C 199.054688 146.945312 202.464844 139.398438 207.101562 133.664062 C 213.835938 125.328125 247.171875 110.90625 247.171875 110.90625 L 263.839844 106.097656 C 263.839844 106.097656 293.007812 116.03125 302.621094 120.84375 C 308.675781 123.867188 312.566406 127.664062 315.101562 132.703125 Z M 229.820312 323.234375 C 211.230469 323.558594 195.839844 325.15625 186.546875 332.53125 C 179.433594 338.171875 168.191406 348.507812 163.308594 353.046875 L 262.359375 353.046875 C 269.894531 353.046875 276.371094 347.699219 277.796875 340.296875 L 278.210938 338.128906 L 250.335938 322.59375 C 250.335938 322.59375 248.410156 322.914062 229.820312 323.234375 Z M 158.8125 151.101562 L 160.597656 151.101562 C 176.136719 149.628906 185.625 141.613281 185.625 141.613281 C 182.5 133.792969 175.929688 132.234375 175.929688 132.234375 C 180.617188 128.480469 183.4375 118.785156 183.4375 118.785156 C 175.304688 115.03125 166.234375 118.46875 166.234375 118.46875 C 168.421875 110.960938 165.296875 104.703125 165.296875 104.703125 C 161.523438 106.257812 158.371094 108.597656 155.746094 111.269531 L 150.113281 140.558594 C 149.054688 146.03125 153.246094 151.101562 158.8125 151.101562 Z M 197.816406 271.4375 L 59.03125 271.4375 C 52.351562 271.4375 47.328125 265.347656 48.597656 258.792969 L 54 230.949219 C 54.929688 226.144531 52.929688 221.246094 48.894531 218.46875 L 40.570312 212.742188 C 38.945312 211.625 38.957031 209.210938 40.597656 208.113281 L 56.855469 197.191406 C 59.574219 195.363281 61.453125 192.535156 62.074219 189.324219 L 65.804688 170.113281 C 67.421875 161.761719 74.734375 155.726562 83.242188 155.726562 L 221.785156 155.726562 C 228.453125 155.726562 233.472656 161.796875 232.222656 168.347656 L 215.265625 257.003906 C 213.667969 265.382812 206.339844 271.4375 197.816406 271.4375 Z M 212.503906 167.691406 C 212.503906 167.367188 212.242188 167.109375 211.921875 167.109375 L 205.457031 167.109375 C 205.203125 167.109375 204.980469 167.269531 204.910156 167.507812 C 204.875 167.617188 204.050781 170.171875 203.710938 171.449219 C 203.601562 171.84375 203.765625 172.105469 203.871094 172.226562 C 204.253906 172.660156 204.914062 172.582031 206.027344 172.449219 C 207.636719 172.246094 209.851562 171.980469 210.757812 173.4375 C 211.367188 174.429688 211.21875 175.765625 210.375 176.929688 C 209.265625 178.46875 206.800781 179.808594 203.222656 178.945312 C 202.914062 178.871094 202.601562 179.058594 202.527344 179.371094 C 202.453125 179.6875 202.640625 179.996094 202.953125 180.070312 C 203.824219 180.277344 204.640625 180.371094 205.398438 180.371094 C 208.242188 180.371094 210.269531 179.058594 211.320312 177.605469 C 212.441406 176.054688 212.609375 174.21875 211.746094 172.820312 C 210.457031 170.734375 207.707031 171.070312 205.890625 171.289062 C 205.585938 171.328125 205.210938 171.375 204.941406 171.382812 C 205.222656 170.398438 205.679688 168.953125 205.898438 168.257812 L 211.941406 168.257812 C 212.242188 168.273438 212.503906 168.011719 212.503906 167.691406 Z M 218.109375 181.238281 C 218.21875 181.328125 218.34375 181.367188 218.472656 181.367188 C 218.640625 181.367188 218.804688 181.292969 218.925781 181.152344 C 225.75 172.667969 221.382812 165.992188 221.335938 165.921875 C 221.15625 165.65625 220.800781 165.589844 220.53125 165.769531 C 220.265625 165.949219 220.199219 166.304688 220.371094 166.574219 C 220.53125 166.8125 224.285156 172.636719 218.023438 180.429688 C 217.816406 180.671875 217.855469 181.039062 218.109375 181.238281 Z M 150.546875 164.925781 C 150.339844 164.6875 149.972656 164.660156 149.730469 164.871094 C 149.652344 164.941406 142.058594 171.777344 148.328125 183.441406 C 148.433594 183.636719 148.628906 183.75 148.835938 183.75 C 148.929688 183.75 149.023438 183.730469 149.109375 183.683594 C 149.390625 183.527344 149.496094 183.179688 149.34375 182.898438 C 143.523438 172.066406 150.207031 166.003906 150.488281 165.75 C 150.734375 165.535156 150.761719 165.167969 150.546875 164.925781 Z M 162.597656 168.414062 C 162.492188 168.238281 162.304688 168.132812 162.105469 168.132812 L 153.597656 168.132812 C 153.277344 168.132812 153.015625 168.390625 153.015625 168.714844 C 153.015625 169.035156 153.277344 169.296875 153.597656 169.296875 L 161.152344 169.296875 L 155.640625 179.929688 C 155.492188 180.210938 155.605469 180.5625 155.886719 180.710938 C 155.976562 180.757812 156.0625 180.777344 156.15625 180.777344 C 156.363281 180.777344 156.570312 180.664062 156.671875 180.464844 L 162.625 168.980469 C 162.714844 168.800781 162.707031 168.578125 162.597656 168.414062 Z M 175.265625 174.320312 C 175.265625 174 175.003906 173.738281 174.683594 173.738281 L 171.503906 173.738281 L 171.847656 171.785156 C 171.898438 171.46875 171.691406 171.167969 171.378906 171.117188 C 171.0625 171.0625 170.761719 171.269531 170.710938 171.585938 L 170.328125 173.738281 L 167.363281 173.738281 C 167.042969 173.738281 166.78125 174 166.78125 174.320312 C 166.78125 174.640625 167.042969 174.902344 167.363281 174.902344 L 170.121094 174.902344 L 169.597656 177.878906 C 169.542969 178.195312 169.753906 178.496094 170.066406 178.550781 C 170.101562 178.558594 170.132812 178.558594 170.167969 178.558594 C 170.441406 178.558594 170.6875 178.355469 170.734375 178.074219 L 171.292969 174.898438 L 174.671875 174.898438 C 175.003906 174.902344 175.265625 174.640625 175.265625 174.320312 Z M 190.179688 167.714844 C 189.871094 167.648438 189.558594 167.851562 189.5 168.164062 L 188.054688 175.015625 L 182.058594 175.015625 L 185.308594 168.277344 C 185.449219 167.992188 185.328125 167.644531 185.042969 167.503906 C 184.753906 167.363281 184.40625 167.484375 184.265625 167.769531 L 180.605469 175.339844 C 180.519531 175.519531 180.53125 175.726562 180.640625 175.898438 C 180.746094 176.066406 180.933594 176.175781 181.128906 176.175781 L 187.796875 176.175781 L 186.855469 180.664062 C 186.789062 180.980469 186.988281 181.285156 187.304688 181.355469 C 187.34375 181.359375 187.382812 181.367188 187.425781 181.367188 C 187.691406 181.367188 187.933594 181.179688 187.992188 180.90625 L 188.988281 176.167969 C 189.289062 176.148438 189.53125 175.898438 189.53125 175.59375 C 189.53125 175.371094 189.398438 175.175781 189.21875 175.082031 L 190.628906 168.398438 C 190.695312 168.089844 190.496094 167.785156 190.179688 167.714844 Z M 197.261719 180.429688 L 202.164062 162.238281 L 215.5 162.238281 C 215.820312 162.238281 216.082031 161.976562 216.082031 161.65625 C 216.082031 161.332031 215.820312 161.074219 215.5 161.074219 L 201.722656 161.074219 C 201.460938 161.074219 201.234375 161.246094 201.160156 161.5 L 196.390625 179.21875 L 194.789062 177.800781 C 194.550781 177.585938 194.1875 177.605469 193.976562 177.847656 C 193.761719 178.089844 193.78125 178.449219 194.023438 178.664062 L 196.316406 180.703125 C 196.421875 180.796875 196.5625 180.851562 196.699219 180.851562 C 196.75 180.851562 196.8125 180.84375 196.867188 180.824219 C 197.058594 180.769531 197.207031 180.625 197.261719 180.429688 Z M 197.261719 180.429688 " fill-opacity="1" fill-rule="nonzero"/></g><g clip-path="url(#d4073527da)"><path fill="#89bdf5" d="M 188.957031 322.050781 L 207.914062 353.046875 L 122.59375 353.046875 C 121.460938 353.046875 120.398438 352.824219 119.40625 352.449219 L 113.773438 343.316406 L 98.972656 318.820312 L 117.339844 324.519531 L 135.714844 329.707031 Z M 215.265625 257.003906 L 219.921875 232.65625 C 209.652344 222.238281 190.769531 206.238281 171.164062 205.589844 C 141.996094 204.625 109.9375 211.355469 109.9375 211.355469 C 109.9375 211.355469 70.835938 232.515625 61.855469 245.335938 C 56.421875 253.105469 52.160156 260.859375 49.648438 265.777344 C 51.417969 269.101562 54.910156 271.433594 59.039062 271.433594 L 197.820312 271.433594 C 206.339844 271.4375 213.667969 265.382812 215.265625 257.003906 Z M 188.28125 140.730469 L 152.179688 129.796875 L 145.074219 127.804688 L 150.1875 144.238281 L 150.640625 145.648438 C 151.964844 148.808594 155.078125 151.101562 158.820312 151.101562 L 243.289062 151.101562 L 231.820312 124.402344 Z M 218.917969 311.179688 C 219.261719 316.457031 220.085938 320.011719 220.085938 320.011719 C 206.988281 309.804688 194.402344 308.957031 194.402344 308.957031 C 192.597656 316.390625 193.976562 323.496094 195.265625 327.78125 C 203.878906 324.566406 215.058594 323.5625 227.867188 323.277344 L 228.976562 318.453125 L 230.460938 312.019531 C 230.460938 312.015625 225.089844 312.269531 218.917969 311.179688 Z M 274.859375 323.917969 C 277.9375 316.523438 277.796875 306.84375 277.199219 300.324219 C 276.03125 301.363281 274.933594 302.210938 274.007812 302.828125 C 268.394531 306.566406 255.78125 311.371094 255.78125 311.371094 C 253.566406 315.253906 253.507812 322.488281 253.527344 324.375 L 278.203125 338.128906 L 279.648438 330.609375 C 280.160156 327.953125 281.738281 325.625 284.019531 324.160156 L 297.992188 315.1875 C 283.398438 316.605469 274.859375 323.917969 274.859375 323.917969 Z M 274.859375 323.917969 " fill-opacity="1" fill-rule="nonzero"/></g><g clip-path="url(#c487b31be7)"><path fill="#fcb29f" d="M 214.75 74.492188 C 214.429688 69.046875 218.277344 66.476562 218.277344 66.476562 C 218.277344 66.476562 215.074219 43.398438 228.855469 35.0625 C 242.640625 26.722656 267.652344 30.148438 275.027344 46.496094 C 282.398438 62.84375 271.808594 76.414062 267.003906 87.3125 C 262.191406 98.214844 272.128906 109.113281 272.128906 109.113281 C 272.128906 109.113281 257.382812 120.972656 242.320312 113.605469 L 242.320312 103.667969 C 242.320312 103.667969 223.730469 106.550781 219.5625 81.554688 C 219.5625 81.539062 215.074219 79.941406 214.75 74.492188 Z M 183.34375 337.976562 C 179.171875 339.582031 181.734375 341.183594 181.734375 341.183594 C 181.734375 341.183594 179.171875 343.421875 183.019531 345.351562 C 183.019531 345.351562 180.136719 348.234375 183.664062 349.519531 C 183.664062 349.519531 181.917969 351.058594 183.128906 353.046875 L 230.703125 353.046875 C 224.941406 349.367188 208.386719 338.859375 204.179688 337.019531 C 199.046875 334.773438 187.503906 336.378906 183.34375 337.976562 Z M 255.460938 244.699219 C 236.550781 240.53125 226.613281 252.074219 221.804688 261.367188 C 216.992188 270.664062 210.902344 277.074219 208.019531 288.613281 C 205.136719 300.15625 209.625 309.128906 216.671875 310.730469 C 223.722656 312.335938 230.457031 312.015625 230.457031 312.015625 L 227.570312 324.515625 C 241.035156 329.324219 253.535156 324.835938 253.535156 324.835938 C 253.535156 324.835938 253.210938 315.863281 255.777344 311.371094 C 258.339844 306.882812 273.085938 302.398438 278.210938 285.410156 C 283.351562 268.421875 274.371094 248.867188 255.460938 244.699219 Z M 138.609375 184.613281 C 135.210938 172.535156 129.9375 165.222656 123.300781 160.628906 C 116.671875 156.039062 108.839844 140.558594 91.832031 138.515625 C 74.824219 136.476562 52.199219 145.664062 47.949219 170.835938 C 43.695312 196.007812 62.75 210.46875 79.761719 211.660156 C 96.769531 212.847656 96.769531 212.847656 96.769531 212.847656 L 100.167969 221.695312 C 100.167969 221.695312 132.3125 228.667969 135.378906 211.660156 C 135.378906 211.660156 133.847656 207.402344 133.503906 206.042969 C 133.164062 204.6875 142.011719 196.691406 138.609375 184.613281 Z M 197.816406 271.4375 C 204.582031 271.4375 210.582031 267.617188 213.574219 261.855469 L 206.308594 231.734375 C 206.308594 231.734375 210.222656 225.101562 215.660156 219.144531 C 221.101562 213.191406 224.675781 201.796875 225.867188 197.882812 C 227.054688 193.964844 225.523438 191.757812 225.523438 191.757812 C 226.882812 188.359375 225.183594 186.996094 225.183594 186.996094 C 226.03125 182.402344 222.976562 183.078125 222.976562 183.078125 C 222.976562 183.078125 222.464844 180.1875 219.742188 182.570312 C 217.019531 184.953125 206.472656 198.898438 206.472656 198.898438 L 197.460938 204.851562 C 197.460938 204.851562 201.035156 197.882812 203.074219 194.140625 C 205.117188 190.398438 202.566406 189.550781 199.335938 192.609375 C 196.101562 195.671875 184.367188 207.410156 181.644531 223.226562 C 179.292969 236.878906 181.503906 264.199219 182.15625 271.4375 Z M 225.871094 153.660156 C 227.0625 154 238.632812 151.449219 238.632812 151.449219 C 238.632812 151.449219 260.492188 150.855469 260.914062 151.28125 C 260.914062 151.28125 250.535156 136.996094 247.988281 134.957031 C 245.4375 132.914062 235.226562 136.148438 227.0625 139.71875 C 218.898438 143.292969 218.390625 144.484375 218.898438 145.5 C 219.410156 146.527344 224.003906 145.5 224.003906 145.5 C 224.003906 145.5 220.265625 147.203125 220.605469 148.390625 C 220.949219 149.582031 226.046875 148.734375 226.046875 148.734375 C 226.046875 148.734375 221.964844 150.09375 222.304688 151.457031 C 222.648438 152.816406 227.746094 151.117188 227.746094 151.117188 C 227.746094 151.117188 224.679688 153.316406 225.871094 153.660156 Z M 225.871094 153.660156 " fill-opacity="1" fill-rule="nonzero"/></g><g clip-path="url(#edf33ea875)"><path fill="#000000" d="M 97.398438 177.238281 C 97.398438 178.207031 96.609375 179 95.640625 179 C 94.667969 179 93.878906 178.207031 93.878906 177.238281 C 93.878906 176.269531 94.667969 175.480469 95.640625 175.480469 C 96.609375 175.480469 97.398438 176.269531 97.398438 177.238281 Z M 195.421875 212.554688 C 195.472656 212.574219 195.535156 212.582031 195.585938 212.582031 C 195.835938 212.582031 196.0625 212.421875 196.144531 212.171875 L 198.183594 205.542969 C 198.277344 205.234375 198.101562 204.914062 197.800781 204.820312 C 197.5 204.726562 197.171875 204.898438 197.078125 205.203125 L 195.039062 211.832031 C 194.945312 212.132812 195.117188 212.460938 195.421875 212.554688 Z M 189.757812 148.894531 C 189.847656 149.136719 190.066406 149.28125 190.308594 149.28125 C 190.367188 149.28125 190.433594 149.269531 190.5 149.25 C 190.804688 149.140625 190.964844 148.8125 190.855469 148.511719 L 188.675781 142.28125 C 188.566406 141.980469 188.242188 141.820312 187.9375 141.929688 C 187.636719 142.035156 187.476562 142.363281 187.585938 142.664062 Z M 210.902344 200.164062 C 211.050781 200.164062 211.191406 200.109375 211.304688 200.003906 C 211.527344 199.789062 216.683594 194.769531 218.578125 190.46875 C 220.386719 186.351562 222.378906 184.003906 222.398438 183.976562 C 222.605469 183.734375 222.578125 183.367188 222.339844 183.160156 C 222.097656 182.953125 221.730469 182.980469 221.523438 183.21875 C 221.4375 183.320312 219.402344 185.714844 217.519531 190 C 215.722656 194.09375 210.554688 199.117188 210.503906 199.171875 C 210.273438 199.394531 210.269531 199.761719 210.488281 199.988281 C 210.597656 200.101562 210.75 200.164062 210.902344 200.164062 Z M 101.308594 174.898438 C 101.011719 175.023438 100.871094 175.359375 101 175.652344 C 101.011719 175.6875 102.289062 178.765625 101.816406 181.628906 C 101.761719 181.941406 101.976562 182.242188 102.289062 182.296875 C 102.324219 182.304688 102.355469 182.304688 102.382812 182.304688 C 102.664062 182.304688 102.90625 182.101562 102.953125 181.820312 C 103.480469 178.628906 102.125 175.34375 102.0625 175.210938 C 101.941406 174.910156 101.601562 174.769531 101.308594 174.898438 Z M 110.03125 164.652344 C 110.03125 165.621094 110.820312 166.410156 111.792969 166.410156 C 112.761719 166.410156 113.550781 165.621094 113.550781 164.652344 C 113.550781 163.683594 112.761719 162.890625 111.792969 162.890625 C 110.820312 162.890625 110.03125 163.683594 110.03125 164.652344 Z M 247.914062 65.546875 C 241.570312 62.203125 236.171875 65.425781 235.941406 65.566406 C 235.667969 65.734375 235.582031 66.089844 235.75 66.363281 C 235.914062 66.636719 236.269531 66.71875 236.542969 66.558594 C 236.589844 66.523438 241.601562 63.535156 247.371094 66.578125 C 247.457031 66.625 247.550781 66.644531 247.640625 66.644531 C 247.847656 66.644531 248.046875 66.53125 248.152344 66.335938 C 248.300781 66.050781 248.195312 65.695312 247.914062 65.546875 Z M 102.550781 225.945312 C 96.9375 231.558594 65.46875 239.378906 55.4375 225.945312 C 45.40625 212.507812 45.402344 188.351562 42.167969 175.425781 C 38.9375 162.496094 48.800781 133.917969 78.738281 131.027344 C 104.078125 128.578125 112.714844 145.75 114.777344 151.082031 C 118.484375 150.140625 122.222656 151.328125 125.15625 154.507812 C 128.515625 158.15625 130.433594 164.570312 127.363281 169.277344 C 124.058594 174.347656 119.796875 175.304688 117.050781 175.304688 C 116.140625 175.304688 115.40625 175.199219 114.917969 175.105469 C 114.917969 175.914062 114.710938 176.675781 114.480469 177.191406 C 114.386719 177.40625 114.175781 177.53125 113.953125 177.53125 C 113.875 177.53125 113.792969 177.519531 113.71875 177.484375 C 113.425781 177.359375 113.296875 177.019531 113.425781 176.722656 C 113.472656 176.617188 114.542969 174.121094 112.648438 173.035156 C 111.015625 172.105469 109.042969 171.082031 107.984375 170.539062 C 106.761719 170.957031 106.414062 171.269531 106.339844 171.34375 C 106.304688 171.449219 106.238281 171.542969 106.152344 171.617188 C 108.273438 175.203125 109.9375 182.679688 102.917969 188.292969 C 100.328125 190.367188 97.058594 191.464844 93.710938 191.464844 C 92.441406 191.464844 91.164062 191.304688 89.898438 190.980469 C 85.675781 189.898438 82.34375 187.101562 80.765625 183.300781 C 79.117188 179.347656 79.558594 174.898438 81.976562 171.082031 C 84.25 167.488281 87.957031 165.152344 91.652344 164.980469 C 97.574219 164.707031 102.644531 166.785156 105.46875 170.585938 C 105.738281 170.28125 106.230469 169.984375 106.925781 169.699219 C 106.914062 169.605469 106.925781 169.503906 106.96875 169.410156 C 105.863281 166.566406 103.035156 157.050781 112.152344 152.121094 C 112.488281 151.9375 112.828125 151.777344 113.171875 151.632812 C 107.34375 149 90.933594 142.082031 79.765625 142.082031 C 79.765625 142.082031 80.449219 182.222656 75.34375 191.917969 L 70.921875 189.027344 C 70.921875 189.027344 64.289062 193.960938 69.046875 201.273438 C 73.8125 208.585938 77.386719 207.394531 90.480469 206.378906 C 103.570312 205.367188 108.164062 220.335938 102.550781 225.945312 Z M 105.113281 172.152344 C 104.203125 170.640625 100.5625 165.734375 91.691406 166.136719 C 88.371094 166.292969 85.019531 168.425781 82.945312 171.703125 C 80.738281 175.191406 80.328125 179.257812 81.828125 182.859375 C 83.273438 186.320312 86.316406 188.875 90.1875 189.863281 C 94.421875 190.949219 98.910156 190.027344 102.195312 187.394531 C 110.113281 181.050781 105.648438 173.050781 105.113281 172.152344 Z M 114.664062 152.332031 C 114 152.527344 113.34375 152.796875 112.6875 153.148438 C 108.605469 155.359375 106.625 158.789062 106.800781 163.359375 C 106.90625 166.105469 107.789062 168.460938 108.164062 169.347656 C 109.09375 169.816406 111.363281 170.980469 113.203125 172.039062 C 114.035156 172.515625 114.503906 173.183594 114.722656 173.894531 C 115.597656 174.140625 121.84375 175.613281 126.378906 168.652344 C 129.128906 164.4375 127.355469 158.628906 124.292969 155.304688 C 121.707031 152.492188 118.421875 151.421875 115.164062 152.199219 C 115.25 152.472656 115.296875 152.640625 115.296875 152.640625 C 115.296875 152.640625 115.078125 152.527344 114.664062 152.332031 Z M 109.511719 168.726562 C 109.375 169.015625 109.503906 169.363281 109.796875 169.496094 C 109.917969 169.550781 111.898438 170.441406 114.875 170.441406 C 116.253906 170.441406 117.855469 170.246094 119.574219 169.691406 C 119.875 169.589844 120.042969 169.269531 119.949219 168.960938 C 119.847656 168.660156 119.527344 168.492188 119.21875 168.585938 C 114.242188 170.191406 110.320312 168.460938 110.28125 168.4375 C 109.984375 168.304688 109.636719 168.433594 109.511719 168.726562 Z M 222.640625 75.074219 C 222.640625 75.917969 223.324219 76.609375 224.171875 76.609375 C 225.023438 76.609375 225.703125 75.925781 225.703125 75.074219 C 225.703125 74.234375 225.023438 73.542969 224.171875 73.542969 C 223.324219 73.542969 222.640625 74.226562 222.640625 75.074219 Z M 242.707031 73.882812 C 242.707031 73.042969 242.023438 72.351562 241.175781 72.351562 C 240.324219 72.351562 239.644531 73.035156 239.644531 73.882812 C 239.644531 74.726562 240.324219 75.417969 241.175781 75.417969 C 242.023438 75.417969 242.707031 74.726562 242.707031 73.882812 Z M 111.707031 186.539062 C 116.554688 185.328125 120.632812 181.628906 120.796875 181.472656 C 121.03125 181.261719 121.054688 180.890625 120.832031 180.65625 C 120.617188 180.421875 120.25 180.402344 120.015625 180.625 C 119.976562 180.65625 115.980469 184.285156 111.425781 185.421875 C 110.078125 185.757812 109.210938 186.4375 108.953125 187.34375 C 108.746094 188.085938 109.015625 188.886719 109.675781 189.550781 C 110.585938 190.453125 112.429688 191.222656 115.125 191.222656 C 116.578125 191.222656 118.28125 191.003906 120.222656 190.453125 C 120.53125 190.367188 120.710938 190.046875 120.625 189.738281 C 120.539062 189.429688 120.214844 189.25 119.910156 189.335938 C 115.164062 190.667969 111.757812 189.992188 110.492188 188.726562 C 110.28125 188.519531 109.945312 188.097656 110.074219 187.648438 C 110.207031 187.167969 110.800781 186.761719 111.707031 186.539062 Z M 225.175781 148.859375 C 225.242188 148.8125 232.136719 144.164062 239.890625 143.171875 C 240.203125 143.132812 240.433594 142.84375 240.390625 142.523438 C 240.351562 142.210938 240.070312 141.988281 239.742188 142.023438 C 231.699219 143.046875 224.808594 147.703125 224.519531 147.902344 C 224.257812 148.085938 224.1875 148.445312 224.367188 148.707031 C 224.480469 148.875 224.660156 148.960938 224.847656 148.960938 C 224.960938 148.960938 225.074219 148.925781 225.175781 148.859375 Z M 214.007812 202.128906 C 213.820312 202.382812 213.875 202.753906 214.128906 202.941406 C 214.234375 203.019531 214.355469 203.054688 214.476562 203.054688 C 214.652344 203.054688 214.832031 202.972656 214.945312 202.820312 C 215.105469 202.605469 218.914062 197.453125 220.621094 193.699219 C 222.238281 190.132812 224.359375 188.304688 224.378906 188.285156 C 224.621094 188.078125 224.652344 187.710938 224.445312 187.46875 C 224.238281 187.230469 223.878906 187.195312 223.628906 187.402344 C 223.535156 187.484375 221.300781 189.402344 219.570312 193.21875 C 217.902344 196.863281 214.046875 202.078125 214.007812 202.128906 Z M 216.644531 50.625 C 215.957031 55.25 218.042969 61.640625 218.042969 61.640625 L 219.066406 51.824219 C 219.640625 52.011719 220.257812 52.171875 220.933594 52.285156 C 233.011719 54.324219 252.402344 48.03125 252.402344 48.03125 C 252.402344 56.875 260.226562 70.652344 264.140625 70.820312 C 268.054688 70.988281 268.222656 58.058594 268.222656 58.058594 C 268.222656 58.058594 276.382812 60.609375 275.703125 66.730469 C 275.019531 72.855469 270.597656 75.746094 268.386719 79.492188 C 266.179688 83.230469 266.996094 87.308594 266.996094 87.308594 C 279.550781 79.8125 285.738281 55.167969 281.316406 49.894531 C 276.894531 44.625 278.765625 42.414062 275.019531 35.09375 C 271.277344 27.78125 258.691406 31.179688 252.570312 26.589844 C 246.449219 22 239.300781 27.78125 234.203125 29.65625 C 229.097656 31.527344 226.039062 28.296875 219.917969 32.039062 C 214.699219 35.230469 210.355469 46.183594 216.644531 50.625 Z M 238.210938 139.257812 C 238.523438 139.207031 238.738281 138.902344 238.6875 138.589844 C 238.632812 138.273438 238.339844 138.0625 238.015625 138.113281 C 228.101562 139.828125 222.648438 144.683594 222.417969 144.894531 C 222.183594 145.105469 222.164062 145.476562 222.378906 145.710938 C 222.492188 145.835938 222.652344 145.894531 222.808594 145.894531 C 222.949219 145.894531 223.082031 145.847656 223.195312 145.75 C 223.25 145.703125 228.648438 140.910156 238.210938 139.257812 Z M 234.304688 84.664062 C 234.328125 84.664062 234.351562 84.671875 234.375 84.671875 C 234.664062 84.671875 234.910156 84.457031 234.953125 84.164062 C 234.992188 83.847656 234.765625 83.554688 234.449219 83.511719 C 234.429688 83.511719 232.183594 83.191406 232.0625 81.988281 C 231.894531 80.320312 231.558594 73.074219 231.554688 73 C 231.539062 72.679688 231.265625 72.433594 230.945312 72.453125 C 230.621094 72.464844 230.375 72.742188 230.394531 73.054688 C 230.410156 73.355469 230.738281 80.402344 230.910156 82.101562 C 231.117188 84.242188 234.175781 84.644531 234.304688 84.664062 Z M 243.25 90.0625 C 242.980469 90.230469 242.894531 90.59375 243.070312 90.859375 C 243.175781 91.035156 243.371094 91.136719 243.558594 91.136719 C 243.664062 91.136719 243.769531 91.109375 243.863281 91.046875 C 247.191406 88.960938 248.148438 86.4375 247.941406 84.769531 C 247.828125 83.863281 247.359375 83.191406 246.683594 82.976562 C 246.019531 82.765625 245.285156 83.03125 244.660156 83.699219 C 242.59375 85.929688 238.015625 87.09375 237.96875 87.105469 C 237.664062 87.1875 237.46875 87.5 237.546875 87.808594 C 237.628906 88.125 237.941406 88.304688 238.25 88.230469 C 238.453125 88.183594 243.210938 86.972656 245.511719 84.492188 C 245.8125 84.167969 246.121094 84.015625 246.328125 84.082031 C 246.554688 84.15625 246.734375 84.484375 246.789062 84.917969 C 246.949219 86.164062 246.113281 88.257812 243.25 90.0625 Z M 228.589844 68.511719 C 228.777344 68.511719 228.964844 68.417969 229.070312 68.25 C 229.246094 67.984375 229.171875 67.621094 228.902344 67.449219 C 223.722656 64.054688 219.289062 66.644531 219.101562 66.757812 C 218.824219 66.925781 218.738281 67.28125 218.898438 67.554688 C 219.066406 67.828125 219.421875 67.921875 219.695312 67.753906 C 219.734375 67.734375 223.691406 65.425781 228.269531 68.425781 C 228.367188 68.476562 228.480469 68.511719 228.589844 68.511719 Z M 254.101562 99.058594 C 253.253906 97.699219 248.664062 102.457031 242.320312 103.660156 L 242.320312 108.621094 C 237.996094 108.78125 233.328125 109.175781 227.847656 110.960938 C 218.519531 114.003906 216.027344 121.566406 215.507812 127.019531 C 223.90625 121.722656 235.753906 116.074219 242.320312 113.074219 L 242.320312 110.332031 C 247.109375 108.246094 254.871094 100.28125 254.101562 99.058594 Z M 227.738281 151.683594 C 227.824219 151.683594 227.914062 151.664062 228 151.625 C 228.09375 151.578125 237.449219 146.925781 242.859375 147.09375 C 242.867188 147.09375 242.875 147.09375 242.882812 147.09375 C 243.195312 147.09375 243.449219 146.847656 243.464844 146.53125 C 243.46875 146.210938 243.222656 145.941406 242.902344 145.9375 C 242.792969 145.929688 242.695312 145.929688 242.585938 145.929688 C 236.871094 145.929688 227.871094 150.394531 227.492188 150.585938 C 227.203125 150.726562 227.089844 151.074219 227.230469 151.363281 C 227.324219 151.570312 227.53125 151.683594 227.738281 151.683594 Z M 299.347656 251.292969 C 291.601562 248.96875 286.234375 251.539062 283.429688 253.621094 C 277.121094 245.015625 266.84375 239.347656 255.300781 239.894531 C 237.265625 240.746094 228.429688 247.890625 226.722656 254.015625 C 226.722656 254.015625 241.007812 248.742188 249.171875 249.25 C 249.171875 249.25 243.046875 271.53125 252.234375 293.8125 L 261.082031 282.761719 C 261.082031 282.761719 269.417969 283.441406 267.378906 292.964844 C 265.335938 302.492188 254.449219 304.359375 254.449219 304.359375 L 255.789062 311.371094 C 255.789062 311.371094 268.402344 306.566406 274.015625 302.828125 C 276.238281 301.347656 279.410156 298.613281 282.347656 294.804688 C 287.902344 307.195312 297.628906 309.296875 297.148438 306.742188 C 296.640625 304.019531 298.679688 297.730469 305.484375 287.859375 C 312.277344 277.996094 311.261719 254.863281 299.347656 251.292969 Z M 222.042969 270.175781 C 221.25 270.175781 220.597656 270.824219 220.597656 271.621094 C 220.597656 272.414062 221.25 273.066406 222.042969 273.066406 C 222.839844 273.066406 223.488281 272.414062 223.488281 271.621094 C 223.488281 270.824219 222.839844 270.175781 222.042969 270.175781 Z M 209.390625 245.136719 L 213.574219 261.851562 L 213.90625 261.175781 C 214.515625 259.871094 214.984375 258.472656 215.265625 257 L 217.453125 245.542969 Z M 218.210938 285.539062 C 217.871094 284.929688 217.058594 283.035156 217.777344 282.320312 C 218.917969 281.175781 226.816406 275.285156 226.894531 275.234375 C 227.148438 275.039062 227.203125 274.675781 227.015625 274.421875 C 226.820312 274.167969 226.460938 274.113281 226.207031 274.300781 C 225.878906 274.550781 218.164062 280.296875 216.960938 281.503906 C 215.5 282.960938 217.027344 285.792969 217.207031 286.105469 C 217.3125 286.292969 217.507812 286.398438 217.707031 286.398438 C 217.800781 286.398438 217.902344 286.375 217.988281 286.328125 C 218.265625 286.167969 218.363281 285.816406 218.210938 285.539062 Z M 227.878906 263.34375 C 228.824219 264.113281 229.332031 265.328125 229.371094 266.957031 C 229.378906 267.269531 229.640625 267.515625 229.953125 267.515625 C 229.960938 267.515625 229.96875 267.515625 229.96875 267.515625 C 230.289062 267.511719 230.535156 267.242188 230.527344 266.921875 C 230.476562 264.933594 229.828125 263.421875 228.601562 262.433594 C 226.453125 260.691406 223.34375 261.242188 223.207031 261.261719 C 222.894531 261.320312 222.6875 261.621094 222.746094 261.9375 C 222.808594 262.25 223.117188 262.457031 223.421875 262.40625 C 223.449219 262.40625 226.144531 261.9375 227.878906 263.34375 Z M 222.492188 197.59375 C 223.769531 194.554688 225.050781 193.390625 225.0625 193.382812 C 225.304688 193.171875 225.332031 192.808594 225.117188 192.566406 C 224.902344 192.328125 224.539062 192.300781 224.300781 192.515625 C 224.238281 192.566406 222.820312 193.832031 221.429688 197.144531 C 219.921875 200.71875 216.214844 207.222656 208.300781 210.613281 C 199.890625 214.214844 195.949219 220.613281 195.789062 220.878906 C 195.621094 221.152344 195.707031 221.507812 195.980469 221.675781 C 196.074219 221.730469 196.183594 221.761719 196.28125 221.761719 C 196.476562 221.761719 196.671875 221.660156 196.777344 221.480469 C 196.820312 221.421875 200.6875 215.136719 208.753906 211.679688 C 217.039062 208.125 220.921875 201.332031 222.492188 197.59375 Z M 234.710938 281.140625 C 234.710938 280.34375 234.0625 279.695312 233.265625 279.695312 C 232.46875 279.695312 231.820312 280.34375 231.820312 281.140625 C 231.820312 281.9375 232.46875 282.585938 233.265625 282.585938 C 234.0625 282.585938 234.710938 281.945312 234.710938 281.140625 Z M 239.789062 272.457031 C 237.761719 271.269531 235.6875 271.128906 235.601562 271.125 C 235.28125 271.082031 235.003906 271.34375 234.984375 271.667969 C 234.964844 271.988281 235.207031 272.261719 235.527344 272.28125 C 235.546875 272.28125 237.40625 272.414062 239.207031 273.460938 C 241.570312 274.835938 242.667969 277.09375 242.472656 280.171875 C 242.453125 280.492188 242.695312 280.765625 243.015625 280.785156 C 243.027344 280.785156 243.042969 280.785156 243.054688 280.785156 C 243.355469 280.785156 243.609375 280.550781 243.628906 280.246094 C 243.910156 275.820312 241.695312 273.566406 239.789062 272.457031 Z M 284.019531 151.101562 L 288.234375 151.101562 L 286.421875 144.304688 Z M 227.511719 291.359375 C 223.441406 295.265625 218.992188 293.210938 218.804688 293.125 C 218.519531 292.984375 218.171875 293.113281 218.035156 293.398438 C 217.894531 293.6875 218.015625 294.035156 218.304688 294.167969 C 218.332031 294.183594 219.816406 294.878906 221.890625 294.878906 C 223.757812 294.878906 226.105469 294.316406 228.3125 292.195312 C 228.546875 291.972656 228.554688 291.605469 228.328125 291.378906 C 228.105469 291.144531 227.738281 291.132812 227.511719 291.359375 Z M 230.460938 312.015625 L 228.976562 318.445312 C 232.441406 316.503906 239.394531 312.441406 239.140625 311.164062 C 238.800781 309.464844 234.710938 311.507812 230.460938 312.015625 Z M 197.828125 349.539062 L 183.683594 348.945312 C 183.367188 348.917969 183.09375 349.179688 183.082031 349.5 C 183.066406 349.820312 183.316406 350.089844 183.636719 350.101562 L 197.78125 350.695312 C 197.789062 350.695312 197.796875 350.695312 197.808594 350.695312 C 198.117188 350.695312 198.371094 350.457031 198.382812 350.140625 C 198.398438 349.820312 198.148438 349.554688 197.828125 349.539062 Z M 81.285156 170.910156 C 81.582031 170.910156 81.828125 170.6875 81.863281 170.394531 C 81.890625 170.144531 82.589844 164.371094 88.671875 163.59375 C 88.988281 163.554688 89.214844 163.265625 89.175781 162.945312 C 89.136719 162.632812 88.839844 162.402344 88.527344 162.445312 C 81.519531 163.339844 80.71875 170.207031 80.710938 170.273438 C 80.675781 170.59375 80.90625 170.875 81.226562 170.910156 C 81.246094 170.902344 81.265625 170.910156 81.285156 170.910156 Z M 125.710938 225.390625 C 125.394531 225.457031 125.195312 225.765625 125.261719 226.078125 C 125.28125 226.160156 126.988281 234.402344 123.082031 240.003906 C 121.160156 242.757812 118.183594 244.4375 114.222656 245.007812 C 99.40625 247.121094 84.3125 234.0625 84.15625 233.933594 C 83.917969 233.71875 83.546875 233.746094 83.339844 233.988281 C 83.125 234.226562 83.152344 234.597656 83.394531 234.804688 C 83.554688 234.945312 87.328125 238.230469 93.042969 241.300781 C 97.574219 243.738281 104.082031 246.394531 110.910156 246.394531 C 112.058594 246.394531 113.222656 246.320312 114.386719 246.152344 C 118.675781 245.535156 121.921875 243.695312 124.03125 240.664062 C 128.226562 234.648438 126.472656 226.191406 126.398438 225.832031 C 126.324219 225.515625 126.019531 225.316406 125.710938 225.390625 Z M 135.773438 202.015625 C 134.320312 203.242188 130.378906 206.136719 124.667969 207.066406 C 117.582031 208.21875 123.910156 213.691406 134.527344 209.222656 C 134.113281 208.023438 133.679688 206.699219 133.511719 206.042969 C 133.386719 205.550781 134.488281 204.15625 135.773438 202.015625 Z M 104.492188 271.4375 L 120.007812 271.4375 L 104.304688 262.960938 Z M 101.867188 158.996094 C 102.175781 158.996094 102.4375 158.75 102.445312 158.441406 C 102.449219 158.242188 102.699219 153.523438 108.699219 153.214844 C 109.023438 153.203125 109.261719 152.929688 109.25 152.609375 C 109.234375 152.285156 108.976562 152.046875 108.640625 152.058594 C 101.554688 152.421875 101.285156 158.34375 101.285156 158.402344 C 101.273438 158.722656 101.527344 158.984375 101.847656 158.996094 C 101.855469 158.996094 101.863281 158.996094 101.867188 158.996094 Z M 135.714844 330.09375 C 135.554688 329.820312 135.199219 329.71875 134.925781 329.878906 C 134.648438 330.039062 134.550781 330.394531 134.710938 330.671875 L 147.136719 352.269531 C 147.242188 352.457031 147.4375 352.558594 147.636719 352.558594 C 147.738281 352.558594 147.832031 352.53125 147.925781 352.484375 C 148.199219 352.324219 148.300781 351.96875 148.140625 351.695312 Z M 148.960938 205.589844 C 148.726562 205.375 148.359375 205.390625 148.144531 205.621094 C 147.925781 205.855469 147.945312 206.226562 148.179688 206.4375 C 148.226562 206.484375 153.050781 211.003906 152.996094 214.835938 C 152.984375 215.988281 152.527344 216.929688 151.617188 217.726562 C 146.90625 221.847656 135.414062 219.492188 135.296875 219.46875 C 134.984375 219.398438 134.675781 219.601562 134.609375 219.914062 C 134.542969 220.230469 134.742188 220.539062 135.058594 220.605469 C 135.320312 220.660156 138.605469 221.335938 142.425781 221.335938 C 145.945312 221.335938 149.914062 220.757812 152.375 218.605469 C 153.53125 217.59375 154.128906 216.328125 154.148438 214.855469 C 154.214844 210.507812 149.175781 205.789062 148.960938 205.589844 Z M 180.15625 120.410156 C 168.527344 123.554688 162.578125 131.234375 162.332031 131.5625 C 162.136719 131.816406 162.183594 132.179688 162.445312 132.375 C 162.550781 132.453125 162.671875 132.492188 162.792969 132.492188 C 162.96875 132.492188 163.140625 132.414062 163.253906 132.265625 C 163.316406 132.191406 169.210938 124.570312 180.457031 121.527344 C 180.765625 121.441406 180.945312 121.125 180.867188 120.816406 C 180.785156 120.507812 180.464844 120.328125 180.15625 120.410156 Z M 196.523438 345.757812 C 196.839844 345.804688 197.132812 345.589844 197.1875 345.269531 C 197.234375 344.957031 197.019531 344.660156 196.699219 344.609375 C 191.070312 343.75 183.273438 344.726562 182.941406 344.773438 C 182.625 344.816406 182.398438 345.101562 182.4375 345.425781 C 182.480469 345.71875 182.726562 345.933594 183.015625 345.933594 C 183.042969 345.933594 183.0625 345.933594 183.089844 345.925781 C 183.167969 345.914062 191.058594 344.929688 196.523438 345.757812 Z M 196.089844 340.320312 C 196.097656 340.320312 196.097656 340.320312 196.101562 340.320312 C 196.417969 340.320312 196.671875 340.070312 196.683594 339.757812 C 196.691406 339.4375 196.4375 339.175781 196.121094 339.160156 C 189.15625 339 181.6875 340.601562 181.617188 340.621094 C 181.300781 340.6875 181.105469 340.996094 181.175781 341.308594 C 181.234375 341.578125 181.476562 341.765625 181.742188 341.765625 C 181.78125 341.765625 181.824219 341.757812 181.871094 341.75 C 181.929688 341.738281 189.285156 340.160156 196.089844 340.320312 Z M 164.136719 108.050781 C 163.910156 107.824219 163.542969 107.824219 163.320312 108.050781 C 163.0625 108.3125 156.910156 114.582031 154.09375 127.730469 C 154.027344 128.042969 154.226562 128.351562 154.542969 128.417969 C 154.582031 128.425781 154.625 128.433594 154.664062 128.433594 C 154.929688 128.433594 155.171875 128.246094 155.230469 127.976562 C 157.976562 115.183594 164.085938 108.933594 164.144531 108.875 C 164.367188 108.640625 164.367188 108.277344 164.136719 108.050781 Z M 334.652344 108.839844 L 328.523438 104.84375 C 327.792969 104.371094 327.136719 103.828125 326.535156 103.234375 C 316.492188 104.136719 311.3125 106.765625 304.167969 97.511719 C 294.257812 84.683594 279.449219 93.054688 267.351562 101.339844 C 268.996094 105.308594 271.347656 108.191406 271.96875 108.921875 C 281.335938 112.226562 296.257812 117.652344 302.621094 120.835938 C 308.675781 123.867188 312.566406 127.664062 315.101562 132.695312 L 314.011719 138.347656 L 315.734375 129.390625 C 316.390625 125.96875 318.425781 122.964844 321.355469 121.085938 L 334.640625 112.558594 C 335.992188 111.695312 335.996094 109.714844 334.652344 108.839844 Z M 334.652344 108.839844 " fill-opacity="1" fill-rule="nonzero"/></g></svg>